<svg width="122px" height="44px" viewBox="0 0 122 44" version="1.1" xmlns="http://www.w3.org/2000/svg" xmlns:xlink="http://www.w3.org/1999/xlink">
    <!-- Generator: Sketch 49.3 (51167) - http://www.bohemiancoding.com/sketch -->
    <desc>Created with Sketch.</desc>
    <defs></defs>
    <g id="Website" stroke="none" stroke-width="1" fill="none" fill-rule="evenodd">
        <g id="nextjs.org" transform="translate(-1600.000000, -1337.000000)" fill="#000000">
            <g id="Companies" transform="translate(-17.000000, 1337.000000)">
                <g id="Auth0" transform="translate(1617.517734, 0.000000)">
                    <g id="Clipped">
                        <g transform="translate(48.976190, 11.523810)" fill-rule="nonzero">
                            <path d="M64.825881,0.0288095238 C62.7102143,0.0288095238 60.920881,1.02561905 59.6511667,2.91107143 C58.3890476,4.7852619 57.7219762,7.40142857 57.7219762,10.4761905 C57.7219762,13.5509524 58.3890476,16.167119 59.6511667,18.0410476 C60.920881,19.9267619 62.7102143,20.9233095 64.825881,20.9233095 C66.9415476,20.9233095 68.730881,19.9267619 70.0005952,18.0410476 C71.2624524,16.167119 71.9295238,13.5509524 71.9295238,10.4761905 C71.9295238,7.40142857 71.2624524,4.7852619 70.0005952,2.91107143 C68.730881,1.02561905 66.9415476,0.0288095238 64.825881,0.0288095238 Z M64.825881,18.3346429 C63.8144048,18.3346429 63.0153333,17.762381 62.3823095,16.5848571 C61.6178095,15.1624524 61.1966667,12.9930952 61.1966667,10.4761905 C61.1966667,7.95928571 61.6178095,5.78966667 62.3823095,4.36752381 C63.0153333,3.19 63.8144048,2.61747619 64.825881,2.61747619 C65.8370952,2.61747619 66.6364286,3.19 67.2694524,4.36752381 C68.0339524,5.78966667 68.4548333,7.95902381 68.4548333,10.4761905 C68.4548333,12.9933571 68.0339524,15.1629762 67.2694524,16.5848571 C66.6364286,17.762381 65.8370952,18.3346429 64.825881,18.3346429 Z M18.975,7.64028571 L18.975,16.6267619 C18.975,18.9959524 20.902619,20.9233095 23.2718095,20.9233095 C25.3382381,20.9233095 26.8994524,19.8982143 27.4743333,19.4571667 C27.5062857,19.4325476 27.5481905,19.4252143 27.5866905,19.4375238 C27.6251905,19.4498333 27.6550476,19.4802143 27.6668333,19.5189762 L28.0135952,20.6538095 L30.5739762,20.6538095 L30.5739762,7.64028571 L27.2839286,7.64028571 L27.2839286,17.3710952 C27.2839286,17.4169286 27.258,17.4590952 27.2174048,17.4803095 C26.5987857,17.7993095 25.3783095,18.3349048 24.1557381,18.3349048 C23.113619,18.3349048 22.2650476,17.4868571 22.2650476,16.4442143 L22.2650476,7.64028571 L18.975,7.64028571 Z M51.9192143,20.6535476 L55.2095238,20.6535476 L55.2095238,11.6670714 C55.2095238,9.29788095 53.2819048,7.3702619 50.9127143,7.3702619 C49.1686905,7.3702619 47.7695952,8.12009524 47.091,8.56690476 C47.0530238,8.59178571 47.0048333,8.59388095 46.9652857,8.57240476 C46.9257381,8.55092857 46.9005952,8.50954762 46.9005952,8.4642381 L46.9005952,0.298833333 L43.6105476,0.298833333 L43.6105476,20.6535476 L46.9005952,20.6535476 L46.9005952,10.9224762 C46.9005952,10.8766429 46.9265238,10.8344762 46.967381,10.8135238 C47.5857381,10.4942619 48.8064762,9.95892857 50.0287857,9.95892857 C50.5337381,9.95892857 51.0085714,10.155619 51.3655476,10.5125952 C51.7225238,10.8695714 51.9189524,11.3446667 51.9189524,11.8493571 L51.9189524,20.6535476 L51.9192143,20.6535476 Z M32.9455238,10.2286905 L34.9480476,10.2286905 C35.015881,10.2286905 35.070881,10.2836905 35.070881,10.3515238 L35.070881,17.5104286 C35.070881,19.3922143 36.6019762,20.9230476 38.4837619,20.9230476 C39.1660238,20.9230476 39.839119,20.8245714 40.4865476,20.6302381 L40.4865476,18.2799048 C40.108881,18.3131667 39.6746429,18.3346429 39.3676905,18.3346429 C38.8124524,18.3346429 38.3609286,17.8828571 38.3609286,17.327881 L38.3609286,10.3512619 C38.3609286,10.2834286 38.4159286,10.2284286 38.4837619,10.2284286 L40.4865476,10.2284286 L40.4865476,7.64002381 L38.4837619,7.64002381 C38.4159286,7.64002381 38.3609286,7.58502381 38.3609286,7.51719048 L38.3609286,3.22011905 L35.070881,3.22011905 L35.070881,7.51719048 C35.070881,7.58502381 35.015881,7.64002381 34.9480476,7.64002381 L32.9455238,7.64002381 L32.9455238,10.2286905 Z M13.7135952,20.6535476 L17.1361667,20.6535476 L11.9310714,2.50119048 C11.5138571,1.04552381 10.1647857,0.0288095238 8.65045238,0.0288095238 C7.13611905,0.0288095238 5.78704762,1.04552381 5.36957143,2.50119048 L0.16447619,20.6535476 L3.58730952,20.6535476 L5.09378571,15.3994762 C5.10897619,15.3468333 5.15716667,15.3106905 5.21190476,15.3106905 L12.089,15.3106905 C12.1437381,15.3106905 12.1921905,15.3468333 12.207119,15.3994762 L13.7135952,20.6535476 Z M11.2765714,12.7222857 L6.02485714,12.7222857 C5.98635714,12.7222857 5.94995238,12.7042143 5.92664286,12.6730476 C5.90359524,12.6426667 5.8962619,12.6025952 5.9067381,12.5656667 L8.53259524,3.40790476 C8.54778571,3.3552619 8.59597619,3.31911905 8.65071429,3.31911905 C8.70545238,3.31911905 8.75364286,3.3552619 8.76857143,3.40790476 L11.3946905,12.5656667 C11.4051667,12.6028571 11.3978333,12.6426667 11.3745238,12.6730476 C11.3514762,12.7042143 11.3150714,12.7222857 11.2765714,12.7222857 Z" id="Shape"></path>
                        </g>
                        <g fill-rule="nonzero">
                            <path d="M31.3120238,35.5826429 L26.8989286,21.9992143 L38.4510238,13.6064762 L24.1714524,13.6064762 L19.7580952,0.0235714286 L19.7567857,0.0199047619 L34.0384524,0.0199047619 L38.4528571,13.6051667 L38.453119,13.6049048 L38.4567857,13.6028095 C41.0203095,21.4840476 38.3800476,30.448 31.3120238,35.5826429 Z M8.20311905,35.5826429 L8.19945238,35.5852619 L19.7544286,43.9800952 L31.3120238,35.5829048 L19.7580952,27.1878095 L8.20311905,35.5826429 Z M1.0612381,13.6030714 C-1.63742857,21.9109524 1.49521429,30.7140952 8.2007619,35.5842143 L8.20180952,35.5800238 L12.6154286,21.997381 L1.06595238,13.6062143 L15.342119,13.6062143 L19.7557381,0.0233095238 L19.7567857,0.0196428571 L5.47433333,0.0196428571 L1.0612381,13.6030714 Z" id="Shape"></path>
                        </g>
                    </g>
                </g>
            </g>
        </g>
    </g>
</svg>
