<svg width="40px" height="40px" viewBox="0 0 40 40" version="1.1" xmlns="http://www.w3.org/2000/svg" xmlns:xlink="http://www.w3.org/1999/xlink">
  <g id="Website" stroke="none" stroke-width="1" fill="none" fill-rule="evenodd">
      <g id="nextjs.org" transform="translate(-824.000000, -2274.000000)">
          <g id="Features" transform="translate(471.000000, 2274.000000)">
              <g id="Feature" transform="translate(353.000000, 0.000000)">
                  <g id="Icon">
                      <rect id="Rectangle-2-Copy" stroke="#EAEAEA" x="0.5" y="0.5" width="39" height="39" rx="5"></rect>
                      <path d="M26,18 C23.7911429,18 22,16.2086354 22,13.9998571 C22,11.7907932 23.7911429,10 26,10 C28.2091429,10 30,11.7907932 30,13.9998571 C30,16.2089211 28.2091429,18 26,18 Z M26,11 C24.3434,11 23,12.3433328 23,13.99985 C23,15.6569672 24.3434,17 26,17 C27.6569,17 29,15.6569672 29,13.99985 C29,12.3433328 27.6569,11 26,11 Z M13.1336167,14.4002267 L13.1336167,24.6000567 C13.1336167,25.8523691 14.1482333,26.8664022 15.4002833,26.8664022 L25.6,26.8664022 C26.85205,26.8664022 27.8666667,25.8523691 27.8666667,24.6000567 L27.8666667,18.9334844 L29,18.9334844 L29,24.6000567 C29,26.477392 27.47765,28 25.6,28 L15.4002833,28 C13.52235,28 12,26.477392 12,24.6000567 L12,14.4002267 C12,12.5220413 13.52235,11 15.4002833,11 L21.0666667,11 L21.0666667,12.1333144 L15.4002833,12.1333144 C14.1482333,12.1333144 13.1336167,13.1481975 13.1336167,14.4002267 Z" id="Shape" fill="#000000" fill-rule="nonzero"></path>
                  </g>
              </g>
          </g>
      </g>
  </g>
</svg>
