<svg width="40px" height="40px" viewBox="0 0 40 40" version="1.1" xmlns="http://www.w3.org/2000/svg" xmlns:xlink="http://www.w3.org/1999/xlink">
  <g id="Website" stroke="none" stroke-width="1" fill="none" fill-rule="evenodd">
      <g id="nextjs.org" transform="translate(-1177.000000, -2590.000000)">
          <g id="Features" transform="translate(471.000000, 2274.000000)">
              <g id="Feature" transform="translate(706.000000, 316.000000)">
                  <g id="Group-4">
                      <rect id="Rectangle" stroke="#EAEAEA" x="0.5" y="0.5" width="39" height="39" rx="5"></rect>
                      <path d="M28.75,25 L27.5,25 L27.5,23.7494271 L28.125,23.7494271 C28.47,23.7494271 28.75,23.4697513 28.75,23.1250781 L28.75,11.8755469 C28.75,11.5305612 28.47,11.2502604 28.125,11.2502604 L16.875,11.2502604 C16.53,11.2502604 16.25,11.5302487 16.25,11.8755469 L16.25,12.4998958 L15,12.4998958 L15,11.2502604 C15,10.5593517 15.5596875,10 16.25,10 L28.75,10 C29.4403125,10 30,10.5593517 30,11.2502604 L30,23.7494271 C30,24.4400233 29.44,25 28.75,25 Z M26,15.2307456 L26,28.7692544 C26,29.4489337 25.4489231,30 24.7692308,30 L11.2307692,30 C10.5510769,30 10,29.4489337 10,28.7692544 L10,15.2307456 C10,14.5507586 10.5510769,14 11.2307692,14 L24.7692308,14 C25.4486154,14 26,14.5507586 26,15.2307456 Z M24.3636364,15 L11.6363636,15 C11.2850909,15 11,15.2857208 11,15.6363492 L11,28.3630145 C11,28.7152337 11.2850909,29 11.6363636,29 L24.3636364,29 C24.7149091,29 25,28.7152337 25,28.3630145 L25,15.6363492 C25,15.286039 24.7149091,15 24.3636364,15 Z M18.495978,24.1918686 L17.6291516,25 L17.5258661,24.920689 L17.440921,25 L16.5740946,24.1915682 L16.5744164,24.1906669 L14,22.2129982 L14.8668264,21.4045664 L17.440921,23.3816343 L22.1331736,19 L23,19.8093331 L18.3917271,24.1119567 L18.495978,24.1918686 Z" id="Shape" fill="#000000" fill-rule="nonzero"></path>
                  </g>
              </g>
          </g>
      </g>
  </g>
</svg>
