<svg width="40px" height="40px" viewBox="0 0 40 40" version="1.1" xmlns="http://www.w3.org/2000/svg" xmlns:xlink="http://www.w3.org/1999/xlink">
  <g id="Website" stroke="none" stroke-width="1" fill="none" fill-rule="evenodd">
      <g id="nextjs.org" transform="translate(-471.000000, -2274.000000)">
          <g id="Features" transform="translate(471.000000, 2274.000000)">
              <g id="Feature">
                  <g id="Icon">
                      <path d="M24.4,30 L16.6,30 C15.16415,30 14,28.88059 14,27.4996094 L14,23.7501172 L14,22.5000781 L14,15.0001563 L14,13.7494922 L14,12.5000781 C14,11.1190975 15.16415,10 16.6,10 L24.4,10 C25.83585,10 27,11.1190975 27,12.5000781 L27,13.7494922 L27,15.0001563 L27,22.5000781 L27,23.7501172 L27,27.4996094 C27,28.88059 25.835525,30 24.4,30 Z M25,12.50075 C25,11.67125 24.4403125,11 23.75,11 L16.25,11 C15.5596875,11 15,11.67125 15,12.50075 L15,14 L25,14 L25,12.50075 Z M25,15 L15,15 L15,22 L25,22 L25,15 Z M15,24 L15,27.749375 C15,28.4396875 15.5596875,29 16.25,29 L23.75,29 C24.4403125,29 25,28.4396875 25,27.749375 L25,24 L15,24 Z M20.5,27 C19.671625,27 19,26.5526382 19,26.0007502 C19,25.448112 19.671625,25 20.5,25 C21.328375,25 22,25.448112 22,26.0007502 C22,26.5528882 21.328,27 20.5,27 Z" id="Shape" fill="#000000" fill-rule="nonzero"></path>
                      <rect id="Rectangle-2" stroke="#EAEAEA" x="0.5" y="0.5" width="39" height="39" rx="5"></rect>
                  </g>
              </g>
          </g>
      </g>
  </g>
</svg>
