<svg width="40px" height="40px" viewBox="0 0 40 40" version="1.1" xmlns="http://www.w3.org/2000/svg" xmlns:xlink="http://www.w3.org/1999/xlink">
  <g id="Website" stroke="none" stroke-width="1" fill="none" fill-rule="evenodd">
      <g id="nextjs.org" transform="translate(-471.000000, -2590.000000)">
          <g id="Features" transform="translate(471.000000, 2274.000000)">
              <g id="Feature" transform="translate(0.000000, 316.000000)">
                  <g id="Group-2">
                      <rect id="Rectangle" stroke="#EAEAEA" x="0.5" y="0.5" width="39" height="39" rx="5"></rect>
                      <path d="M28.75,26.2497461 L23.75,26.2497461 L23.75,28.749707 L25,28.749707 L25,30 L15,30 L15,28.749707 L16.25,28.749707 L16.25,26.2497461 L11.25,26.2497461 C10.5596875,26.2497461 10,25.6903798 10,24.9994531 L10,11.249668 C10,10.5596788 10.5596875,10 11.25,10 L28.75,10 C29.4403125,10 30,10.5596788 30,11.249668 L30,24.9994531 C30,25.6903798 29.4403125,26.2497461 28.75,26.2497461 Z M18,28 L23,28 L23,26 L18,26 L18,28 Z M29,11.625293 C29,11.2799913 28.712,11 28.3571429,11 L11.6428571,11 C11.288,11 11,11.2799913 11,11.625293 L11,21 L29,21 L29,11.625293 Z M29,22 L11,22 L11,23.5005 C11,23.77625 11.2876786,24 11.6428571,24 L16.1428571,24 L23.8571429,24 L28.3571429,24 C28.712,24 29,23.77625 29,23.5005 L29,22 Z" id="Shape" fill="#000000" fill-rule="nonzero"></path>
                  </g>
              </g>
          </g>
      </g>
  </g>
</svg>
