<svg width="96px" height="36px" viewBox="0 0 96 36" version="1.1" xmlns="http://www.w3.org/2000/svg" xmlns:xlink="http://www.w3.org/1999/xlink">
    <!-- Generator: Sketch 49.3 (51167) - http://www.bohemiancoding.com/sketch -->
    <desc>Created with Sketch.</desc>
    <defs></defs>
    <g id="Symbols" stroke="none" stroke-width="1" fill="none" fill-rule="evenodd">
        <g id="Eaze" fill="#000000" fill-rule="nonzero">
            <g id="Shape">
                <path d="M12.9655172,8.64 C12.9655172,7.47692308 12.6896552,6.20307692 11.9172414,5.81538462 C11.0344828,5.37230769 10.0413793,5.98153846 9.54482759,6.42461538 C8.16551724,7.69846154 7.44827586,10.0246154 7.00689655,12.2953846 C6.51034483,14.6769231 6.23448276,17.3907692 6.51034483,19.9938462 C10.2068966,18.1107692 13.0206897,14.1230769 12.9655172,8.64 Z M7.50344828,24.5907692 C8.66206897,27.8584615 11.1448276,30.24 15.6689655,29.7969231 C18.5931034,29.52 20.5241379,27.9692308 21.8482759,25.92 C22.2344828,25.3107692 22.8965517,24.48 23.0068966,23.7046154 L23.062069,23.6492308 C23.1172414,22.5415385 23.0068966,21.4892308 23.1172414,20.4923077 C23.6689655,13.5138462 26.1517241,8.52923077 30.0689655,4.76307692 C32.2206897,2.71384615 35.0896552,0.996923077 38.6206897,0.332307692 C39.5034483,0.166153846 40.5517241,0.0553846154 41.6,0.0553846154 C44.137931,-3.33066907e-15 45.6827586,1.49538462 45.4068966,4.26461538 C45.3517241,4.70769231 45.2413793,5.26153846 44.8551724,5.42769231 C44.4137931,5.59384615 43.6965517,5.42769231 43.3103448,5.37230769 C39.3931034,4.98461538 36.6344828,6.53538462 34.5931034,8.30769231 C32.1655172,10.4123077 30.6758621,13.2923077 29.737931,16.8923077 C28.6344828,21.3230769 28.3586207,28.4676923 32.4413793,29.6307692 C35.0896552,30.4061538 36.6344828,28.4123077 37.462069,26.5846154 C37.6275862,26.1969231 37.9034483,25.7538462 37.9586207,25.4215385 C38.0689655,24.8123077 37.9586207,24.0923077 37.9586207,23.3723077 L37.9586207,13.2923077 C37.9586207,12.6276923 37.9586207,11.9630769 37.9034483,11.3538462 C37.8482759,10.7446154 37.5172414,9.96923077 37.737931,9.41538462 C38.2896552,8.03076923 40.7724138,8.30769231 41.9310345,8.86153846 C42.6482759,9.24923077 43.2551724,9.80307692 43.6413793,10.6338462 C43.9724138,11.4646154 43.9172414,12.6276923 43.9172414,13.7907692 L43.9172414,24.1476923 C43.9172414,26.7507692 43.9724138,28.6338462 45.4068966,29.52 C46.0689655,29.9076923 47.2275862,29.7415385 48,30.1292308 C48.4965517,30.3507692 49.0482759,30.8492308 48.9931034,31.7907692 C48.8275862,34.2830769 46.9517241,35.6676923 44.2482759,35.3353846 C41.8206897,35.0030769 40.2206897,33.7292308 39.1724138,32.0123077 C38.6758621,32.4553846 38.2344828,32.9538462 37.737931,33.3969231 C36.3586207,34.6153846 34.2068966,35.7230769 31.3931034,35.3907692 C28.0827586,35.0030769 26.0965517,33.1753846 24.7724138,30.7938462 C24.3310345,31.1815385 23.9448276,31.5692308 23.5586207,31.9569231 C21.462069,33.84 18.8137931,35.0584615 15.062069,35.3907692 C10.3172414,35.7784615 7.00689655,33.8953846 4.68965517,31.5138462 C1.6,28.4123077 -0.275862069,23.4830769 0.0551724138,17.1692308 C0.331034483,11.3538462 2.37241379,6.59076923 5.35172414,3.43384615 C6.7862069,1.88307692 8.88275862,0.221538462 11.6413793,0.0553846154 C15.1724138,-0.110769231 17.3241379,1.77230769 18.3172414,4.26461538 C19.4206897,6.97846154 19.1448276,10.8553846 18.262069,13.6246154 C17.4344828,16.2830769 15.9448276,18.6646154 14.1793103,20.4369231 C12.3586207,22.2646154 10.2068966,23.8153846 7.50344828,24.5907692 Z M77.1862069,24.5907692 C77.9586207,26.64 79.2275862,28.3569231 81.1034483,29.2984615 C83.3655172,30.4061538 86.1241379,29.6307692 87.6689655,28.4123077 C90.0413793,26.5846154 90.9793103,23.1507692 91.0344828,18.8307692 C91.0344828,17.3907692 90.7586207,16.0061538 91.2551724,14.8984615 C91.5310345,14.2338462 92.0827586,13.7907692 92.8,13.68 C94.0689655,13.5138462 95.0068966,14.3446154 95.337931,15.2307692 C95.6137931,15.9507692 95.7241379,16.8923077 95.7793103,17.7230769 C96.1103448,20.5476923 95.7793103,23.3169231 95.1724138,25.6430769 C94.2896552,28.8 92.8,31.1815385 90.6482759,32.8430769 C89.5448276,33.7292308 88.2758621,34.3938462 86.7310345,34.8369231 C85.1862069,35.28 83.3655172,35.6123077 81.4896552,35.3907692 C78.1241379,35.0030769 75.7517241,33.2861538 73.9310345,31.2369231 C72.1103448,29.1876923 70.7862069,26.4184615 70.1241379,23.3169231 C69.4068966,20.0492308 69.5724138,15.9507692 70.3448276,12.7384615 C71.3931034,8.14153846 73.5448276,4.15384615 76.9655172,1.71692308 C78.1793103,0.886153846 79.6689655,0.166153846 81.3241379,0.110769231 C84.8551724,-0.0553846154 87.0068966,1.82769231 88,4.32 C89.1034483,6.97846154 88.8827586,10.8 87.9448276,13.68 C87.1172414,16.3384615 85.6275862,18.6646154 83.862069,20.4923077 C82.0965517,22.2646154 79.8896552,23.76 77.1862069,24.5907692 Z M82.5931034,10.1353846 C82.7586207,8.52923077 82.7586207,6.36923077 81.6,5.81538462 C81.1034483,5.53846154 80.3862069,5.70461538 79.9448276,5.92615385 C78.8965517,6.42461538 78.1793103,7.69846154 77.6827586,8.91692308 C76.4689655,11.8523077 75.9172414,16.2276923 76.1931034,19.9938462 C79.6137931,18.1661538 82.1517241,14.9538462 82.5931034,10.1353846 Z M53.0206897,6.97846154 C52.1931034,6.97846154 51.3103448,7.14461538 50.4827586,7.03384615 C48.4965517,6.86769231 47.1724138,4.76307692 47.2275862,2.43692308 C47.2275862,1.49538462 47.5586207,0.609230769 48.3310345,0.387692308 C48.8275862,0.276923077 49.3241379,0.553846154 49.8206897,0.609230769 C50.7586207,0.72 51.7517241,0.664615385 52.8,0.609230769 C54.7310345,0.553846154 56.7724138,0.498461538 58.7034483,0.387692308 C61.6827586,0.276923077 64.8275862,0.166153846 67.4758621,0.830769231 C68.0275862,0.996923077 68.6344828,1.10769231 69.0758621,1.27384615 C69.9586207,1.71692308 71.2275862,2.71384615 71.1724138,3.98769231 C71.1724138,4.48615385 70.6206897,5.20615385 70.3448276,5.59384615 C69.3517241,6.97846154 68.0827586,8.19692308 66.9793103,9.36 C63.8896552,12.7384615 61.0206897,16.0061538 58.262069,19.7169231 C57.6,20.6030769 56.937931,21.5446154 56.3310345,22.5969231 C55.5586207,23.8707692 54.1241379,26.6953846 56,27.6923077 C56.662069,28.0246154 57.7103448,28.0246154 58.8137931,28.0246154 L68.0827586,28.0246154 C69.2413793,28.0246154 70.0689655,28.08 70.7862069,28.4676923 C71.4482759,28.8553846 71.8896552,29.3538462 72.2206897,30.1292308 C72.4413793,30.6276923 72.7724138,31.5138462 72.7172414,32.6769231 C72.7172414,33.4523077 72.4413793,34.6707692 71.5034483,34.7815385 C71.1724138,34.8369231 70.7862069,34.6707692 70.4,34.56 C69.4068966,34.3384615 67.862069,34.4492308 66.6482759,34.4492308 L61.5172414,34.4492308 C57.7655172,34.4492308 54.8965517,34.3384615 52.4689655,33.2307692 C51.3655172,32.7323077 50.4275862,31.5138462 49.8758621,30.4615385 C49.2689655,29.2984615 48.937931,27.6923077 49.1586207,26.1415385 C49.3241379,24.7015385 49.8758621,23.4830769 50.4275862,22.2646154 C53.0758621,16.2830769 56.8275862,11.6307692 60.6896552,6.75692308 C57.9310345,6.81230769 55.6689655,6.97846154 53.0206897,6.97846154 Z"></path>
            </g>
        </g>
    </g>
</svg>
