<svg width="113px" height="31px" viewBox="0 0 113 31" version="1.1" xmlns="http://www.w3.org/2000/svg" xmlns:xlink="http://www.w3.org/1999/xlink">
    <!-- Generator: Sketch 49.3 (51167) - http://www.bohemiancoding.com/sketch -->
    <desc>Created with Sketch.</desc>
    <defs></defs>
    <g id="Website" stroke="none" stroke-width="1" fill="none" fill-rule="evenodd">
        <g id="nextjs.org" transform="translate(-1274.000000, -1343.000000)" fill="#000000">
            <g id="Companies" transform="translate(-17.000000, 1337.000000)">
                <g id="Github" transform="translate(1291.598806, 6.000000)">
                    <g>
                        <path d="M21.5229252,12.9327184 L12.1326094,12.9327184 C11.8903047,12.9327184 11.6939169,13.1290776 11.6939169,13.3716571 L11.6939169,17.9620571 C11.6939169,18.2040163 11.8903047,18.4013061 12.1326094,18.4013061 L15.795723,18.4013061 L15.795723,24.1044082 C15.795723,24.1044082 14.9732521,24.3848327 12.6991247,24.3848327 C10.0163989,24.3848327 6.26858726,23.404898 6.26858726,15.1646367 C6.26858726,6.92282449 10.1712133,5.83835102 13.8349474,5.83835102 C17.006626,5.83835102 18.3726537,6.39640816 19.2422825,6.66566531 C19.5156122,6.7491102 19.7681551,6.47737143 19.7681551,6.23479184 L20.8155568,1.79980408 C20.8155568,1.68626939 20.7770859,1.54946939 20.6480222,1.45702857 C20.2949584,1.20514286 18.1408975,0 12.6991247,0 C6.4305374,0 0,2.66651429 0,15.4860082 C0,28.305502 7.36221607,30.2157388 13.5662715,30.2157388 C18.7030693,30.2157388 21.8192133,28.0210449 21.8192133,28.0210449 C21.9476565,27.9500082 21.9616177,27.7707102 21.9616177,27.6885061 L21.9616177,13.3716571 C21.9616177,13.1290776 21.7652299,12.9327184 21.5229252,12.9327184" id="Fill-11"></path>
                        <path d="M69.9168532,1.53582041 C69.9168532,1.2916898 69.7232576,1.0947102 69.4806427,1.0947102 L64.193374,1.0947102 C63.952,1.0947102 63.7556122,1.2916898 63.7556122,1.53582041 C63.7556122,1.53706122 63.7571634,11.7523918 63.7571634,11.7523918 L55.5153906,11.7523918 L55.5153906,1.53582041 C55.5153906,1.2916898 55.3211745,1.0947102 55.0791801,1.0947102 L49.7922216,1.0947102 C49.5517784,1.0947102 49.3553906,1.2916898 49.3553906,1.53582041 L49.3553906,29.1992 C49.3553906,29.4433306 49.5517784,29.6418612 49.7922216,29.6418612 L55.0791801,29.6418612 C55.3211745,29.6418612 55.5153906,29.4433306 55.5153906,29.1992 L55.5153906,17.3667755 L63.7571634,17.3667755 C63.7571634,17.3667755 63.7425817,29.1982694 63.7425817,29.1992 C63.7425817,29.4433306 63.9386593,29.6418612 64.1806537,29.6418612 L69.4803324,29.6418612 C69.7226371,29.6418612 69.9162327,29.4433306 69.9168532,29.1992 L69.9168532,1.53582041" id="Fill-13"></path>
                        <path d="M31.5002327,5.16613878 C31.5002327,3.26241633 29.9741163,1.72411429 28.090903,1.72411429 C26.2095512,1.72411429 24.6818837,3.26241633 24.6818837,5.16613878 C24.6818837,7.0676898 26.2095512,8.61002449 28.090903,8.61002449 C29.9741163,8.61002449 31.5002327,7.0676898 31.5002327,5.16613878" id="Fill-14"></path>
                        <path d="M31.122349,23.363951 C31.122349,22.6548245 31.122349,10.5944 31.122349,10.5944 C31.122349,10.3518204 30.9265817,10.1536 30.6848975,10.1536 L25.414072,10.1536 C25.1723878,10.1536 24.956144,10.4030041 24.956144,10.6455837 C24.956144,10.6455837 24.956144,26.0112327 24.956144,28.9401796 C24.956144,29.4777633 25.2912133,29.6378286 25.7246316,29.6378286 C25.7246316,29.6378286 27.9745596,29.6378286 30.4733075,29.6378286 C30.9945263,29.6378286 31.122349,29.3819102 31.122349,28.9314939 C31.122349,27.9509388 31.122349,24.1093714 31.122349,23.363951" id="Fill-15"></path>
                        <path d="M90.0107701,10.1954776 L84.764144,10.1954776 C84.5237008,10.1954776 84.3276233,10.393698 84.3276233,10.6375184 L84.3276233,24.2018122 C84.3276233,24.2018122 82.994482,25.1767837 81.1025817,25.1767837 C79.2109917,25.1767837 78.7090083,24.318449 78.7090083,22.4665306 C78.7090083,20.6121306 78.7090083,10.6375184 78.7090083,10.6375184 C78.7090083,10.393698 78.5135512,10.1954776 78.2724875,10.1954776 L72.9473684,10.1954776 C72.7072355,10.1954776 72.5102271,10.393698 72.5102271,10.6375184 C72.5102271,10.6375184 72.5102271,17.8609306 72.5102271,23.3620898 C72.5102271,28.8635592 75.5767313,30.2095347 79.7951911,30.2095347 C83.2563324,30.2095347 86.0467147,28.2977469 86.0467147,28.2977469 C86.0467147,28.2977469 86.1795014,29.3052898 86.2396898,29.4247184 C86.2995679,29.5438367 86.4562438,29.6641959 86.6256399,29.6641959 L90.0132521,29.6489959 C90.253385,29.6489959 90.4503934,29.4504653 90.4503934,29.2075755 L90.4485319,10.6375184 C90.4485319,10.393698 90.2527645,10.1954776 90.0107701,10.1954776" id="Fill-16"></path>
                        <path d="M102.281751,25.1600327 C100.461828,25.1048163 99.2273463,24.2790531 99.2273463,24.2790531 L99.2273463,15.5185796 C99.2273463,15.5185796 100.445075,14.7722286 101.939235,14.6388408 C103.828654,14.4697796 105.649197,15.0402449 105.649197,19.5468898 C105.649197,24.2989061 104.827657,25.2369633 102.281751,25.1600327 Z M104.351114,9.57382857 C101.371169,9.57382857 99.3443102,10.9033633 99.3443102,10.9033633 L99.3443102,1.53582041 C99.3443102,1.2916898 99.1488532,1.0947102 98.9080997,1.0947102 L93.6056288,1.0947102 C93.3645651,1.0947102 93.1687978,1.2916898 93.1687978,1.53582041 L93.1687978,29.1992 C93.1687978,29.4433306 93.3645651,29.6418612 93.6062493,29.6418612 C93.6068698,29.6418612 97.2839446,29.6418612 97.2851856,29.6418612 C97.4508587,29.6418612 97.5761994,29.5565551 97.668964,29.4070367 C97.7604875,29.258449 97.8923435,28.1314776 97.8923435,28.1314776 C97.8923435,28.1314776 100.060366,30.185649 104.164654,30.185649 C108.983446,30.185649 111.746837,27.7418612 111.746837,19.2152816 C111.746837,10.6880816 107.33323,9.57382857 104.351114,9.57382857 Z" id="Fill-17"></path>
                        <path d="M46.3183601,10.1511184 L42.352133,10.1511184 C42.352133,10.1511184 42.3462382,4.91332245 42.3462382,4.91239184 C42.3462382,4.71386122 42.243856,4.61490612 42.0145817,4.61490612 L36.6100388,4.61490612 C36.3996898,4.61490612 36.2870693,4.70734694 36.2870693,4.9092898 L36.2870693,10.3229714 C36.2870693,10.3229714 33.5785928,10.9768816 33.3952355,11.0296163 C33.2131191,11.082351 33.0787812,11.2504816 33.0787812,11.4511837 L33.0787812,14.8531918 C33.0787812,15.0979429 33.2742382,15.2952327 33.5159224,15.2952327 L36.2870693,15.2952327 C36.2870693,15.2952327 36.2870693,18.8535837 36.2870693,23.4796571 C36.2870693,29.5587265 40.5517562,30.1558694 43.4293186,30.1558694 C44.7444654,30.1558694 46.3174294,29.7336816 46.577108,29.6378286 C46.7340942,29.5801306 46.8253075,29.4172735 46.8253075,29.2410776 L46.8299612,25.4987755 C46.8299612,25.2546449 46.6236454,25.0570449 46.3915789,25.0570449 C46.160133,25.0570449 45.569108,25.1510367 44.9603989,25.1510367 C43.0120332,25.1510367 42.352133,24.2452408 42.352133,23.0729796 C42.352133,21.901649 42.3518227,15.2952327 42.3518227,15.2952327 L46.3183601,15.2952327 C46.5600443,15.2952327 46.7558116,15.0979429 46.7558116,14.8531918 L46.7558116,10.5919184 C46.7558116,10.3477878 46.5600443,10.1511184 46.3183601,10.1511184" id="Fill-18"></path>
                    </g>
                </g>
            </g>
        </g>
    </g>
</svg>
