<svg width="21px" height="20px" viewBox="0 0 21 20" version="1.1" xmlns="http://www.w3.org/2000/svg" xmlns:xlink="http://www.w3.org/1999/xlink">
  <g id="Symbols" stroke="none" stroke-width="1" fill="#000" fill-rule="evenodd">
      <g id="Github" fill="#000000">
          <path d="M10.4990331,0 C4.70161761,0 0,4.5904205 0,10.2533868 C0,14.7833822 3.00828755,18.6260419 7.18069922,19.9818304 C7.70603763,20.0762447 7.89747997,19.7596422 7.89747997,19.4877292 C7.89747997,19.2447699 7.88845575,18.5996059 7.88329906,17.7442129 C4.96267534,18.3635703 4.34645017,16.3695415 4.34645017,16.3695415 C3.8688112,15.1849574 3.18039228,14.8696139 3.18039228,14.8696139 C2.2270481,14.2338913 3.25258602,14.2464799 3.25258602,14.2464799 C4.30648577,14.3188641 4.8608306,15.30329 4.8608306,15.30329 C5.79741551,16.869937 7.31864084,16.417378 7.91681758,16.1549064 C8.01221646,15.4927479 8.28358759,15.0408184 8.58332054,14.784641 C6.25184935,14.525946 3.80048497,13.6460053 3.80048497,9.7171139 C3.80048497,8.59799041 4.20979772,7.68217225 4.88145738,6.96588286 C4.77316676,6.7065584 4.41284263,5.66359573 4.9845913,4.25241751 C4.9845913,4.25241751 5.86574174,3.97672792 7.87169649,5.30356275 C8.70901501,5.07570971 9.60756929,4.96241262 10.5003223,4.95800662 C11.3924307,4.96241262 12.2903404,5.07570971 13.1289481,5.30356275 C15.1336137,3.97672792 16.0134749,4.25241751 16.0134749,4.25241751 C16.5865128,5.66359573 16.2261886,6.7065584 16.1185426,6.96588286 C16.7914915,7.68217225 17.1975813,8.59799041 17.1975813,9.7171139 C17.1975813,13.6560761 14.7423494,14.5227989 12.4037877,14.7764585 C12.7802265,15.0930609 13.1160564,15.7187126 13.1160564,16.6754436 C13.1160564,18.045709 13.1031646,19.1516145 13.1031646,19.4877292 C13.1031646,19.7621599 13.2926732,20.0812801 13.8251021,19.981201 C17.9942908,18.6222653 21,14.7821233 21,10.2533868 C21,4.5904205 16.2983824,0 10.4990331,0"></path>
      </g>
  </g>
</svg>
