<svg width="116px" height="40px" viewBox="0 0 116 40" version="1.1" xmlns="http://www.w3.org/2000/svg" xmlns:xlink="http://www.w3.org/1999/xlink">
    <!-- Generator: Sketch 49.3 (51167) - http://www.bohemiancoding.com/sketch -->
    <desc>Created with Sketch.</desc>
    <defs></defs>
    <g id="Website" stroke="none" stroke-width="1" fill="none" fill-rule="evenodd">
        <g id="nextjs.org" transform="translate(-510.000000, -1339.000000)" fill="#000000">
            <g id="Companies" transform="translate(-17.000000, 1337.000000)">
                <g id="MagicLeap" transform="translate(526.964531, 2.000000)">
                    <g id="Shape">
                        <path d="M47.5717336,27.9977778 C45.194924,27.2666667 42.8514341,26.6133333 40.4635179,26.0933333 C39.6349665,25.9133333 39.3173181,26.1688889 38.9552434,26.88 C35.8298498,33.04 30.8074511,36.42 23.8880474,36.4355556 C16.9264387,36.4355556 11.8573923,33.0733333 8.72977742,26.86 C8.35659609,26.1177778 8.00562794,25.9266667 7.20595367,26.1133333 C5.15345639,26.5888889 3.10540174,27.0777778 1.09510948,27.7155556 C0.768575823,27.8177778 0.357632103,28.1822222 0.0821887441,27.8488889 C-0.139942997,27.5711111 0.153270901,27.1533333 0.262115454,26.8133333 C1.560902,22.7356039 3.90707693,19.0704633 7.06601068,16.1844444 C7.47769869,15.8172318 7.78435566,15.3470886 7.95453764,14.8222222 C10.3091341,7.77333333 16.5599213,3.24666667 23.8947114,3.26666667 C31.1206569,3.28 37.3492309,7.78666667 39.6927208,14.7222222 C39.9053873,15.347873 40.2756724,15.9081191 40.7678384,16.3488889 C43.8893533,19.2215942 46.1953911,22.8695163 47.4517825,26.9222222 C47.5472991,27.2088889 47.7427751,27.5111111 47.5717336,27.9977778 Z M11.4197928,14.6488889 C11.4197928,16.16 11.9373598,17.4222222 13.296806,18.1688889 C14.4629976,18.8066667 15.6536238,18.6377778 16.7642825,17.9466667 C18.6946073,16.7333333 19.5120521,13.9466667 18.5413364,11.88 C17.6017191,9.86666667 15.3604099,9.23111111 13.5300443,10.4933333 C12.0972946,11.4822222 11.4175715,12.8977778 11.4197928,14.6488889 Z M32.5223082,18.5266667 C34.3237966,18.5555556 35.5943902,17.5888889 36.0653094,15.9911111 C36.5904667,14.0546095 35.9458681,11.9891467 34.4126493,10.6955556 C32.3579307,9.04888889 29.57462,9.93111111 28.8593558,12.4555556 C28.3692487,14.4028156 29.0426504,16.4584352 30.589762,17.7377778 C31.2117309,18.22 31.9070033,18.5466667 32.5200869,18.5266667 L32.5223082,18.5266667 Z" fill-rule="nonzero"></path>
                        <path d="M96.4940282,15.1711111 C92.7377805,18.0444444 88.5861383,15.4977778 87.9841612,12.3977778 C87.317766,8.98888889 88.6727696,6.33555556 91.9403275,5.53333333 C95.3300579,4.7 98.2844101,6.54 98.808641,9.97777778 C99.2156236,12.5383666 99.1855801,15.1494616 98.7197883,17.7 C98.3110659,19.8377778 96.4873643,21.4133333 94.3593422,21.74 C91.9669834,22.1066667 89.8389613,21.1866667 88.6727696,19.3533333 C88.3195802,18.7977778 88.3662278,18.6177778 88.9948607,18.34 C89.9344779,17.9266667 90.5497828,17.7866667 91.4138753,18.7155556 C92.8821661,20.3044444 95.6699195,19.4333333 96.3185442,17.3355556 C96.5511074,16.63888 96.6113228,15.8961748 96.4940282,15.1711111 Z M96.3896263,10.9822222 C96.4029542,9.00888889 95.2611971,7.77555556 93.3997331,7.75111111 C91.5382691,7.72666667 90.3432003,8.92444444 90.3209872,10.7666667 C90.2943313,12.7933333 91.453859,14.0333333 93.3819625,14.0377778 C95.274525,14.04 96.3762984,12.9222222 96.3896263,10.9822222 Z" fill-rule="nonzero"></path>
                        <path d="M58.6849846,12.7866667 C58.6849846,13.7466667 58.6649928,14.7088889 58.6849846,15.6755556 C58.6983125,16.14 58.5961319,16.3644444 58.0696797,16.3088889 C56.0038545,16.0866667 56.1971091,16.7777778 56.1882239,14.3977778 C56.1882239,13.0266667 56.1882239,11.6577778 56.1882239,10.2888889 C56.2082157,8.25777778 56.9257012,6.56222222 58.8182637,5.63333333 C60.7108261,4.70444444 62.5611835,4.91555556 64.1716386,6.33777778 C64.5692544,6.68888889 64.7558451,6.57111111 65.0734935,6.29555556 C66.6750633,4.91333333 68.4809944,4.71555556 70.3357944,5.62888889 C72.1905945,6.54222222 73.0013753,8.11555556 73.0013753,10.1422222 C73.0013753,11.92 72.9591703,13.6977778 73.0147032,15.4755556 C73.048023,16.4888889 72.3860704,16.2888889 71.8329624,16.2644444 C71.2798543,16.24 70.5112785,16.5866667 70.5445983,15.4711111 C70.5956886,13.7333333 70.5645901,11.9933333 70.5445983,10.2555556 C70.5445983,8.57555556 69.598317,7.52222222 68.1477968,7.53555556 C66.6972765,7.54888889 65.8642825,8.50888889 65.8442906,10.2022222 C65.8265201,11.94 65.7932003,13.6822222 65.8442906,15.4177778 C65.882053,16.4711111 65.2178791,16.2844444 64.6047955,16.2866667 C63.9917119,16.2888889 63.3475299,16.4355556 63.3919562,15.3977778 C63.4652597,13.6622222 63.4363826,11.9222222 63.4030628,10.1822222 C63.3719644,8.53111111 62.3590436,7.49555556 60.9040807,7.54666667 C59.6357085,7.58888889 58.6583288,8.60666667 58.6094598,9.94222222 C58.5939106,10.42 58.6094598,10.8977778 58.6094598,11.3777778 C58.6094598,11.8577778 58.6094598,12.34 58.6094598,12.82 L58.6849846,12.7866667 Z" fill-rule="nonzero"></path>
                        <path d="M90.0921915,33.4688889 C90.0921915,35.2466667 90.0299946,37.04 90.116626,38.8288889 C90.1632736,39.8333333 89.7456659,39.9533333 88.8949014,39.9622222 C88.0441368,39.9711111 87.6687342,39.8022222 87.6865047,38.8222222 C87.7509229,35.4888889 87.6865047,32.1555556 87.7176031,28.8355556 C87.7398163,25.9222222 89.6545919,23.8422222 92.6778049,23.3822222 C95.1212541,23.0111111 97.7424086,24.6155556 98.5420829,26.9711111 C99.4461591,29.6377778 98.3954759,32.6088889 95.9920105,33.86 C94.4040995,34.7480443 92.460585,34.7089542 90.9096363,33.7577778 C90.6941685,33.6377778 90.529791,33.4022222 90.0921915,33.4688889 Z M96.3407573,28.9777778 C96.3407573,27.0177778 95.1878936,25.7688889 93.3375362,25.7533333 C92.5155938,25.7288236 91.7183161,26.0359479 91.1250722,26.6056104 C90.5318283,27.175273 90.1924413,27.959631 90.1832655,28.7822222 C90.1299539,30.6644444 91.5693675,32.2088889 93.3597494,32.1844444 C95.0301801,32.1622222 96.3407573,30.7577778 96.3407573,28.9777778 Z" fill-rule="nonzero"></path>
                        <path d="M68.4632239,29.7177778 C67.3170241,29.7177778 66.1708243,29.7311111 65.0246245,29.7177778 C64.3582293,29.7177778 64.2649339,29.9533333 64.5625905,30.5177778 C65.4155764,32.1311111 67.7701728,32.5977778 69.2740047,31.4333333 C69.842662,30.9888889 71.4197973,31.1333333 71.8129705,31.6711111 C72.0773073,32.0311111 71.8129705,32.2888889 71.6041667,32.5422222 C69.0563156,35.6911111 63.6185306,34.8266667 62.1613464,31.0422222 C61.0506877,28.1422222 62.3368304,24.9266667 65.0690509,23.8111111 C68.0633867,22.5866667 71.2754117,23.8977778 72.5282347,26.8555556 C72.5704397,26.9577778 72.6126448,27.06 72.6481858,27.1644444 C73.3434582,29.2044444 72.99249,29.72 70.9044517,29.72 L68.4632239,29.7177778 Z M67.3525651,27.7177778 C68.1278049,27.7177778 68.9074873,27.7177778 69.6760632,27.7177778 C70.1669743,27.7177778 70.4290898,27.6022222 70.0958921,27.0955556 C69.5064346,26.1250136 68.440552,25.5468593 67.3059175,25.5822222 C66.2097618,25.5629405 65.1873604,26.1328689 64.6270087,27.0755556 C64.3293522,27.5488889 64.4937296,27.7422222 65.0268458,27.7177778 C65.7932003,27.7088889 66.5751041,27.7244444 67.3436799,27.7244444 L67.3525651,27.7177778 Z" fill-rule="nonzero"></path>
                        <path d="M86.0360659,13.4222222 C86.0360659,14.1977778 86.0360659,14.9777778 86.0360659,15.7511111 C86.0360659,15.9733333 86.0360659,16.2244444 85.8006062,16.3244444 C85.5651466,16.4244444 85.4029904,16.2022222 85.2408342,16.06 C85.0694819,15.922251 84.907002,15.773807 84.7543657,15.6155556 C84.2367988,15.0266667 83.7880927,14.9488889 83.0683858,15.4533333 C80.1606813,17.4844444 76.2844824,16.12 75.1738237,12.7488889 C74.2386491,9.9 75.511464,6.85555556 78.0904135,5.77777778 C80.9403637,4.58666667 84.1657166,5.71111111 85.4540807,8.41777778 C86.2071073,9.99777778 86.0294019,11.7288889 86.0360659,13.4222222 Z M83.4904361,10.8733333 C83.4904361,8.87333333 82.3642282,7.71111111 80.4627805,7.72222222 C78.6102018,7.72222222 77.4262396,8.98222222 77.4395675,10.9155556 C77.4506741,12.7688889 78.6635134,14.0266667 80.4405673,14.0266667 C82.3242445,14.0266667 83.4926574,12.8177778 83.4904361,10.8733333 Z" fill-rule="nonzero"></path>
                        <path d="M85.6428927,31.1422222 C85.6428927,31.9933333 85.6428927,32.8444444 85.6428927,33.6933333 C85.6428927,33.9355556 85.7539586,34.2555556 85.4363102,34.3733333 C85.1542029,34.4777778 84.9653909,34.2355556 84.7699149,34.0755556 C84.5567927,33.9300915 84.3548312,33.7689022 84.1657166,33.5933333 C83.6370431,33.0155556 83.223878,33.0777778 82.5819173,33.5577778 C80.9847901,34.7511111 79.1877443,34.7666667 77.4484528,33.9022222 C75.7966126,33.1365475 74.6937212,31.5305266 74.5718467,29.7133333 C74.349715,27.3155556 75.0027823,25.2688889 77.2196571,24.0711111 C79.3565644,22.9133333 81.5001357,23.1133333 83.4859935,24.5155556 C84.9587269,25.5533333 85.5340481,27.0866667 85.6406714,28.8177778 C85.6784338,29.5866667 85.6428927,30.3666667 85.6428927,31.1422222 Z M80.0895992,25.7355556 C78.2614549,25.7355556 77.0152959,27.0333333 77.0241811,28.9266667 C77.0241811,30.7533333 78.4169472,32.2155556 80.1007058,32.1755556 C81.8546553,32.1318737 83.2440819,30.6793315 83.2105501,28.9244444 C83.1705664,27.0644444 81.873317,25.7355556 80.0873779,25.7355556 L80.0895992,25.7355556 Z" fill-rule="nonzero"></path>
                        <path d="M105.641413,10.7711111 C105.641413,8.32666667 106.951991,6.43111111 109.14221,5.64666667 C111.399761,4.83228577 113.925508,5.49002438 115.49962,7.30222222 C115.943883,7.82222222 115.872801,8.08 115.277488,8.37333333 C114.480035,8.77111111 113.875837,9.32888889 112.92067,8.35111111 C111.84111,7.24 109.839703,7.57111111 108.82234,8.71111111 C107.804976,9.85111111 107.849403,12.0311111 108.951176,13.1955556 C109.966318,14.2688889 111.885537,14.34 113.107261,13.3711111 C113.40936,13.1333333 113.595951,12.5711111 114.053542,12.74 C114.614483,12.9309003 115.127497,13.2409564 115.557374,13.6488889 C115.986088,14.0933333 115.4663,14.4488889 115.181972,14.76 C113.64482,16.38 111.041436,16.9066667 108.933406,16.0422222 C106.780949,15.1488889 105.630307,13.3088889 105.641413,10.7711111 Z" fill-rule="nonzero"></path>
                        <path d="M56.1948878,25.52 C56.1948878,24.0422222 56.2459781,22.5622222 56.1748959,21.0888889 C56.1215843,20.0222222 56.812414,20.2422222 57.4077271,20.2288889 C58.0030402,20.2155556 58.6361156,20.0977778 58.6139025,21.1177778 C58.5539269,23.9955556 58.5939106,26.8777778 58.589468,29.7577778 C58.589468,30.7266667 58.8937885,31.4222222 59.8978239,31.8133333 C60.9018594,32.2044444 60.3842924,33.18 60.3287595,33.8355556 C60.2643413,34.5555556 59.5801755,34.1644444 59.1670105,34.0577778 C57.190038,33.54 56.2792979,32.2577778 56.1971091,29.9444444 C56.1971091,29.8711111 56.1971091,29.7955556 56.1971091,29.7222222 L56.1948878,25.52 Z" fill-rule="nonzero"></path>
                        <path d="M101.238762,10.8155556 C101.238762,9.26 101.28541,7.70444444 101.21877,6.14888889 C101.178787,5.16666667 101.787428,5.32222222 102.369413,5.31777778 C102.951398,5.31333333 103.524498,5.19333333 103.508949,6.16 C103.455637,9.30518519 103.455637,12.4488889 103.508949,15.5911111 C103.526719,16.5688889 102.951398,16.42 102.36497,16.4244444 C101.778542,16.4288889 101.183229,16.5422222 101.223213,15.5777778 C101.28541,13.9977778 101.238762,12.4066667 101.238762,10.8155556 Z" fill-rule="nonzero"></path>
                        <path d="M102.391626,3.10888889 C101.963787,3.12823215 101.547658,2.96603933 101.245669,2.66223464 C100.94368,2.35842995 100.78388,1.94123132 100.805605,1.51333333 C100.848017,0.670254245 101.541173,0.00705011149 102.384962,0.00222222222 C103.337907,-0.0111111111 103.939884,0.626666667 103.917671,1.60444444 C103.893237,2.52444444 103.29126,3.10888889 102.391626,3.10888889 Z" fill-rule="nonzero"></path>
                    </g>
                </g>
            </g>
        </g>
    </g>
</svg>
