<svg width="178px" height="39px" viewBox="0 0 178 39" version="1.1" xmlns="http://www.w3.org/2000/svg" xmlns:xlink="http://www.w3.org/1999/xlink">
    <!-- Generator: Sketch 49.3 (51167) - http://www.bohemiancoding.com/sketch -->
    <desc>Created with Sketch.</desc>
    <defs></defs>
    <g id="Website" stroke="none" stroke-width="1" fill="none" fill-rule="evenodd">
        <g id="nextjs.org" transform="translate(-866.000000, -1339.000000)">
            <g id="Companies" transform="translate(-17.000000, 1337.000000)">
                <g id="Mozilla-VR" transform="translate(882.679877, 2.000000)">
                    <g transform="translate(0.753839, 0.000000)" id="Shape">
                        <path d="M0,0 L119,0 L119,38.443 L0,38.443 M123,0 L177,0 L177,38.443 L123,38.443" fill="#000000" fill-rule="nonzero"></path>
                        <path d="M109.188,25.392 L109.251,27.514 C108.501,27.92 107.593,28.169 106.717,28.169 C104.807,28.169 103.807,27.107 103.587,25.391 C102.807,26.795 101.367,28.168 99.082,28.168 C97.049,28.168 94.765,27.106 94.765,24.142 C94.765,20.71 98.05,19.899 101.335,19.899 C102.087,19.899 102.9,19.899 103.589,20.025 L103.589,19.557 C103.589,18.091 103.589,16.407 101.336,16.407 C100.46,16.407 99.803,16.437 99.146,16.811 L98.676,18.403 L95.484,18.028 L96.016,14.782 C98.456,13.815 99.771,13.502 102.086,13.502 C105.06,13.502 107.688,15.094 107.688,18.308 L107.688,24.392 C107.688,25.234 108.001,25.484 108.658,25.484 C108.783,25.484 109.002,25.484 109.19,25.39 L109.188,25.392 Z M100.552,25.33 C101.992,25.33 103.492,24.238 103.587,21.93 C102.93,21.836 102.241,21.742 101.584,21.742 C100.144,21.742 98.862,22.116 98.862,23.708 C98.862,24.581 99.362,25.33 100.552,25.33 Z M91.132,6.392 L95.107,6.392 L89.005,27.857 L85.062,27.857 L91.132,6.392 Z M82.966,6.392 L86.94,6.392 L80.838,27.857 L76.864,27.857 L82.966,6.392 Z M70.01,18.84 L74.204,18.84 L74.204,13.786 L70.01,13.786 L70.01,18.84 Z M70.01,27.857 L74.204,27.857 L74.204,22.803 L70.01,22.803 L70.01,27.857 Z M63.19,24.831 L58.62,24.831 L66.444,15.877 L66.131,13.787 L53.71,13.787 L53.208,18.717 L56.181,19.029 L56.807,16.813 L61.187,16.813 L53.427,25.737 L53.835,27.857 L66.195,27.857 L67.04,22.929 L63.847,22.649 L63.19,24.832 L63.19,24.831 Z M43.633,13.506 C48.703,13.506 51.205,16.906 51.205,20.869 C51.205,25.331 47.92,28.169 43.415,28.169 C39.033,28.169 36.06,25.549 36.06,21.025 C36.06,16.907 38.564,13.505 43.633,13.505 L43.633,13.506 Z M43.508,25.081 C45.636,25.081 47.012,23.397 47.012,20.713 C47.012,17.905 45.479,16.595 43.57,16.595 C41.505,16.595 40.19,18.155 40.19,20.775 C40.19,23.178 41.35,25.081 43.508,25.081 Z M32.43,18.404 C32.43,15.034 30.084,13.504 27.612,13.504 C25.359,13.504 23.732,14.691 22.982,16.564 C22.324,14.472 20.446,13.504 18.382,13.504 C16.41,13.504 14.939,14.441 14.094,15.908 L14.094,13.786 L8.18,13.786 L8.18,16.844 L10.057,16.844 L10.057,24.831 L8.18,24.831 L8.18,27.858 L16.754,27.858 L16.754,24.83 L14.094,24.83 L14.094,19.9 C14.094,17.936 14.908,16.563 16.816,16.563 C18.381,16.563 19.226,17.53 19.226,19.963 L19.226,27.857 L25.14,27.857 L25.14,24.83 L23.262,24.83 L23.262,19.9 C23.262,17.936 24.045,16.563 25.952,16.563 C27.612,16.563 28.425,17.53 28.425,19.963 L28.425,27.857 L34.339,27.857 L34.339,24.83 L32.429,24.83 L32.429,18.404 L32.43,18.404 Z M150.066,11.076 L150.066,8.9 L142.314,8.9 L142.314,11.076 L145.442,11.076 L139.254,27.328 L139.084,27.328 L132.76,11.076 L135.854,11.076 L135.854,8.9 L127.864,8.9 L127.864,11.076 L130.04,11.076 L138.03,31 L140.002,31 L147.992,11.076 L150.066,11.076 Z M170.67,31 L166.25,31 L161.49,21.752 L156.764,21.752 L156.764,28.824 L159.722,28.824 L159.722,31 L151.46,31 L151.46,28.824 L154.248,28.824 L154.248,11.076 L151.46,11.076 L151.46,8.9 L161.014,8.9 C166.488,8.9 168.664,11.586 168.664,15.156 C168.664,18.012 167.066,20.46 163.938,21.276 L167.882,28.824 L170.67,28.824 L170.67,31 Z M166.046,15.258 C166.046,12.368 164.482,11.076 160.708,11.076 L156.764,11.076 L156.764,19.678 L160.776,19.678 C164.55,19.678 166.046,18.012 166.046,15.258 Z" fill="#FFFFFF" fill-rule="nonzero"></path>
                    </g>
                </g>
            </g>
        </g>
    </g>
</svg>
