<svg width="112px" height="31px" viewBox="0 0 112 31" version="1.1" xmlns="http://www.w3.org/2000/svg" xmlns:xlink="http://www.w3.org/1999/xlink">
    <!-- Generator: Sketch 49.3 (51167) - http://www.bohemiancoding.com/sketch -->
    <desc>Created with Sketch.</desc>
    <defs></defs>
    <g id="Website" stroke="none" stroke-width="1" fill="none" fill-rule="evenodd">
        <g id="nextjs.org" transform="translate(-1103.000000, -1343.000000)" fill="#000000" fill-rule="nonzero">
            <g id="Companies" transform="translate(-17.000000, 1337.000000)">
                <g id="Netflix" transform="translate(1120.162143, 6.800000)">
                    <path d="M74.52,0 L69.8024,0 L69.8024,26.376 C74.0888,26.524 78.3576,26.74 82.608,27.024 L82.608,22.376 C79.92,22.1968 77.2224,22.0448 74.52,21.92 L74.52,0 Z M112,0.0024 L106.82,0.0024 L103.404,7.9176 L100.336,0.0024 L95.2336,0.0024 L100.7168,14.1464 L94.7304,28.0208 C96.3864,28.1824 98.0384,28.3552 99.688,28.5368 L103.1696,20.4728 L106.6176,29.3664 C108.4136,29.5968 110.2048,29.8384 111.9936,30.0928 L112,30.0896 L105.856,14.2448 L112,0.0032 L112,0.0024 Z M53.6136,26.1464 L58.3296,26.1448 L58.3296,15.416 L64.7232,15.416 L64.7232,10.768 L58.3296,10.768 L58.3296,4.6928 L66.78,4.6928 L66.78,0.0048 L53.6136,0.0048 L53.6136,26.144 L53.6136,26.1464 Z M36,4.6904 L40.9376,4.6904 L40.9376,26.4208 C42.5056,26.3616 44.0792,26.3128 45.6536,26.272 L45.6536,4.692 L50.5896,4.692 L50.5896,0.004 L36,0.004 L36,4.692 L36,4.6904 Z M19.8776,27.7728 C24.2248,27.3776 28.5912,27.0528 32.9784,26.7992 L32.9784,22.1512 C30.1752,22.3112 27.3808,22.5032 24.5944,22.7224 L24.5944,15.688 C26.4224,15.6704 28.8304,15.6144 30.9624,15.64 L30.9624,10.992 C29.2584,10.9896 26.52,11.016 24.5944,11.0424 L24.5944,4.6904 L32.9784,4.6904 L32.9784,0.0024 L19.8768,0.0024 L19.8768,27.7736 L19.8776,27.7728 Z M10.624,17.0288 L4.4832,0.0032 L0,0.0032 L0,30.0912 C1.568,29.8672 3.1408,29.6544 4.7168,29.4488 L4.7168,13.088 L10.1784,28.7776 C11.896,28.5776 13.6184,28.3896 15.3416,28.2128 L15.3416,0.0032 L10.624,0.0032 L10.624,17.0296 L10.624,17.0288 Z M86.496,27.3032 C88.0704,27.4232 89.6424,27.5512 91.2128,27.6896 L91.2128,0.0024 L86.4968,0.0024 L86.4968,27.304 L86.496,27.3032 Z"></path>
                </g>
            </g>
        </g>
    </g>
</svg>
