<svg viewBox="0 0 148 90" version="1.1" xmlns="http://www.w3.org/2000/svg" xmlns:xlink="http://www.w3.org/1999/xlink">
  <g id="Symbols" stroke="none" stroke-width="1" fill="none" fill-rule="evenodd">
      <g id="Logotype" fill="#000000" fill-rule="nonzero">
          <path d="M34.9924882,23.4950442 L62.8472051,23.4950442 L62.8472051,25.7138223 L37.5458372,25.7138223 L37.5458372,42.4130474 L61.3384079,42.4130474 L61.3384079,44.6318255 L37.5458372,44.6318255 L37.5458372,62.9659398 L63.1373584,62.9659398 L63.1373584,65.1847178 L34.9924882,65.1847178 L34.9924882,23.4950442 Z M65.3425238,23.4950442 L68.3020873,23.4950442 L81.4170165,41.8291584 L94.8220989,23.4950442 L113.055197,0.206503064 L83.0999054,43.7559921 L98.5360611,65.1847178 L95.4604365,65.1847178 L81.4170165,45.6828257 L67.315566,65.1847178 L64.2979719,65.1847178 L79.8501887,43.7559921 L65.3425238,23.4950442 Z M99.638644,25.7138223 L99.638644,23.4950442 L131.381415,23.4950442 L131.381415,25.7138223 L116.757689,25.7138223 L116.757689,65.1847178 L114.204339,65.1847178 L114.204339,25.7138223 L99.638644,25.7138223 Z M0.145085506,23.4950442 L3.33677183,23.4950442 L47.3482585,89.4982223 L29.1604157,65.1847178 L2.81449588,26.6480447 L2.69843456,65.1847178 L0.145085506,65.1847178 L0.145085506,23.4950442 Z M131.124155,62.2963599 C130.602488,62.2963599 130.211237,61.8912774 130.211237,61.3677866 C130.211237,60.8442954 130.602488,60.4392129 131.124155,60.4392129 C131.652033,60.4392129 132.037073,60.8442954 132.037073,61.3677866 C132.037073,61.8912774 131.652033,62.2963599 131.124155,62.2963599 Z M133.633127,59.8534009 L134.999399,59.8534009 C135.01803,60.5950135 135.558329,61.0935768 136.35325,61.0935768 C137.241327,61.0935768 137.744364,60.5576212 137.744364,59.554263 L137.744364,53.1975841 L139.135477,53.1975841 L139.135477,59.5604951 C139.135477,61.3677866 138.092142,62.4085366 136.365671,62.4085366 C134.744776,62.4085366 133.633127,61.3989468 133.633127,59.8534009 Z M140.955103,59.7723848 L142.333795,59.7723848 C142.451792,60.6261741 143.283975,61.1683612 144.482569,61.1683612 C145.600428,61.1683612 146.420191,60.5887818 146.420191,59.7910807 C146.420191,59.1055567 145.898523,58.6942421 144.712351,58.4138001 L143.55723,58.1333586 C141.936335,57.7532041 141.197305,56.9679672 141.197305,55.6467753 C141.197305,54.0451413 142.501474,52.9794628 144.457727,52.9794628 C146.277353,52.9794628 147.606363,54.0451413 147.687097,55.5595265 L146.333246,55.5595265 C146.202829,54.7306658 145.482431,54.2134066 144.439096,54.2134066 C143.339868,54.2134066 142.60705,54.7431295 142.60705,55.5532949 C142.60705,56.1951945 143.079035,56.5628847 144.246577,56.8370946 L145.234018,57.0801439 C147.072275,57.5101549 147.829935,58.2579991 147.829935,59.6103516 C147.829935,61.3303944 146.500925,62.4085366 144.376993,62.4085366 C142.389688,62.4085366 141.054468,61.3802504 140.955103,59.7723848 Z"></path>
      </g>
  </g>
</svg>
