<svg xmlns="http://www.w3.org/2000/svg" width="82" height="50" viewBox="0 0 82 50">
  <path d="M19.4402712,13.0528023 L34.915114,13.0528023 L34.915114,14.2854568 L20.8587985,14.2854568 L20.8587985,23.5628041 L34.0768933,23.5628041 L34.0768933,24.7954586 L20.8587985,24.7954586 L20.8587985,34.9810777 L35.0763102,34.9810777 L35.0763102,36.2137321 L19.4402712,36.2137321 L19.4402712,13.0528023 Z M36.3014021,13.0528023 L37.9456041,13.0528023 L45.2316758,23.2384213 L52.6789438,13.0528023 L62.8084426,0.114723925 L46.1666141,24.3088845 L54.7422562,36.2137321 L53.0335758,36.2137321 L45.2316758,25.3793476 L37.3975366,36.2137321 L35.7210955,36.2137321 L44.3612159,24.3088845 L36.3014021,13.0528023 Z M55.3548022,14.2854568 L55.3548022,13.0528023 L72.9896751,13.0528023 L72.9896751,14.2854568 L64.8653826,14.2854568 L64.8653826,36.2137321 L63.4468553,36.2137321 L63.4468553,14.2854568 L55.3548022,14.2854568 Z M0.0806030587,13.0528023 L1.85376213,13.0528023 L26.3045881,49.7212346 L16.200231,36.2137321 L1.56360882,14.8044693 L1.49913031,36.2137321 L0.0806030587,36.2137321 L0.0806030587,13.0528023 Z M72.8467528,34.6090888 C72.5569376,34.6090888 72.339576,34.384043 72.339576,34.0932148 C72.339576,33.8023863 72.5569376,33.5773405 72.8467528,33.5773405 C73.1400183,33.5773405 73.3539296,33.8023863 73.3539296,34.0932148 C73.3539296,34.384043 73.1400183,34.6090888 72.8467528,34.6090888 Z M74.2406263,33.2518894 L74.9996661,33.2518894 C75.0100167,33.6638964 75.3101827,33.940876 75.7518058,33.940876 C76.2451817,33.940876 76.5246464,33.6431229 76.5246464,33.0857017 L76.5246464,29.5542134 L77.2974871,29.5542134 L77.2974871,33.089164 C77.2974871,34.0932148 76.7178567,34.6714092 75.7587063,34.6714092 C74.8582088,34.6714092 74.2406263,34.110526 74.2406263,33.2518894 Z M78.3083904,33.2068804 L79.0743308,33.2068804 C79.1398842,33.6812078 79.6022086,33.9824229 80.2680938,33.9824229 C80.8891266,33.9824229 81.3445504,33.6604344 81.3445504,33.217267 C81.3445504,32.8364204 81.0547352,32.6079123 80.3957503,32.4521112 L79.7540167,32.2963103 C78.8535192,32.0851134 78.4429475,31.6488707 78.4429475,30.9148751 C78.4429475,30.0250785 79.1674858,29.4330349 80.254293,29.4330349 C81.2651962,29.4330349 82.0035351,30.0250785 82.0483874,30.8664036 L81.2962478,30.8664036 C81.2237942,30.4059254 80.8235729,30.1185592 80.2439425,30.1185592 C79.6332602,30.1185592 79.2261389,30.4128497 79.2261389,30.8629416 C79.2261389,31.2195525 79.4883526,31.4238249 80.136987,31.5761637 L80.6855658,31.7111911 C81.7068196,31.950086 82.1277416,32.365555 82.1277416,33.116862 C82.1277416,34.0724413 81.3894028,34.6714092 80.2094406,34.6714092 C79.1053824,34.6714092 78.3635935,34.1001391 78.3083904,33.2068804 Z"/>
</svg>
