<svg width="328px" height="40px" viewBox="0 0 328 40" version="1.1" xmlns="http://www.w3.org/2000/svg" xmlns:xlink="http://www.w3.org/1999/xlink">
    <!-- Generator: Sketch 49.3 (51167) - http://www.bohemiancoding.com/sketch -->
    <desc>Created with Sketch.</desc>
    <defs></defs>
    <g id="Symbols" stroke="none" stroke-width="1" fill="none" fill-rule="evenodd">
        <g id="OpenCollective" fill-rule="nonzero">
            <g>
                <g id="oc-logo-icon">
                    <path d="M31.6,19.9 C31.6,22.3 30.9,24.6 29.7,26.5 L34.6,31.4 C37,28.2 38.5,24.2 38.5,19.9 C38.5,15.6 37,11.6 34.6,8.4 L29.7,13.3 C30.9,15.2 31.6,17.4 31.6,19.9 Z" id="Shape" fill="#9B9B9B"></path>
                    <path d="M19.4,32.1 C12.7,32.1 7.2,26.6 7.2,19.9 C7.2,13.2 12.7,7.7 19.4,7.7 C21.9,7.7 24.1,8.4 26,9.7 L30.9,4.8 C27.7,2.4 23.7,0.9 19.4,0.9 C8.9,0.9 0.3,9.4 0.3,20 C0.3,30.6 8.9,39 19.4,39 C23.8,39 27.8,37.5 31,35.1 L26.1,30.2 C24.2,31.4 21.9,32.1 19.4,32.1 Z" id="Shape" fill="#000000"></path>
                </g>
                <g id="Open-Collective" transform="translate(54.000000, 0.000000)" fill="#000000">
                    <path d="M263.339637,26.8576 C261.372722,26.8730035 259.495117,26.038823 258.189719,24.5696 C258.117614,24.4288 258.117614,24.2864 258.260222,24.2144 L270.277766,19.1424 L273.786889,17.6432 C273.927895,17.5712 273.927895,17.4992 273.927895,17.4288 C272.783825,12.5008 268.276444,8.8576 262.983918,9.072 C257.401368,9.2864 252.75138,13.7856 252.536667,19.3568 C252.393909,22.3237841 253.477076,25.2192183 255.532912,27.3661196 C257.588747,29.513021 260.437009,30.7231624 263.411743,30.7136 C267.919123,30.7136 271.78076,27.9296 273.426363,24 C273.498468,23.856 273.426363,23.712 273.282152,23.712 L269.777836,23.072 C269.707333,23.072 269.563123,23.072 269.563123,23.216 C268.276444,25.3568 265.986702,26.8576 263.339637,26.8576 Z M263.339637,13.0016 C265.319287,12.995817 267.202043,13.8565854 268.491158,15.3568 C268.561661,15.5008 268.561661,15.6448 268.419053,15.7136 C268.419053,15.7136 256.829333,20.6448 256.686725,20.7152 C256.542515,20.7872 256.398304,20.6448 256.398304,20.5712 L256.398304,20 C256.329404,16.072 259.474795,13 263.339637,13 L263.339637,13.0016 Z M252.036737,9.4288 L248.602924,9.4288 C248.530819,9.4288 248.458713,9.5008 248.388211,9.5728 L242.808865,25.928 C242.664655,26.2864 242.23683,26.2864 242.094222,25.928 L236.513275,9.5712 C236.513275,9.4992 236.44117,9.4272 236.298561,9.4272 L232.864749,9.4272 C232.720538,9.4272 232.650035,9.5712 232.650035,9.7152 L239.732374,30.2864 C239.732374,30.3552 239.801275,30.4272 239.945485,30.4272 L244.810187,30.4272 C244.879088,30.4272 244.951193,30.3552 245.023298,30.2832 L252.105637,9.712 C252.249848,9.5712 252.17614,9.4288 252.033532,9.4288 L252.036737,9.4288 Z M229.430936,9.4288 L225.925018,9.4288 C225.780807,9.4288 225.710304,9.5008 225.710304,9.6432 L225.710304,30.2144 C225.710304,30.3584 225.782409,30.4288 225.925018,30.4288 L229.430936,30.4288 C229.575146,30.4288 229.644047,30.3568 229.644047,30.2144 L229.644047,9.6432 C229.644047,9.5712 229.573544,9.4288 229.430936,9.4288 Z M229.430936,2.7136 L225.925018,2.7136 C225.780807,2.7136 225.710304,2.7856 225.710304,2.928 L225.710304,6.4288 C225.710304,6.5728 225.782409,6.6432 225.925018,6.6432 L229.430936,6.6432 C229.575146,6.6432 229.644047,6.5712 229.644047,6.4288 L229.644047,2.928 C229.644047,2.784 229.573544,2.7136 229.430936,2.7136 Z M222.204386,9.4288 L218.270643,9.4288 C218.193035,9.42409062 218.131149,9.36229457 218.126433,9.2848 L218.126433,0.3584 C218.126433,0.2144 218.05593,0.144 217.911719,0.144 L214.409006,0.144 C214.264795,0.144 214.194292,0.2144 214.194292,0.3568 L214.194292,9.2848 C214.194292,9.3568 214.122187,9.4288 214.050082,9.4288 L210.188444,9.4288 C210.044234,9.4288 209.973731,9.5008 209.973731,9.6432 L209.973731,13.1424 C209.973731,13.2864 210.044234,13.3568 210.186842,13.3568 L214.04848,13.3568 C214.120585,13.3568 214.19269,13.4288 214.19269,13.5008 L214.19269,30.2144 C214.19269,30.3584 214.263193,30.4288 214.407404,30.4288 L217.911719,30.4288 C218.05593,30.4288 218.128035,30.3568 218.128035,30.2144 L218.128035,13.4992 C218.128035,13.4288 218.20014,13.3552 218.272246,13.3552 L222.205988,13.3552 C222.350199,13.3552 222.420702,13.2864 222.420702,13.1424 L222.420702,9.6432 C222.420702,9.5712 222.276491,9.4288 222.205988,9.4288 L222.204386,9.4288 Z M199.242865,26.8576 C194.948596,26.8576 191.583684,23.0016 192.372035,18.5696 C192.801462,16.1424 195.233813,13.6416 197.666164,13.1424 C200.313228,12.5712 202.817684,13.4992 204.391181,15.2864 C204.473569,15.359017 204.597214,15.359017 204.679602,15.2864 L207.179251,12.7856 C207.250107,12.7038493 207.250107,12.5825507 207.179251,12.5008 C205.107427,10.216 202.030936,8.8592 198.667626,9.0016 C193.161988,9.2896 188.582503,13.7856 188.297287,19.2896 C188.154997,22.2560354 189.23815,25.1507935 191.293584,27.2972891 C193.349018,29.4437847 196.196596,30.6539009 199.17076,30.6448 C202.317754,30.6448 205.179532,29.288 207.182456,27.144 C207.254561,27.0736 207.254561,27 207.182456,26.9296 L204.679602,24.4304 C204.597214,24.357783 204.473569,24.357783 204.391181,24.4304 C203.176608,26.0016 201.31469,26.8592 199.242865,26.8592 L199.242865,26.8576 Z M175.848713,26.8576 C173.880683,26.8739301 172.001725,26.0396679 170.695591,24.5696 C170.625088,24.4288 170.625088,24.2864 170.767696,24.2144 L182.78524,19.1424 L186.289556,17.6432 C186.433766,17.5712 186.433766,17.4992 186.433766,17.4288 C185.288094,12.5008 180.782316,8.8576 175.489789,9.072 C169.90724,9.2864 165.257251,13.7856 165.042538,19.3568 C164.89978,22.3237841 165.982947,25.2192183 168.038783,27.3661196 C170.094619,29.513021 172.94288,30.7231624 175.917614,30.7136 C180.423392,30.7136 184.286632,27.9296 185.932234,24 C186.004339,23.856 185.932234,23.712 185.788023,23.712 L182.283708,23.072 C182.213205,23.072 182.068994,23.072 182.068994,23.216 C180.782316,25.3568 178.420468,26.8576 175.845509,26.8576 L175.848713,26.8576 Z M175.848713,13.0016 C177.827804,12.9962858 179.70988,13.8570113 180.998632,15.3568 C181.069135,15.5008 181.069135,15.6448 180.926526,15.7136 C180.926526,15.7136 169.335205,20.6448 169.192596,20.7152 C169.048386,20.7872 168.904175,20.6448 168.904175,20.5712 L168.904175,20 C168.835275,16.072 171.980667,13 175.845509,13 L175.848713,13.0016 Z M162.039754,0.144 L158.533836,0.144 C158.389626,0.144 158.319123,0.2144 158.319123,0.3568 L158.319123,30.2128 C158.319123,30.3568 158.391228,30.4288 158.533836,30.4288 L162.039754,30.4288 C162.183965,30.4288 162.254468,30.3568 162.254468,30.2144 L162.254468,0.3584 C162.254468,0.2144 162.110257,0.1424 162.039754,0.1424 L162.039754,0.144 Z M154.38538,0.144 L150.879462,0.144 C150.735251,0.144 150.664749,0.2144 150.664749,0.3568 L150.664749,30.2128 C150.664749,30.3568 150.736854,30.4288 150.879462,30.4288 L154.38538,30.4288 C154.529591,30.4288 154.600094,30.3568 154.600094,30.2144 L154.600094,0.3584 C154.526386,0.2144 154.455883,0.1424 154.383778,0.1424 L154.38538,0.144 Z M137.216316,13 C141.077953,13 144.154444,16.1424 144.154444,19.928 C144.154444,23.7136 141.00745,26.856 137.216316,26.856 C133.423579,26.856 130.278187,23.7136 130.278187,19.928 C130.278187,16.1424 133.354678,13 137.216316,13 Z M137.216316,9.072 C134.3321,9.07030151 131.56548,10.2134077 129.525731,12.2495789 C127.485982,14.28575 126.340389,17.0479949 126.34124,19.928 C126.339964,22.8082823 127.485368,25.5709384 129.525164,27.6074557 C131.564959,29.643973 134.331823,30.7872988 137.216316,30.7856 C140.100254,30.7868738 142.866462,29.6435801 144.905865,27.607455 C146.945267,25.5713299 148.09064,22.8093278 148.089789,19.9296 C148.091065,17.0495951 146.94588,14.2871817 144.906432,12.2507105 C142.866983,10.2142392 140.100531,9.07072594 137.216316,9.072 Z M117.255977,26.8576 C112.961708,26.8576 109.601602,23.0016 110.388351,18.5696 C110.817778,16.1424 113.250129,13.6416 115.68248,13.1424 C118.331146,12.5712 120.834,13.4992 122.409099,15.2864 C122.49097,15.3571524 122.612446,15.3571524 122.694316,15.2864 L125.198772,12.784 C125.269628,12.7022493 125.269628,12.5809507 125.198772,12.4992 C123.12214,10.2144 120.045649,8.8576 116.683942,9 C111.175099,9.288 106.597216,13.784 106.310398,19.288 C106.168108,22.2544354 107.251262,25.1491935 109.306696,27.2956891 C111.36213,29.4421847 114.209707,30.6523009 117.183871,30.6432 C120.332468,30.6432 123.192643,29.2864 125.195567,27.1424 C125.269275,27.072 125.269275,26.9984 125.195567,26.928 L122.692713,24.4288 C122.610843,24.3580476 122.489367,24.3580476 122.407497,24.4288 C121.189719,26 119.331006,26.8576 117.255977,26.8576 Z M81.7016725,9.072 C79.4103275,9.072 76.7664678,10.5008 75.5486901,12.2144 C75.4765848,12.3584 75.1913684,12.2864 75.1913684,12.1424 L75.1913684,9.6416 C75.1913684,9.5696 75.1208655,9.4272 74.9782573,9.4272 L71.4723392,9.4272 C71.3986316,9.4272 71.2560234,9.4992 71.2560234,9.6416 L71.2560234,30.288 C71.2560234,30.3568 71.3281287,30.5008 71.4707368,30.5008 L74.9750526,30.5008 C75.0455556,30.5008 75.1897661,30.4288 75.1897661,30.2864 L75.1897661,20 C75.1897661,16.072 77.8384327,13.2864 81.6311696,13.2864 C86.6368772,13.2864 88.1398713,16.5712 88.1398713,20.4288 L88.1398713,30.2848 C88.1398713,30.3568 88.2103743,30.4992 88.3545848,30.4992 L91.8589006,30.4992 C91.9310058,30.4992 92.073614,30.4288 92.073614,30.2864 L92.073614,20.4272 C92.1457193,14.4272 89.2855439,9.0704 81.7016725,9.0704 L81.7016725,9.072 Z M58.5943392,26.8576 C56.6268662,26.8734667 54.7485847,26.0392454 53.4428187,24.5696 C53.3707135,24.4288 53.3707135,24.2864 53.514924,24.2144 L65.5324678,19.1424 L69.038386,17.6432 C69.1825965,17.5712 69.1825965,17.4992 69.1825965,17.4288 C68.0385263,12.5008 63.5311462,8.8576 58.2386199,9.072 C52.6576725,9.2864 48.0076842,13.7856 47.7913684,19.3568 C47.6486107,22.3237841 48.7317777,25.2192183 50.7876134,27.3661196 C52.8434491,29.513021 55.6917107,30.7231624 58.6664444,30.7136 C63.1738246,30.7136 67.0370643,27.9296 68.6810643,24 C68.7547719,23.856 68.6810643,23.712 68.5400585,23.712 L65.0309357,23.072 C64.9604327,23.072 64.8178246,23.072 64.8178246,23.216 C63.5295439,25.3568 61.2414035,26.8576 58.5943392,26.8576 Z M58.5943392,13.0016 C60.5734298,12.9962858 62.455506,13.8570113 63.7442573,15.3568 C63.8163626,15.5008 63.8163626,15.6448 63.6737544,15.7136 C63.6737544,15.7136 52.0840351,20.6448 51.9398246,20.7152 C51.795614,20.7872 51.6546082,20.6448 51.6546082,20.5712 L51.6546082,20 C51.6546082,16.072 54.8016023,13 58.5927368,13 L58.5943392,13.0016 Z M34.8428655,8.8576 C32.1236959,8.928 29.9781637,10 28.4751696,11.7856 C28.3309591,11.9296 28.117848,11.8576 28.117848,11.6416 L28.117848,9.6416 C28.117848,9.5008 28.0457427,9.4288 27.9031345,9.4288 L24.3940117,9.4288 C24.2530058,9.4288 24.1809006,9.5008 24.1809006,9.6432 L24.1809006,39.5712 C24.1809006,39.7152 24.2530058,39.7856 24.395614,39.7856 L27.8310292,39.7856 C27.9752398,39.7856 28.0457427,39.7136 28.0457427,39.5712 L28.0457427,27.7856 C28.0457427,27.5712 28.2604561,27.5008 28.4046667,27.6416 C29.9060585,29.4288 32.1220936,30.5696 34.9854737,30.5696 C41.6351813,30.5696 46.9309123,24.5696 45.6442339,17.7136 C44.7853801,12.5008 40.0632865,8.7856 34.8412632,8.8592 L34.8428655,8.8576 Z M36.2016491,26.5696 C31.4795556,27.3568 27.404807,23.2864 28.1899532,18.5696 C28.689883,15.7136 30.9780234,13.3568 33.8414035,12.928 C38.5634971,12.144 42.6382456,16.2144 41.8530994,20.928 C41.4236725,23.7856 39.0650292,26.072 36.2016491,26.5712 L36.2016491,26.5696 Z M11.3045029,9.072 C8.42084276,9.07115086 5.65504562,10.214632 3.61598987,12.2507111 C1.57693412,14.2867901 0.431781193,17.0485496 0.432631579,19.928 C0.431781193,22.8074504 1.57693412,25.5692099 3.61598987,27.6052889 C5.65504562,29.641368 8.42084276,30.7848491 11.3045029,30.784 C14.1887182,30.7856985 16.955339,29.6425923 18.995088,27.6064211 C21.0348371,25.57025 22.1804299,22.8080051 22.1795789,19.928 C22.1804299,17.0479949 21.0348371,14.28575 18.995088,12.2495789 C16.955339,10.2134077 14.1887182,9.07030151 11.3045029,9.072 Z M11.3045029,13 C15.169345,13 18.2458363,16.1424 18.2458363,19.928 C18.2458363,23.7136 15.0972398,26.856 11.3077076,26.856 C7.51497076,26.856 4.36637427,23.7136 4.36637427,19.928 C4.36637427,16.1424 7.51497076,13 11.3045029,13 Z" id="Shape"></path>
                </g>
            </g>
        </g>
    </g>
</svg>
