<svg width="40px" height="40px" viewBox="0 0 40 40" version="1.1" xmlns="http://www.w3.org/2000/svg" xmlns:xlink="http://www.w3.org/1999/xlink">
  <g id="Website" stroke="none" stroke-width="1" fill="none" fill-rule="evenodd">
      <g id="nextjs.org" transform="translate(-824.000000, -2590.000000)">
          <g id="Features" transform="translate(471.000000, 2274.000000)">
              <g id="Feature" transform="translate(353.000000, 316.000000)">
                  <g id="Group-3">
                      <rect id="Rectangle-2-Copy" stroke="#EAEAEA" x="0.5" y="0.5" width="39" height="39" rx="5"></rect>
                      <path d="M28.7333333,30 L12.2669833,30 C11.56715,30 11,29.4409375 11,28.7503125 L11,11.25 C11,10.5590625 11.56715,10 12.2669833,10 L28.7333333,10 C29.43285,10 30,10.5590625 30,11.25 L30,28.7503125 C30,29.4409375 29.43285,30 28.7333333,30 Z M28.7333333,23.7503125 L14.1666667,23.7503125 C13.81675,23.7503125 13.5333333,23.4703125 13.5333333,23.125 C13.5333333,22.7796875 13.81675,22.499375 14.1666667,22.499375 L28.7333333,22.499375 L28.7333333,17.5003125 L14.1666667,17.5003125 C13.81675,17.5003125 13.5333333,17.22 13.5333333,16.875 C13.5333333,16.5296875 13.81675,16.250625 14.1666667,16.250625 L28.7333333,16.250625 L28.7333333,11.8746875 C28.7333333,11.5296875 28.4499167,11.25 28.1,11.25 L12.9,11.25 C12.5500833,11.25 12.2666667,11.53 12.2666667,11.8746875 L12.2666667,28.1246875 C12.2666667,28.47 12.5500833,28.7503125 12.9,28.7503125 L28.1,28.7503125 C28.4499167,28.7503125 28.7333333,28.4703125 28.7333333,28.1246875 L28.7333333,23.7503125 Z M26.6224333,27.499375 L25.7778833,27.499375 C25.3114333,27.499375 24.9333333,27.1271875 24.9333333,26.6665625 L24.9333333,25.833125 C24.9333333,25.3725 25.3114333,25 25.7778833,25 L26.6224333,25 C27.0888833,25 27.4666667,25.3725 27.4666667,25.833125 L27.4666667,26.6665625 C27.4666667,27.1271875 27.0888833,27.499375 26.6224333,27.499375 Z M25.7778833,18.749375 L26.6224333,18.749375 C27.0888833,18.749375 27.4666667,19.1225 27.4666667,19.5828125 L27.4666667,20.416875 C27.4666667,20.8765625 27.0888833,21.2503125 26.6224333,21.2503125 L25.7778833,21.2503125 C25.3114333,21.2503125 24.9333333,20.8765625 24.9333333,20.416875 L24.9333333,19.5828125 C24.93365,19.1225 25.3114333,18.749375 25.7778833,18.749375 Z M25.7778833,12.5003125 L26.6224333,12.5003125 C27.0888833,12.5003125 27.4666667,12.873125 27.4666667,13.333125 L27.4666667,14.16625 C27.4666667,14.626875 27.0888833,14.999375 26.6224333,14.999375 L25.7778833,14.999375 C25.3114333,14.999375 24.9333333,14.626875 24.9333333,14.16625 L24.9333333,13.333125 C24.93365,12.873125 25.3114333,12.5003125 25.7778833,12.5003125 Z" id="Shape" fill="#000000" fill-rule="nonzero"></path>
                  </g>
              </g>
          </g>
      </g>
  </g>
</svg>
