<svg width="95px" height="30px" viewBox="0 0 95 30" version="1.1" xmlns="http://www.w3.org/2000/svg" xmlns:xlink="http://www.w3.org/1999/xlink">
    <!-- Generator: Sketch 49.3 (51167) - http://www.bohemiancoding.com/sketch -->
    <desc>Created with Sketch.</desc>
    <defs></defs>
    <g id="Website" stroke="none" stroke-width="1" fill="none" fill-rule="evenodd">
        <g id="nextjs.org" transform="translate(-1446.000000, -1339.000000)" fill="#000000">
            <g id="Companies" transform="translate(-17.000000, 1337.000000)">
                <g id="Scale" transform="translate(1463.035469, 2.000000)">
                    <g transform="translate(0.665658, 0.000000)" id="Shape">
                        <path d="M8.71021583,29.9983453 C5.03136691,29.9983453 2.13021583,29.3370182 0,28.0211816 L0,22.7646534 C0.994100719,23.4327984 2.25870504,24.0054941 3.79381295,24.4691048 C5.32892086,24.9258978 6.88431655,25.1577032 8.46,25.1577032 C10.8404317,25.1577032 12.0306475,24.5713719 12.0306475,23.3918915 C12.0306475,22.8328315 11.6857554,22.3964919 10.9959712,22.0896906 C10.6493884,21.92499 10.2867703,21.7970374 9.91395683,21.7078935 L8.37884892,21.3329142 L7.48618705,21.1011088 C7.22753236,21.0376804 6.97244119,20.9603007 6.72201439,20.8693034 C4.26043165,20.1943406 2.52920863,19.3898396 1.51482014,18.4489824 C0.500431655,17.5081252 0,16.144564 0,14.3446633 C0,12.353864 0.811510791,10.7857687 2.42776978,9.64037733 C4.05079137,8.48135036 6.28244604,7.90865467 9.12273381,7.90865467 C12.2808633,7.90865467 14.8709353,8.55634622 16.8861871,9.84491151 L16.8861871,14.8900878 C14.6256603,13.492112 12.0314889,12.7381365 9.37971223,12.7083899 C7.16158273,12.7083899 6.05928058,13.26745 6.05928058,14.3923879 C6.05928058,14.6105577 6.12014388,14.8150919 6.2418705,14.9991727 C6.37035971,15.1832534 6.49208633,15.3127917 6.62057554,15.4014232 L7.22244604,15.7764025 C7.3847482,15.830945 7.68906475,15.9263942 8.12863309,16.0491147 C8.57496403,16.1786531 8.8657554,16.2672845 9.00776978,16.321827 L11.1988489,16.7854378 C13.4981295,17.3172266 15.1955396,18.1149099 16.3046043,19.164852 C17.4136691,20.2147941 17.9614388,21.6397155 17.9614388,23.4327984 C17.9614388,25.3963264 17.1228777,26.9780574 15.4322302,28.1916268 C13.7415827,29.3983784 11.5099281,29.9983453 8.71021583,29.9983453 Z M30.3978417,29.9983453 C27.3276259,29.9983453 24.6834532,28.9893101 22.4720863,26.9712396 C20.2607194,24.8918088 19.1584173,22.1987755 19.1584173,18.8921397 C19.1584173,15.5786861 20.2607194,12.9333775 22.4720863,10.9357604 C24.6619003,8.93656096 27.525237,7.85404263 30.4789928,7.90865467 C32.751223,7.90865467 34.7935252,8.37226546 36.6194245,9.29948705 L36.6194245,14.3446633 C34.9763029,13.5401119 33.1778488,13.1095206 31.3513669,13.0833692 C29.6700073,13.0332303 28.0304625,13.6166178 26.7528058,14.7196426 C25.5406249,15.7713454 24.8687276,17.3218006 24.9269065,18.9330466 C24.9269065,20.671587 25.5423022,22.0896906 26.7866187,23.1805396 C28.0515768,24.2832118 29.6797387,24.8692723 31.3513669,24.8236307 C33.3120517,24.8667948 35.2475078,24.3719103 36.9507914,23.3918915 L36.9507914,28.4370678 C34.9287067,29.4973227 32.6767871,30.0338554 30.3978417,29.9983453 Z M59.8421583,24.8645376 C60.2579707,24.8826909 60.6717071,24.7959873 61.0458993,24.6122788 L61.0458993,28.9484032 C60.3020144,29.5347345 59.2470504,29.834718 57.8877698,29.834718 C55.5411511,29.834718 53.9789928,28.9347676 53.201295,27.1348669 C51.3753957,29.0438525 49.0017266,29.9983453 46.0667626,29.9983453 C43.801295,29.9983453 41.9618705,29.3506538 40.5484892,28.0620885 C39.1351079,26.7667054 38.4317986,25.0758896 38.4317986,22.9691876 C38.4317986,20.7261295 39.2365468,19.0148602 40.8392806,17.8421977 C42.5210433,16.6372862 44.5452922,16.015244 46.6077698,16.0695682 C48.9543885,16.0695682 50.9493525,16.5059077 52.5791367,17.3785869 L52.5791367,16.7445309 C52.5791367,14.1060401 50.7532374,12.7902036 47.1014388,12.7902036 C44.8630216,12.7902036 42.7733813,13.3765349 40.8392806,14.5628331 L40.8392806,9.59265269 C42.9356835,8.46771475 45.5054676,7.90865467 48.5148201,7.90865467 C51.5038849,7.90865467 53.877554,8.63815989 55.6493525,10.0971703 C57.4752518,11.5561808 58.3882014,13.5742513 58.3882014,16.1581996 L58.3882014,23.269171 C58.3882014,24.3327487 58.8751079,24.8645376 59.8421583,24.8645376 Z M52.5791367,23.269171 L52.5791367,21.1624691 C51.2945823,20.3293709 49.7915379,19.9042273 48.2646043,19.9420818 C47.0202878,19.9420818 46.0329496,20.180705 45.2958273,20.6579514 C44.5945942,21.0805051 44.1753476,21.8527905 44.2002878,22.6760219 C44.2002878,23.5759723 44.5316547,24.2577529 45.1943885,24.7213637 C46.0033841,25.2222925 46.9446965,25.4625151 47.8926619,25.409962 C49.9417266,25.409962 51.5038849,24.6940924 52.5791367,23.269171 Z M68.8296403,29.9983453 C67.1119424,29.9983453 65.7661871,29.5279167 64.7856115,28.5870595 C63.805036,27.6462023 63.3113669,26.1803741 63.3113669,24.1895748 L63.3113669,0 L69.1610072,0 L69.1610072,22.6351151 C69.1610072,24.0395831 69.7831655,24.7418171 71.027482,24.7418171 C71.6090647,24.7418171 72.1094964,24.6122788 72.5220144,24.36002 L72.5220144,29.2415689 C71.5279137,29.7460865 70.2903597,29.9983453 68.8296403,29.9983453 Z M84.8299281,29.9983453 C81.5974101,29.9983453 78.8720863,28.9893101 76.6607194,26.9712396 C74.4425899,24.9463513 73.3402878,22.2669536 73.3402878,18.9330466 C73.3402878,15.8173093 74.3343885,13.2060897 76.3225899,11.1062056 C78.317554,8.97905018 80.9211511,7.90865467 84.1266187,7.90865467 C87.1156835,7.90865467 89.5028777,8.99268579 91.3017266,11.1471124 C93.1005755,13.3083568 94,15.933212 94,19.0148602 L94,20.5761378 L79.1493525,20.5761378 C79.4234839,21.9364216 80.2598222,23.1143753 81.4486331,23.8145955 C82.6794245,24.5645541 84.221295,24.9463513 86.0742446,24.9463513 C88.3735252,24.9463513 90.5848921,24.3327487 92.7151079,23.0987259 L92.7151079,27.8507365 C90.8621583,29.2824757 88.2315108,29.9983453 84.8299281,29.9983453 Z M79.1493525,16.7854378 L88.2315108,16.7854378 C88.2084238,15.6567215 87.7556331,14.5801919 86.9669065,13.7787854 C86.1454837,12.9654205 85.0267851,12.5310692 83.8764029,12.5788516 C82.5779856,12.5788516 81.4959712,12.9674665 80.6438849,13.7378786 C79.7786958,14.5246067 79.2441135,15.6146944 79.1493525,16.7854378 Z"></path>
                    </g>
                </g>
            </g>
        </g>
    </g>
</svg>
