<svg width="225px" height="30px" viewBox="0 0 225 30" version="1.1" xmlns="http://www.w3.org/2000/svg" xmlns:xlink="http://www.w3.org/1999/xlink">
    <!-- Generator: Sketch 49.3 (51167) - http://www.bohemiancoding.com/sketch -->
    <desc>Created with Sketch.</desc>
    <defs></defs>
    <g id="Website" stroke="none" stroke-width="1" fill="none" fill-rule="evenodd">
        <g id="nextjs.org" transform="translate(-1589.000000, -1345.000000)" fill="#000000">
            <g id="Companies" transform="translate(-209.000000, 1342.000000)">
                <g id="Ticketmaster" transform="translate(1798.000000, 3.000000)">
                    <g id="Shape">
                        <path d="M188.3295,8.78462154 C181.6275,8.78462154 176.7075,14.8335166 176.7075,21.1223878 C176.7075,27.150285 180.672,29.9865013 186.5505,29.9865013 C188.7255,29.9865013 190.9875,29.4690531 193.041,28.8451155 L193.7235,24.6725327 C191.7345,25.5709429 189.633,26.130387 187.4595,26.130387 C184.0635,26.130387 182.064,24.9350065 181.812,21.7478252 C181.812,21.560344 181.7895,21.3863614 181.7895,21.1778822 C181.7895,21.1448855 181.7895,21.09989 181.7895,21.0683932 C181.812,19.6330367 182.106,18.2531747 182.6445,16.9918008 C183.6675,14.4180582 185.115,12.6317368 188.2575,12.6317368 C190.467,12.6317368 191.619,13.8481152 191.619,16.0183982 C191.619,16.4878512 191.5755,16.9153085 191.499,17.3982602 L184.2225,17.3982602 C183.753,18.9881012 183.663,20.049995 183.663,21.0113989 L196.1895,21.0113989 C196.497,19.5220478 196.707,18.0221978 196.707,16.4863514 C196.6995,11.340366 193.371,8.78462154 188.3295,8.78462154 Z M170.4855,23.9271073 C170.4855,23.1276872 170.6175,22.4377562 170.727,21.9563044 L172.6695,13.1041896 L177.441,13.1041896 L178.2645,9.24957504 L173.496,9.24957504 L174.8145,3.23517648 L169.101,5.0859914 L168.1905,9.24807519 L164.3355,9.24807519 L163.509,13.1026897 L167.3535,13.1026897 L165.8505,19.949505 C165.489,21.5588441 165.168,23.0946905 165.168,24.6710329 C165.168,28.5721428 167.7075,29.9850015 171.312,29.9850015 C172.2315,29.9850015 173.256,29.7105289 174.1785,29.5155484 L175.1025,25.4179582 C174.42,25.7014299 173.4525,25.9009099 172.518,25.9009099 C171.3105,25.9024098 170.4855,25.1329867 170.4855,23.9271073 Z M148.272,15.2264774 C148.272,20.30047 155.172,20.6184382 155.172,23.8821118 C155.172,25.5259474 153.306,26.1288871 151.515,26.1288871 C149.451,26.1288871 147.945,25.3714629 146.439,24.549545 L145.2765,28.7686231 C147.234,29.6685331 149.364,29.9865013 151.515,29.9865013 C156.075,29.9865013 160.722,28.4056594 160.722,23.1276872 C160.722,18.1871813 153.8235,17.2332767 153.8235,14.6805319 C153.8235,13.069693 155.799,12.6317368 157.3935,12.6317368 C158.8995,12.6317368 160.362,13.069693 160.9305,13.3771623 L162.0945,9.40105989 C161.04,9.13708629 159.051,8.77712229 157.1055,8.77712229 C152.907,8.78462154 148.272,10.4719528 148.272,15.2264774 Z M220.4415,17.20028 C218.322,17.20028 216.726,15.5129487 216.726,13.3441656 C216.726,11.1648835 218.3205,9.48955104 220.4415,9.48955104 C222.5385,9.48955104 224.121,11.1648835 224.121,13.3441656 C224.121,15.5129487 222.5385,17.20028 220.4415,17.20028 Z M220.4175,8.80861914 C217.9005,8.80861914 215.847,10.8364164 215.847,13.3426657 C215.847,15.8294171 217.9005,17.8692131 220.4175,17.8692131 C222.9465,17.8692131 225,15.8309169 225,13.3426657 C225,10.8364164 222.9465,8.80861914 220.4175,8.80861914 Z M133.506,26.1423858 C132.156,26.1423858 130.815,25.4389561 130.815,24.0275972 C130.815,20.6109389 135.096,20.1729827 137.6805,20.1729827 L139.5495,20.1729827 C138.7155,23.4351565 137.481,26.1423858 133.506,26.1423858 Z M137.2095,8.79812019 C134.8245,8.79812019 132.531,9.22407759 130.2555,10.0144986 L129.507,14.2335766 C131.604,13.2466753 133.8675,12.6557344 136.2105,12.6557344 C138.0765,12.6557344 140.286,13.2466753 140.286,15.2834717 C140.286,15.8759124 140.286,16.4668533 140.1315,17.0142986 L138.276,17.0142986 C133.278,17.0142986 125.7285,17.5422458 125.7285,24.2240776 C125.7285,27.9482052 128.3565,30 132.048,30 C134.9805,30 136.8165,28.7191281 138.6285,26.4288571 L138.717,26.4288571 L138.1575,29.5260474 L142.638,29.5260474 C143.1105,25.7149285 145.1445,17.759724 145.1445,15.0554945 C145.143,10.2874713 141.2955,8.79812019 137.2095,8.79812019 Z M219.5385,11.3478652 L220.593,11.3478652 C221.1435,11.3478652 221.682,11.5353465 221.682,12.1367863 C221.682,12.8267173 221.265,12.9587041 220.593,12.9587041 L219.5385,12.9587041 L219.5385,11.3478652 Z M222.5625,12.1712829 C222.5625,11.1633837 221.9685,10.6819318 220.725,10.6819318 L218.682,10.6819318 L218.682,15.9959004 L219.5505,15.9959004 L219.5505,13.639636 L220.2855,13.639636 L221.7795,15.9959004 L222.714,15.9959004 L221.1855,13.639636 C222.0135,13.639636 222.5625,13.0276972 222.5625,12.1712829 Z M205.3125,13.069693 L205.236,13.069693 L205.95,9.24657534 L200.874,9.24657534 C200.7105,10.1884812 200.5425,11.0958904 200.391,11.9643036 L196.743,29.5170483 L202.05,29.5170483 L203.973,20.4324568 C204.6405,17.1567843 206.466,13.8151185 210.234,13.8151185 C210.9045,13.8151185 211.6635,13.9246075 212.265,14.1330867 L213.375,8.97360264 C212.748,8.82061794 212.0235,8.77712229 211.344,8.77712229 C208.8825,8.78462154 206.271,10.8679132 205.3125,13.069693 Z M119.499,8.78462154 C116.637,8.78462154 113.6565,10.0024998 112.308,12.630237 C111.9495,10.1869813 109.4505,8.78462154 107.028,8.78462154 C104.523,8.78462154 102.1845,9.87951205 100.7535,11.9628037 L101.148,9.24357564 L96.1935,9.24357564 C96.0735,9.87951205 95.91,10.7014299 95.754,11.490351 L92.025,29.5140486 L97.3425,29.5140486 L99.4515,19.8730127 C100.1145,17.1537846 101.115,12.8717128 104.7195,12.8717128 C106.0755,12.8717128 107.2245,13.8136186 107.2245,15.3149685 C107.2245,16.5313469 106.83,18.4136586 106.5495,19.6420358 L104.406,29.5140486 L109.7295,29.5140486 L111.828,19.8730127 C112.503,17.1222878 113.4105,12.8717128 117.111,12.8717128 C118.461,12.8717128 119.604,13.8136186 119.604,15.3149685 C119.604,16.5313469 119.208,18.4256574 118.935,19.6420358 L116.7855,29.5140486 L122.121,29.5140486 L124.242,19.8415158 C124.68,18.1856814 125.1525,16.1368863 125.1525,14.3310669 C125.157,11.2518748 122.532,8.78462154 119.499,8.78462154 Z M16.9515,9.24657534 L12.591,29.5170483 L17.9025,29.5170483 L22.2705,9.24657534 L16.9515,9.24657534 Z M27.8175,20.6184382 C27.8175,16.8058194 30.195,12.8732127 34.4415,12.8732127 C35.91,12.8732127 37.2975,13.2226777 38.331,13.8916108 L39.639,9.56454355 C38.211,9.13708629 36.309,8.78462154 34.3215,8.78462154 C26.982,8.78462154 22.2645,14.1630837 22.2645,21.2528747 C22.2645,26.4888511 25.674,29.9850015 30.9495,29.9850015 C32.6955,29.9850015 34.4415,29.820018 36.0675,29.0415958 L36.666,24.8675132 C35.277,25.5244476 33.645,25.8874113 32.343,25.8874113 C28.686,25.9024098 27.8175,23.2476752 27.8175,20.6184382 Z M24.219,0.503949605 L18.903,0.503949605 L17.7885,5.55544446 L23.1045,5.55544446 L24.219,0.503949605 Z M69.3795,8.78462154 C62.6715,8.78462154 57.75,14.8335166 57.75,21.1223878 C57.75,27.150285 61.716,29.9865013 67.593,29.9865013 C69.774,29.9865013 72.0375,29.4690531 74.097,28.8451155 L74.766,24.6725327 C72.783,25.5709429 70.689,26.130387 68.5035,26.130387 C65.097,26.130387 63.1095,24.9350065 62.856,21.7478252 C62.8395,21.560344 62.823,21.3863614 62.823,21.1778822 C62.823,21.1448855 62.829,21.09989 62.829,21.0683932 C62.8515,19.6330367 63.159,18.2531747 63.6915,16.9918008 C64.707,14.4180582 66.1575,12.6317368 69.2925,12.6317368 C71.517,12.6317368 72.666,13.8481152 72.666,16.0183982 C72.666,16.4878512 72.6285,16.9153085 72.546,17.3982602 L65.2725,17.3982602 C64.8,18.9881012 64.7175,20.049995 64.7055,21.0113989 L77.2305,21.0113989 C77.55,19.5220478 77.7525,18.0221978 77.7525,16.4863514 C77.7555,11.340366 74.421,8.78462154 69.3795,8.78462154 Z M60.354,9.24657534 L53.4525,9.24657534 L46.032,16.6093391 L45.945,16.6093391 L49.482,0 L44.1645,0 L37.8585,29.5170483 L43.05,29.5170483 L45.357,18.7811219 L45.4335,18.7811219 L50.7135,29.5170483 L56.7075,29.5170483 L50.5545,18.4931507 L60.354,9.24657534 Z M85.677,23.9271073 C85.677,23.1276872 85.797,22.4377562 85.9185,21.9563044 L87.858,13.1041896 L92.6265,13.1041896 L93.462,9.24957504 L88.698,9.24957504 L90.012,3.23517648 L84.297,5.0859914 L83.376,9.24807519 L79.536,9.24807519 L78.6945,13.1026897 L82.5435,13.1026897 L81.0435,19.949505 C80.682,21.5588441 80.364,23.0946905 80.364,24.6710329 C80.364,28.5721428 82.9065,29.9850015 86.5155,29.9850015 C87.4275,29.9850015 88.461,29.7105289 89.373,29.5155484 L90.2835,25.4179582 C89.6085,25.7014299 88.6635,25.9009099 87.702,25.9009099 C86.517,25.9024098 85.677,25.1329867 85.677,23.9271073 Z M6.987,23.9271073 C6.987,23.1276872 7.113,22.4377562 7.2225,21.9563044 L9.168,13.1041896 L13.935,13.1041896 L14.7705,9.24957504 L10.002,9.24957504 L11.3145,3.23517648 L5.6025,5.0859914 L4.6845,9.24807519 L0.834,9.24807519 L0,13.1026897 L3.855,13.1026897 L2.346,19.9480052 C1.989,21.5573443 1.6635,23.0946905 1.6635,24.669533 C1.6635,28.5706429 4.2075,29.9835016 7.8225,29.9835016 C8.733,29.9835016 9.7665,29.7075292 10.677,29.5125487 L11.589,25.4149585 C10.92,25.69993 9.963,25.8979102 9.0135,25.8979102 C7.8225,25.9024098 6.987,25.1329867 6.987,23.9271073 Z" fill-rule="nonzero"></path>
                    </g>
                </g>
            </g>
        </g>
    </g>
</svg>
