<svg width="122px" height="33px" viewBox="0 0 122 33" version="1.1" xmlns="http://www.w3.org/2000/svg" xmlns:xlink="http://www.w3.org/1999/xlink">
    <!-- Generator: Sketch 49.3 (51167) - http://www.bohemiancoding.com/sketch -->
    <desc>Created with Sketch.</desc>
    <defs></defs>
    <g id="Website" stroke="none" stroke-width="1" fill="none" fill-rule="evenodd">
        <g id="nextjs.org" transform="translate(-685.000000, -1342.000000)" fill="#000000">
            <g id="Companies" transform="translate(-17.000000, 1337.000000)">
                <g id="Trulia" transform="translate(702.446797, 5.200000)">
                    <g>
                        <ellipse id="Oval" fill-rule="nonzero" cx="93.8860104" cy="3.1372549" rx="3.12953368" ry="3.1372549"></ellipse>
                        <path d="M31.6390788,32 C27.0623817,32 24.7955977,29.3810378 24.7955977,25.0162402 L24.7955977,13.4928345 L20.6549223,13.4928345 L20.6549223,8.9970748 L24.7955977,8.9970748 L24.7955977,3.23558092 L30.244199,1.88235294 L30.244199,8.99721412 L35.9539403,8.99721412 L35.9539403,13.4928345 L30.244199,13.4928345 L30.244199,24.5361389 C30.244199,26.2819744 31.0285928,27.0239997 32.7719838,27.0239997 C33.9053063,27.0239997 34.8206179,26.9805315 36.3025907,26.8056832 L36.3025907,31.3887974 C34.7772105,31.7815442 33.251552,32 31.6390788,32 Z" id="Shape" fill-rule="nonzero"></path>
                        <path d="M51.3366953,13.9826634 C47.5192629,13.9826634 45.5238687,16.7577413 45.5238687,20.4583138 L45.5238687,32 L40.0580311,32 L40.0580311,9.09281195 L44.6561194,9.09281195 L45.1334023,12.5287566 C46.1746461,9.88557082 48.8641567,8.78431373 51.5101898,8.78431373 C52.0741507,8.78431373 52.6381116,8.82846525 53.2020725,8.91662768 L53.2020725,14.202718 C52.5944957,14.0708258 51.9438568,13.9826634 51.3366953,13.9826634 Z" id="Shape" fill-rule="nonzero"></path>
                        <path d="M71.1692529,31.43374 L70.7741204,28.471893 C69.6767169,30.6932783 67.1306342,32 64.233416,32 C59.3606753,32 56.3316062,28.7332652 56.3316062,23.8984365 L56.3316062,8.78431373 L61.8190442,8.78431373 L61.8190442,22.6787461 C61.8190442,25.3358443 62.8727309,26.9909695 65.7699491,26.9909695 C67.0429204,26.9909695 67.9208993,26.5117409 68.5794535,25.8584496 C69.8964218,24.6387592 70.2475573,22.5917147 70.2475573,20.7623877 L70.2475573,8.78431373 L75.734715,8.78431373 L75.734715,31.43374 L71.1692529,31.43374 Z" id="Shape" fill-rule="nonzero"></path>
                        <path d="M85.8065023,31.372549 C82.0255255,31.372549 79.4901554,29.6079796 79.4901554,25.3477932 L79.4901554,0 L85.0948893,0 L85.0948893,24.4440799 C85.0948893,25.7351578 85.4059715,26.5956017 87.3187511,26.5956017 C87.8081626,26.5956017 87.9416255,26.5527444 88.2528497,26.5527444 L88.2528497,31.0711739 C87.1409898,31.2865596 86.9185042,31.372549 85.8065023,31.372549 Z" id="Shape" fill-rule="nonzero"></path>
                        <polygon id="Shape" fill-rule="nonzero" points="91.3823834 31.372549 91.3823834 8.78431373 97.015544 8.78431373 97.015544 31.372549 91.3823834 31.372549"></polygon>
                        <path d="M118.139948,31.7873308 C115.822947,31.7873308 114.535785,30.3416688 114.364328,28.6833377 C113.334489,30.4693789 110.760576,32 107.58533,32 C102.265089,32 99.519171,28.6833377 99.519171,25.0691828 C99.519171,20.859907 102.822873,18.4361295 107.070548,18.138637 L113.634813,17.670819 L113.634813,16.3102519 C113.634813,14.2268537 112.905435,12.8235356 109.859193,12.8235356 C107.371009,12.8235356 105.911979,13.9290897 105.783386,15.970144 L100.592011,15.970144 C100.892061,10.9951505 104.882414,8.78431373 109.859193,8.78431373 C113.677951,8.78431373 116.938515,9.97496266 118.225676,13.2912178 C118.78346,14.694536 118.869189,16.2675009 118.869189,17.7557781 L118.869189,25.961932 C118.869189,26.982527 119.212377,27.3652501 120.113349,27.3652501 C120.456812,27.3652501 120.8,27.280291 120.8,27.280291 L120.8,31.1920742 C119.899028,31.574933 119.42711,31.7873308 118.139948,31.7873308 Z M113.634813,21.6250818 L107.971383,22.0504202 C106.341033,22.1778588 104.753547,23.1557028 104.753547,24.9417441 C104.753547,26.6424191 106.255304,27.7053579 107.928382,27.7053579 C111.275085,27.7053579 113.634813,25.9195881 113.634813,22.6455411 L113.634813,21.6250818 Z" id="Shape" fill-rule="nonzero"></path>
                        <path d="M8.44974093,0 C3.31478853,0.0278390653 0,3.37060444 0,8.42526457 C0,12.6097115 2.81391508,16.1879317 4.41776672,21.6280452 C5.33598713,24.7433889 5.82986435,28.5566483 6.08901068,31.372549 L10.8104712,31.372549 C11.0696175,28.5566483 11.5634947,24.7433889 12.4817152,21.6280452 C14.085424,16.1879317 16.8994819,12.6097115 16.8994819,8.42526457 C16.8994819,3.37060444 13.5848361,0.0279775681 8.44974093,0 Z M8.4768692,12.877022 C6.34230301,12.877022 4.61180521,11.1983679 4.61180521,9.12775084 C4.61180521,7.0571338 6.34230301,5.37847971 8.4768692,5.37847971 C10.6115782,5.37847971 12.3419332,7.0571338 12.3419332,9.12775084 C12.3419332,11.1983679 10.6115782,12.877022 8.4768692,12.877022 Z" id="Shape" fill-rule="nonzero"></path>
                    </g>
                </g>
            </g>
        </g>
    </g>
</svg>
