<svg xmlns="http://www.w3.org/2000/svg" version="1.1" width="1280" height="735">
<rect x="0" y="0" width="1280" height="735" fill="%23eff2f1" />
<g transform="scale(5.000000) translate(0.5 0.5)">
<polygon fill="%23105844" fill-opacity="0.501961" points="146,22 212,32 146,76" />
<polygon fill="%23008935" fill-opacity="0.501961" points="195,44 192,67 165,66" />
<polygon fill="%23050008" fill-opacity="0.501961" points="147,31 149,60 169,23" />
<polygon fill="%23009b55" fill-opacity="0.501961" points="72,58 90,68 48,67" />
<polygon fill="%23ffffff" fill-opacity="0.501961" points="1,67 271,72 -16,145" />
<polygon fill="%23ffffff" fill-opacity="0.501961" points="173,-16 271,-6 241,162" />
<polygon fill="%23ffffff" fill-opacity="0.501961" points="170,57 187,54 175,34" />
<polygon fill="%23ffffff" fill-opacity="0.501961" points="136,42 201,-16 -16,1" />
<polygon fill="%23aeabac" fill-opacity="0.501961" points="114,128 53,128 58,144" />
<polygon fill="%23ffffff" fill-opacity="0.501961" points="66,118 -16,49 38,-16" />
<polygon fill="%23ffbe46" fill-opacity="0.501961" points="198,54 191,29 206,30" />
<polygon fill="%230e9f60" fill-opacity="0.501961" points="194,0 207,6 188,5" />
<polygon fill="%2323c583" fill-opacity="0.501961" points="165,33 178,20 196,45" />
<polygon fill="%231b3dd0" fill-opacity="0.501961" points="142,60 157,70 159,45" />
<polygon fill="%23ffffff" fill-opacity="0.501961" points="241,-16 271,111 162,110" />
<polygon fill="%23bdbbbc" fill-opacity="0.501961" points="77,41 61,24 122,24" />
<polygon fill="%23ffffff" fill-opacity="0.501961" points="162,90 123,25 71,89" />
<polygon fill="%232fac76" fill-opacity="0.501961" points="89,60 58,62 83,68" />
<polygon fill="%2329bc87" fill-opacity="0.501961" points="158,47 169,69 187,66" />
<polygon fill="%23000000" fill-opacity="0.501961" points="175,162 147,151 178,144" />
<polygon fill="%23ffffff" fill-opacity="0.501961" points="135,54 81,32 155,19" />
<polygon fill="%23ffffff" fill-opacity="0.501961" points="182,40 171,46 177,58" />
<polygon fill="%23ffffff" fill-opacity="0.501961" points="63,43 -8,-16 4,162" />
<polygon fill="%23ffffff" fill-opacity="0.501961" points="149,49 118,-3 118,94" />
<polygon fill="%230b0000" fill-opacity="0.501961" points="164,23 170,27 161,34" />
<polygon fill="%2360c096" fill-opacity="0.501961" points="260,142 248,135 244,143" />
<polygon fill="%2332b073" fill-opacity="0.501961" points="188,33 181,66 196,55" />
<polygon fill="%23cd1fa1" fill-opacity="0.501961" points="188,132 187,136 199,137" />
<polygon fill="%23ffffff" fill-opacity="0.501961" points="186,-16 44,23 190,23" />
<polygon fill="%231b0506" fill-opacity="0.501961" points="159,48 146,49 148,33" />
</g>
</svg>