<svg xmlns="http://www.w3.org/2000/svg" version="1.1" width="1024" height="576">
<rect x="0" y="0" width="1024" height="576" fill="#5990a4" />
<g transform="scale(4.000000) translate(0.5 0.5)">
<polygon fill="#0080ff" fill-opacity="0.501961" points="271,71 -16,1 259,-16" />
<polygon fill="#c19550" fill-opacity="0.501961" points="-16,90 234,159 270,60" />
<polygon fill="#0097ff" fill-opacity="0.501961" points="9,-16 -16,70 67,46" />
<polygon fill="#01004b" fill-opacity="0.501961" points="128,97 91,159 85,69" />
<polygon fill="#b22e03" fill-opacity="0.501961" points="154,159 168,39 136,44" />
<polygon fill="#d6c571" fill-opacity="0.501961" points="83,72 -4,67 2,136" />
<polygon fill="#0084ff" fill-opacity="0.501961" points="233,76 271,2 56,-14" />
<polygon fill="#d6d98d" fill-opacity="0.501961" points="271,115 109,81 230,59" />
<polygon fill="#b29593" fill-opacity="0.501961" points="103,8 137,110 33,-16" />
<polygon fill="#00c6c2" fill-opacity="0.501961" points="186,74 158,33 271,53" />
<polygon fill="#006fff" fill-opacity="0.501961" points="106,-13 121,52 271,-7" />
<polygon fill="#42a28f" fill-opacity="0.501961" points="271,114 112,121 220,159" />
<polygon fill="#0084ff" fill-opacity="0.501961" points="-16,34 36,-16 64,56" />
<polygon fill="#4a1f5a" fill-opacity="0.501961" points="104,159 124,95 100,50" />
<polygon fill="#990000" fill-opacity="0.501961" points="149,37 170,65 134,65" />
<polygon fill="#c6aa75" fill-opacity="0.501961" points="85,103 47,48 28,125" />
<polygon fill="#7c2735" fill-opacity="0.501961" points="144,150 128,105 166,96" />
<polygon fill="#00c9dc" fill-opacity="0.501961" points="132,19 112,62 136,69" />
<polygon fill="#b1c391" fill-opacity="0.501961" points="126,65 111,121 168,74" />
<polygon fill="#5bb97d" fill-opacity="0.501961" points="-16,124 85,159 88,105" />
<polygon fill="#54afc6" fill-opacity="0.501961" points="50,74 102,24 99,92" />
<polygon fill="#e37f61" fill-opacity="0.501961" points="187,83 158,105 271,108" />
<polygon fill="#ff5b27" fill-opacity="0.501961" points="157,39 140,43 173,57" />
<polygon fill="#85e096" fill-opacity="0.501961" points="155,71 263,60 271,90" />
<polygon fill="#00bdbe" fill-opacity="0.501961" points="15,72 65,38 -15,41" />
<polygon fill="#930836" fill-opacity="0.501961" points="77,45 82,32 54,36" />
<polygon fill="#bb6b59" fill-opacity="0.501961" points="-12,87 0,115 83,103" />
<polygon fill="#580002" fill-opacity="0.501961" points="170,57 156,74 131,53" />
<polygon fill="#008aff" fill-opacity="0.501961" points="271,-2 252,50 120,35" />
<polygon fill="#989c97" fill-opacity="0.501961" points="70,-16 54,36 118,32" />
</g>
</svg>