<svg xmlns="http://www.w3.org/2000/svg" version="1.1" width="1280" height="720">
<rect x="0" y="0" width="1024" height="584" fill="#6f8fa4" />
<g transform="scale(4.000000) translate(0.5 0.5)">
<polygon fill="#0a78ff" fill-opacity="0.501961" points="271,67 252,-16 -16,2" />
<polygon fill="#9f8052" fill-opacity="0.501961" points="-16,108 271,161 161,42" />
<polygon fill="#ecd782" fill-opacity="0.501961" points="112,77 266,123 254,62" />
<polygon fill="#000042" fill-opacity="0.501961" points="82,89 121,71 107,161" />
<polygon fill="#0786ff" fill-opacity="0.501961" points="66,48 9,-16 -16,62" />
<polygon fill="#aab58e" fill-opacity="0.501961" points="77,161 -16,97 102,-16" />
<polygon fill="#540000" fill-opacity="0.501961" points="143,42 172,69 135,67" />
<polygon fill="#1267ff" fill-opacity="0.501961" points="233,46 55,-8 271,-1" />
<polygon fill="#728eb2" fill-opacity="0.501961" points="147,45 82,98 45,-16" />
<polygon fill="#701e15" fill-opacity="0.501961" points="166,91 131,107 153,138" />
<polygon fill="#d5da90" fill-opacity="0.501961" points="83,78 4,99 -10,66" />
<polygon fill="#49b8db" fill-opacity="0.501961" points="169,71 271,64 172,17" />
<polygon fill="#a09e9c" fill-opacity="0.501961" points="137,105 108,15 37,-16" />
<polygon fill="#35254d" fill-opacity="0.501961" points="118,161 109,48 87,140" />
<polygon fill="#7eb790" fill-opacity="0.501961" points="253,161 158,113 258,105" />
<polygon fill="#289eff" fill-opacity="0.501961" points="113,11 147,29 126,70" />
<polygon fill="#277afd" fill-opacity="0.501961" points="-16,25 66,56 34,-16" />
<polygon fill="#cf2a0b" fill-opacity="0.501961" points="136,50 169,64 157,39" />
<polygon fill="#b67a5c" fill-opacity="0.501961" points="160,100 252,120 256,94" />
<polygon fill="#b4ceac" fill-opacity="0.501961" points="159,80 129,102 108,48" />
<polygon fill="#661c3f" fill-opacity="0.501961" points="57,37 89,34 73,48" />
<polygon fill="#4eb0c8" fill-opacity="0.501961" points="60,7 36,71 -16,68" />
<polygon fill="#b47b5f" fill-opacity="0.501961" points="87,101 -16,123 -16,88" />
<polygon fill="#b6c99c" fill-opacity="0.501961" points="166,66 228,63 165,117" />
<polygon fill="#74b387" fill-opacity="0.501961" points="86,161 90,107 -16,133" />
<polygon fill="#467cc5" fill-opacity="0.501961" points="104,95 99,38 77,82" />
<polygon fill="#2c80ff" fill-opacity="0.501961" points="270,44 120,38 230,-16" />
<polygon fill="#bbc496" fill-opacity="0.501961" points="-16,82 81,100 75,60" />
<polygon fill="#6a7165" fill-opacity="0.501961" points="142,151 191,149 118,97" />
<polygon fill="#400702" fill-opacity="0.501961" points="167,64 154,75 134,53" />
</g>
</svg>
