<svg xmlns="http://www.w3.org/2000/svg" version="1.1" width="1280" height="730">
<rect x="0" y="0" width="1280" height="730" fill="#b5a9a1" />
<g transform="scale(5.000000) translate(0.5 0.5)">
<polygon fill="#ffffff" fill-opacity="0.501961" points="-16,99 271,88 245,161" />
<polygon fill="#51311d" fill-opacity="0.501961" points="196,96 254,-7 -16,0" />
<polygon fill="#ffffff" fill-opacity="0.501961" points="-12,155 -5,96 181,90" />
<polygon fill="#2b353e" fill-opacity="0.501961" points="7,-16 61,86 -16,99" />
<polygon fill="#eaf3f8" fill-opacity="0.501961" points="135,161 111,12 47,12" />
<polygon fill="#400000" fill-opacity="0.501961" points="144,42 229,90 117,88" />
<polygon fill="#ffffff" fill-opacity="0.501961" points="254,11 271,141 186,161" />
<polygon fill="#000000" fill-opacity="0.501961" points="271,9 207,-16 114,12" />
<polygon fill="#ffffff" fill-opacity="0.501961" points="47,85 146,161 271,97" />
<polygon fill="#ffffff" fill-opacity="0.501961" points="151,11 198,11 160,44" />
<polygon fill="#000002" fill-opacity="0.501961" points="-16,10 133,11 76,-16" />
<polygon fill="#693200" fill-opacity="0.501961" points="48,161 106,124 49,125" />
<polygon fill="#fffffb" fill-opacity="0.501961" points="271,14 253,161 221,10" />
<polygon fill="#ffdaa8" fill-opacity="0.501961" points="204,30 168,49 194,82" />
<polygon fill="#ffffff" fill-opacity="0.501961" points="-16,96 86,98 15,161" />
<polygon fill="#fb9d28" fill-opacity="0.501961" points="216,14 225,96 241,14" />
<polygon fill="#000000" fill-opacity="0.501961" points="177,24 222,39 210,16" />
<polygon fill="#000000" fill-opacity="0.501961" points="141,32 126,13 167,-16" />
<polygon fill="#ffffff" fill-opacity="0.501961" points="38,89 212,161 271,93" />
<polygon fill="#290f00" fill-opacity="0.501961" points="224,90 183,88 230,69" />
<polygon fill="#600000" fill-opacity="0.501961" points="39,161 101,131 98,152" />
<polygon fill="#a19c9c" fill-opacity="0.501961" points="134,90 43,11 28,88" />
<polygon fill="#1e1300" fill-opacity="0.501961" points="178,83 169,31 151,90" />
<polygon fill="#e86137" fill-opacity="0.501961" points="167,56 114,67 128,90" />
<polygon fill="#ffffff" fill-opacity="0.501961" points="152,11 187,13 160,33" />
<polygon fill="#ffffff" fill-opacity="0.501961" points="50,89 -16,137 45,160" />
<polygon fill="#d3d5d6" fill-opacity="0.501961" points="105,20 53,50 129,68" />
<polygon fill="#ffffa2" fill-opacity="0.501961" points="79,123 76,160 63,144" />
<polygon fill="#000008" fill-opacity="0.501961" points="55,157 57,126 68,125" />
<polygon fill="#061524" fill-opacity="0.501961" points="271,11 153,11 235,-16" />
</g>
</svg>