<svg xmlns="http://www.w3.org/2000/svg" version="1.1" width="1024" height="584"><rect x="0" y="0" width="1024" height="584" fill="#acc9d8" /><g transform="scale(4.000000) translate(0.5 0.5)"><polygon fill="#340000" fill-opacity="0.501961" points="55,43 158,105 59,105" /><polygon fill="#008bdd" fill-opacity="0.501961" points="-16,47 271,48 42,-16" /><polygon fill="#ffffff" fill-opacity="0.501961" points="253,161 -16,142 271,55" /><polygon fill="#0084df" fill-opacity="0.501961" points="47,-16 271,-16 255,43" /><polygon fill="#ffffff" fill-opacity="0.501961" points="-16,50 64,48 13,161" /><polygon fill="#2a0600" fill-opacity="0.501961" points="154,50 154,79 209,76" /><polygon fill="#ffffff" fill-opacity="0.501961" points="238,39 271,142 104,161" /><polygon fill="#ffffff" fill-opacity="0.501961" points="111,161 12,45 -16,143" /><polygon fill="#452f15" fill-opacity="0.501961" points="150,104 58,105 148,78" /><polygon fill="#140400" fill-opacity="0.501961" points="56,105 56,54 85,54" /><polygon fill="#fffacc" fill-opacity="0.501961" points="164,32 120,16 91,31" /><polygon fill="#ffebcd" fill-opacity="0.501961" points="112,84 167,49 81,48" /><polygon fill="#ffffff" fill-opacity="0.501961" points="196,49 225,161 271,46" /><polygon fill="#2b1d16" fill-opacity="0.501961" points="199,53 200,78 162,78" /><polygon fill="#299bda" fill-opacity="0.501961" points="6,-16 122,47 -14,47" /><polygon fill="#bd8250" fill-opacity="0.501961" points="95,50 109,84 54,89" /><polygon fill="#ffffff" fill-opacity="0.501961" points="54,49 58,161 -16,48" /><polygon fill="#ffffff" fill-opacity="0.501961" points="208,161 59,106 271,108" /><polygon fill="#a61600" fill-opacity="0.501961" points="100,135 82,131 100,124" /><polygon fill="#ffffff" fill-opacity="0.501961" points="41,48 68,56 97,48" /><polygon fill="#dcc0a8" fill-opacity="0.501961" points="154,87 149,52 89,79" /><polygon fill="#30a0da" fill-opacity="0.501961" points="242,-16 131,44 271,49" /><polygon fill="#43a6de" fill-opacity="0.501961" points="172,24 -16,26 22,-16" /><polygon fill="#644d37" fill-opacity="0.501961" points="59,105 56,77 150,106" /><polygon fill="#e3f6fa" fill-opacity="0.501961" points="207,80 152,78 147,161" /><polygon fill="#ffffff" fill-opacity="0.501961" points="271,48 246,161 196,49" /><polygon fill="#ffce29" fill-opacity="0.501961" points="161,33 134,29 151,24" /><polygon fill="#ffffff" fill-opacity="0.501961" points="109,158 -16,157 2,49" /><polygon fill="#000100" fill-opacity="0.501961" points="87,55 56,56 56,77" /><polygon fill="#796e61" fill-opacity="0.501961" points="173,76 156,56 201,54" /></g></svg>
