<svg xmlns="http://www.w3.org/2000/svg" version="1.1" width="1024" height="588">
<rect x="0" y="0" width="1024" height="588" fill="#f9fafb" />
<g transform="scale(4.000000) translate(0.5 0.5)">
<polygon fill="#9a9b9d" fill-opacity="0.501961" points="129,45 89,33 168,32" />
<polygon fill="#8bc2ec" fill-opacity="0.501961" points="133,5 117,18 131,30" />
<polygon fill="#ffffff" fill-opacity="0.501961" points="-16,38 16,97 155,38" />
<polygon fill="#c8c9c8" fill-opacity="0.501961" points="125,106 96,96 158,97" />
<polygon fill="#ffffff" fill-opacity="0.501961" points="121,-1 250,114 267,-16" />
<polygon fill="#7d7d7e" fill-opacity="0.501961" points="93,38 113,36 101,32" />
<polygon fill="#ffffff" fill-opacity="0.501961" points="140,0 -16,-2 15,93" />
<polygon fill="#7f8184" fill-opacity="0.501961" points="159,37 127,37 148,31" />
<polygon fill="#f7f9fd" fill-opacity="0.501961" points="146,40 124,16 140,12" />
<polygon fill="#eff3f5" fill-opacity="0.501961" points="128,144 79,99 175,102" />
<polygon fill="#63ade3" fill-opacity="0.501961" points="129,10 119,16 121,21" />
<polygon fill="#c6cad0" fill-opacity="0.501961" points="97,43 93,37 114,42" />
<polygon fill="#ffffff" fill-opacity="0.501961" points="121,33 117,-16 19,32" />
<polygon fill="#727272" fill-opacity="0.501961" points="140,35 131,31 135,37" />
<polygon fill="#ccd0d6" fill-opacity="0.501961" points="140,44 140,38 160,42" />
<polygon fill="#8fbee9" fill-opacity="0.501961" points="135,16 135,23 122,28" />
<polygon fill="#2f96de" fill-opacity="0.501961" points="130,24 124,23 121,26" />
<polygon fill="#dee8f6" fill-opacity="0.501961" points="195,138 213,121 227,139" />
<polygon fill="#ffffff" fill-opacity="0.501961" points="99,-16 271,2 232,89" />
<polygon fill="#dce7f8" fill-opacity="0.501961" points="136,122 131,160 115,123" />
<polygon fill="#ffffff" fill-opacity="0.501961" points="17,-16 101,40 2,36" />
<polygon fill="#dff0fd" fill-opacity="0.501961" points="155,70 83,71 117,60" />
<polygon fill="#ffffff" fill-opacity="0.501961" points="69,34 135,29 98,18" />
<polygon fill="#ffffff" fill-opacity="0.501961" points="126,43 209,66 79,68" />
<polygon fill="#b7d9f5" fill-opacity="0.501961" points="3,1 6,10 8,3" />
<polygon fill="#a0a0a1" fill-opacity="0.501961" points="124,38 108,34 132,33" />
<polygon fill="#fdffff" fill-opacity="0.501961" points="129,71 117,60 119,28" />
<polygon fill="#4da1df" fill-opacity="0.501961" points="127,26 121,19 123,16" />
<polygon fill="#c6c7c7" fill-opacity="0.501961" points="159,97 143,102 128,98" />
<polygon fill="#666767" fill-opacity="0.501961" points="155,34 157,37 158,32" />
</g>
</svg>