<svg xmlns="http://www.w3.org/2000/svg" version="1.1" width="1024" height="584">
<rect x="0" y="0" width="1024" height="584" fill="#d8b7df" />
<g transform="scale(4.000000) translate(0.5 0.5)">
<polygon fill="#6816a8" fill-opacity="0.501961" points="271,108 -16,109 116,38" />
<polygon fill="#ffffff" fill-opacity="0.501961" points="16,54 -16,-16 271,3" />
<polygon fill="#ffffff" fill-opacity="0.501961" points="2,120 271,107 188,161" />
<polygon fill="#c254ac" fill-opacity="0.501961" points="271,114 269,41 -2,43" />
<polygon fill="#9732b5" fill-opacity="0.501961" points="143,112 -16,106 8,40" />
<polygon fill="#ffffff" fill-opacity="0.501961" points="206,118 -16,107 12,161" />
<polygon fill="#fffffe" fill-opacity="0.501961" points="19,37 245,-16 271,45" />
<polygon fill="#000000" fill-opacity="0.501961" points="145,26 179,25 160,35" />
<polygon fill="#0e1749" fill-opacity="0.501961" points="103,83 56,85 99,115" />
<polygon fill="#180a4c" fill-opacity="0.501961" points="110,76 155,46 109,50" />
<polygon fill="#00001e" fill-opacity="0.501961" points="158,113 155,104 189,111" />
<polygon fill="#f9bbdf" fill-opacity="0.501961" points="142,114 86,75 154,76" />
<polygon fill="#ffffff" fill-opacity="0.501961" points="218,161 271,113 84,112" />
<polygon fill="#fffff2" fill-opacity="0.501961" points="-16,47 194,47 27,-16" />
<polygon fill="#f47bb0" fill-opacity="0.501961" points="-16,42 61,95 83,40" />
<polygon fill="#00002d" fill-opacity="0.501961" points="198,84 153,97 157,84" />
<polygon fill="#ffcee5" fill-opacity="0.501961" points="146,31 198,76 149,77" />
<polygon fill="#ffffff" fill-opacity="0.501961" points="187,107 166,108 169,87" />
<polygon fill="#ffffff" fill-opacity="0.501961" points="201,141 -16,161 11,108" />
<polygon fill="#903cfc" fill-opacity="0.501961" points="186,108 241,69 271,108" />
<polygon fill="#ffffff" fill-opacity="0.501961" points="167,42 271,37 193,-16" />
<polygon fill="#1d153b" fill-opacity="0.501961" points="64,108 64,82 84,108" />
<polygon fill="#000000" fill-opacity="0.501961" points="151,24 141,33 175,28" />
<polygon fill="#9c6dff" fill-opacity="0.501961" points="112,45 47,108 -11,109" />
<polygon fill="#e872af" fill-opacity="0.501961" points="271,41 136,42 249,83" />
<polygon fill="#00002d" fill-opacity="0.501961" points="166,101 155,112 157,85" />
<polygon fill="#ffffff" fill-opacity="0.501961" points="-16,44 165,5 -8,-4" />
<polygon fill="#271176" fill-opacity="0.501961" points="146,48 112,47 147,72" />
<polygon fill="#5dacf8" fill-opacity="0.501961" points="101,57 103,75 65,66" />
<polygon fill="#ffffff" fill-opacity="0.501961" points="222,161 133,114 271,109" />
</g>
</svg>