<svg xmlns="http://www.w3.org/2000/svg" version="1.1" width="1024" height="584">
<rect x="0" y="0" width="1024" height="584" fill="#706c6b" />
<g transform="scale(4.000000) translate(0.5 0.5)">
<polygon fill="#ffffff" fill-opacity="0.501961" points="-16,116 32,161 198,119" />
<polygon fill="#ffffff" fill-opacity="0.501961" points="260,116 155,116 258,161" />
<polygon fill="#25201e" fill-opacity="0.501961" points="246,-16 85,116 268,116" />
<polygon fill="#ffffff" fill-opacity="0.501961" points="176,118 10,161 -12,116" />
<polygon fill="#2a2321" fill-opacity="0.501961" points="94,114 -7,-16 -8,115" />
<polygon fill="#ffffff" fill-opacity="0.501961" points="74,61 137,77 37,80" />
<polygon fill="#ffffff" fill-opacity="0.501961" points="141,161 146,118 -16,119" />
<polygon fill="#ffffff" fill-opacity="0.501961" points="246,161 183,117 271,116" />
<polygon fill="#322a2a" fill-opacity="0.501961" points="190,21 158,67 54,68" />
<polygon fill="#0c0400" fill-opacity="0.501961" points="147,129 210,129 184,157" />
<polygon fill="#575558" fill-opacity="0.501961" points="271,-12 247,84 -16,1" />
<polygon fill="#ffffff" fill-opacity="0.501961" points="136,70 75,69 110,79" />
<polygon fill="#25201d" fill-opacity="0.501961" points="49,80 56,116 136,79" />
<polygon fill="#ffffff" fill-opacity="0.501961" points="207,116 271,119 205,161" />
<polygon fill="#ffffff" fill-opacity="0.501961" points="204,130 135,128 176,118" />
<polygon fill="#ffffff" fill-opacity="0.501961" points="145,137 4,116 -7,156" />
<polygon fill="#3b393a" fill-opacity="0.501961" points="60,143 114,142 109,161" />
<polygon fill="#0e0201" fill-opacity="0.501961" points="158,3 25,3 95,-16" />
<polygon fill="#ffffff" fill-opacity="0.501961" points="45,68 90,71 52,79" />
<polygon fill="#2c2727" fill-opacity="0.501961" points="-16,103 49,86 46,19" />
<polygon fill="#000001" fill-opacity="0.501961" points="156,115 220,115 164,99" />
<polygon fill="#a29f9e" fill-opacity="0.501961" points="131,33 87,50 154,49" />
<polygon fill="#0a0908" fill-opacity="0.501961" points="143,2 204,-16 271,3" />
<polygon fill="#808083" fill-opacity="0.501961" points="271,8 147,10 234,32" />
<polygon fill="#ffffff" fill-opacity="0.501961" points="141,118 84,131 145,147" />
<polygon fill="#e3e9e3" fill-opacity="0.501961" points="184,154 179,118 175,138" />
<polygon fill="#78787c" fill-opacity="0.501961" points="113,13 -16,5 11,34" />
<polygon fill="#000000" fill-opacity="0.501961" points="205,129 180,129 204,141" />
<polygon fill="#ffffff" fill-opacity="0.501961" points="134,66 87,76 138,79" />
<polygon fill="#353033" fill-opacity="0.501961" points="271,82 110,52 199,115" />
</g>
</svg>