<svg xmlns="http://www.w3.org/2000/svg" version="1.1" width="1280" height="734"><rect x="0" y="0" width="1280" height="734" fill="#f9fafb" /><g transform="scale(5.000000) translate(0.5 0.5)"><polygon fill="#8e8f91" fill-opacity="0.501961" points="165,32 134,44 95,34" /><polygon fill="#8cbce1" fill-opacity="0.501961" points="132,9 135,38 117,16" /><polygon fill="#ffffff" fill-opacity="0.501961" points="270,93 269,33 58,41" /><polygon fill="#cacbca" fill-opacity="0.501961" points="121,107 154,98 91,96" /><polygon fill="#858586" fill-opacity="0.501961" points="113,34 96,32 97,41" /><polygon fill="#ffffff" fill-opacity="0.501961" points="-16,126 127,8 10,-16" /><polygon fill="#ffffff" fill-opacity="0.501961" points="260,75 255,-16 124,17" /><polygon fill="#7c7874" fill-opacity="0.501961" points="122,37 135,33 144,37" /><polygon fill="#c8ccd1" fill-opacity="0.501961" points="125,43 91,43 99,36" /><polygon fill="#636669" fill-opacity="0.501961" points="160,33 157,38 148,33" /><polygon fill="#f1f4f6" fill-opacity="0.501961" points="75,97 123,148 182,105" /><polygon fill="#c6cbd2" fill-opacity="0.501961" points="162,41 135,41 152,47" /><polygon fill="#959492" fill-opacity="0.501961" points="149,32 122,33 134,37" /><polygon fill="#45a1e4" fill-opacity="0.501961" points="124,11 128,13 119,19" /><polygon fill="#ffffff" fill-opacity="0.501961" points="189,2 112,32 254,17" /><polygon fill="#ffffff" fill-opacity="0.501961" points="13,-16 100,40 -16,78" /><polygon fill="#feffff" fill-opacity="0.501961" points="110,69 24,44 194,43" /><polygon fill="#2f94df" fill-opacity="0.501961" points="133,23 122,24 130,26" /><polygon fill="#dae6f5" fill-opacity="0.501961" points="222,139 218,124 193,136" /><polygon fill="#aec8ef" fill-opacity="0.501961" points="131,20 135,23 135,13" /><polygon fill="#d9e6f7" fill-opacity="0.501961" points="113,128 133,149 134,121" /><polygon fill="#dadbda" fill-opacity="0.501961" points="147,96 135,105 180,105" /><polygon fill="#ffffff" fill-opacity="0.501961" points="117,55 122,44 119,32" /><polygon fill="#909191" fill-opacity="0.501961" points="115,33 101,39 102,32" /><polygon fill="#deeffc" fill-opacity="0.501961" points="123,60 85,71 162,70" /><polygon fill="#ffffff" fill-opacity="0.501961" points="233,80 271,13 92,-16" /><polygon fill="#ffffff" fill-opacity="0.501961" points="124,19 128,13 143,36" /><polygon fill="#ffffff" fill-opacity="0.501961" points="-16,20 104,-16 126,31" /><polygon fill="#feffff" fill-opacity="0.501961" points="8,69 10,13 163,67" /><polygon fill="#b1b2b2" fill-opacity="0.501961" points="133,100 121,98 129,97" /></g></svg>
