<svg xmlns="http://www.w3.org/2000/svg" version="1.1" width="1280" height="734"><rect x="0" y="0" width="1280" height="734" fill="#d8b7df" /><g transform="scale(5.000000) translate(0.5 0.5)"><polygon fill="#6a16a7" fill-opacity="0.501961" points="114,37 -16,107 271,109" /><polygon fill="#ffffff" fill-opacity="0.501961" points="271,5 -16,58 9,-16" /><polygon fill="#ffffff" fill-opacity="0.501961" points="21,122 215,161 271,106" /><polygon fill="#de449e" fill-opacity="0.501961" points="-16,41 -16,105 116,42" /><polygon fill="#ffffff" fill-opacity="0.501961" points="211,115 19,161 -16,108" /><polygon fill="#ce3cab" fill-opacity="0.501961" points="147,41 271,117 267,41" /><polygon fill="#ffffff" fill-opacity="0.501961" points="243,-16 34,41 271,40" /><polygon fill="#000000" fill-opacity="0.501961" points="176,25 141,27 169,34" /><polygon fill="#090042" fill-opacity="0.501961" points="55,84 102,83 95,115" /><polygon fill="#2d0045" fill-opacity="0.501961" points="151,47 110,81 111,47" /><polygon fill="#000010" fill-opacity="0.501961" points="170,112 157,81 155,110" /><polygon fill="#ffc7e3" fill-opacity="0.501961" points="137,112 108,75 162,76" /><polygon fill="#ffffff" fill-opacity="0.501961" points="-16,105 207,135 8,161" /><polygon fill="#ffc6db" fill-opacity="0.501961" points="200,76 154,77 142,24" /><polygon fill="#ffffff" fill-opacity="0.501961" points="-16,44 221,17 7,-16" /><polygon fill="#f8ffff" fill-opacity="0.501961" points="166,107 170,90 196,108" /><polygon fill="#0e053f" fill-opacity="0.501961" points="151,83 199,83 174,93" /><polygon fill="#000021" fill-opacity="0.501961" points="194,112 167,112 189,106" /><polygon fill="#ffffff" fill-opacity="0.501961" points="223,161 93,115 271,110" /><polygon fill="#000000" fill-opacity="0.501961" points="155,24 141,32 175,30" /><polygon fill="#ffffff" fill-opacity="0.501961" points="253,-16 154,41 271,41" /><polygon fill="#3a0d79" fill-opacity="0.501961" points="64,84 100,110 64,112" /><polygon fill="#903ef9" fill-opacity="0.501961" points="183,108 248,70 267,108" /><polygon fill="#983ffb" fill-opacity="0.501961" points="-16,108 19,66 61,109" /><polygon fill="#c88ee8" fill-opacity="0.501961" points="107,40 21,86 109,82" /><polygon fill="#ffe9d9" fill-opacity="0.501961" points="99,21 137,46 46,47" /><polygon fill="#150460" fill-opacity="0.501961" points="146,48 130,47 147,77" /><polygon fill="#7e4eff" fill-opacity="0.501961" points="109,102 142,111 82,112" /><polygon fill="#ce58c1" fill-opacity="0.501961" points="61,58 64,93 -16,76" /><polygon fill="#ffffff" fill-opacity="0.501961" points="271,126 35,108 85,161" /></g></svg>
