<svg xmlns="http://www.w3.org/2000/svg" version="1.1" width="1280" height="730">
<rect x="0" y="0" width="1280" height="730" fill="#d3c5c9" />
<g transform="scale(5.000000) translate(0.5 0.5)">
<polygon fill="#372720" fill-opacity="0.501961" points="217,161 26,142 218,76" />
<polygon fill="#ffffff" fill-opacity="0.501961" points="253,-16 271,74 -16,18" />
<polygon fill="#a65b79" fill-opacity="0.501961" points="38,153 37,56 229,56" />
<polygon fill="#000000" fill-opacity="0.501961" points="219,134 36,133 125,161" />
<polygon fill="#ffffff" fill-opacity="0.501961" points="156,-16 3,161 -16,0" />
<polygon fill="#ffffff" fill-opacity="0.501961" points="271,129 220,-16 218,161" />
<polygon fill="#f8ceb7" fill-opacity="0.501961" points="195,109 135,63 145,161" />
<polygon fill="#c13477" fill-opacity="0.501961" points="30,56 45,81 138,56" />
<polygon fill="#000000" fill-opacity="0.501961" points="123,56 132,58 128,89" />
<polygon fill="#ffffff" fill-opacity="0.501961" points="36,-16 37,161 -16,111" />
<polygon fill="#e8eae4" fill-opacity="0.501961" points="32,133 88,117 147,133" />
<polygon fill="#000000" fill-opacity="0.501961" points="33,5 62,4 57,11" />
<polygon fill="#000000" fill-opacity="0.501961" points="125,40 123,26 135,29" />
<polygon fill="#084683" fill-opacity="0.501961" points="66,96 153,97 104,83" />
<polygon fill="#ffffff" fill-opacity="0.501961" points="271,-1 199,-16 247,161" />
<polygon fill="#ffffff" fill-opacity="0.501961" points="196,123 160,133 229,133" />
<polygon fill="#000000" fill-opacity="0.501961" points="38,133 37,161 123,133" />
<polygon fill="#45494c" fill-opacity="0.501961" points="49,95 37,84 37,134" />
<polygon fill="#957d94" fill-opacity="0.501961" points="212,127 220,53 129,128" />
<polygon fill="#ffffff" fill-opacity="0.501961" points="110,134 110,154 118,126" />
<polygon fill="#000000" fill-opacity="0.501961" points="159,134 231,161 213,133" />
<polygon fill="#000000" fill-opacity="0.501961" points="122,129 131,125 128,100" />
<polygon fill="#f9ffff" fill-opacity="0.501961" points="42,147 44,139 65,141" />
<polygon fill="#ffffff" fill-opacity="0.501961" points="37,-8 35,161 -16,3" />
<polygon fill="#ffd3c4" fill-opacity="0.501961" points="110,73 56,104 38,74" />
<polygon fill="#ffffff" fill-opacity="0.501961" points="271,-3 45,-1 264,69" />
<polygon fill="#ffae14" fill-opacity="0.501961" points="139,132 168,133 161,160" />
<polygon fill="#ffd1cd" fill-opacity="0.501961" points="225,76 130,73 133,100" />
<polygon fill="#93877d" fill-opacity="0.501961" points="123,127 35,128 128,95" />
<polygon fill="#ffffff" fill-opacity="0.501961" points="219,157 271,157 222,-16" />
</g>
</svg>