<svg xmlns="http://www.w3.org/2000/svg" version="1.1" width="1280" height="734"><rect x="0" y="0" width="1280" height="734" fill="#acc9d8" /><g transform="scale(5.000000) translate(0.5 0.5)"><polygon fill="#380000" fill-opacity="0.501961" points="160,103 57,44 55,105" /><polygon fill="#008bdd" fill-opacity="0.501961" points="-16,48 38,-16 271,47" /><polygon fill="#ffffff" fill-opacity="0.501961" points="-16,142 257,161 257,58" /><polygon fill="#0083df" fill-opacity="0.501961" points="72,-8 271,46 251,-16" /><polygon fill="#ffffff" fill-opacity="0.501961" points="109,161 14,36 -16,141" /><polygon fill="#1d0000" fill-opacity="0.501961" points="153,78 162,52 209,78" /><polygon fill="#ffffff" fill-opacity="0.501961" points="271,33 60,158 271,161" /><polygon fill="#ffffff" fill-opacity="0.501961" points="8,159 -16,51 65,47" /><polygon fill="#432f15" fill-opacity="0.501961" points="149,105 58,105 150,78" /><polygon fill="#000000" fill-opacity="0.501961" points="55,56 59,80 90,55" /><polygon fill="#ffffff" fill-opacity="0.501961" points="221,161 271,48 197,49" /><polygon fill="#ffffd3" fill-opacity="0.501961" points="157,25 86,26 123,37" /><polygon fill="#ffedce" fill-opacity="0.501961" points="163,48 113,84 77,48" /><polygon fill="#299bda" fill-opacity="0.501961" points="-3,-16 -3,48 129,46" /><polygon fill="#190b04" fill-opacity="0.501961" points="172,77 199,55 200,78" /><polygon fill="#d7b69a" fill-opacity="0.501961" points="75,77 162,52 144,89" /><polygon fill="#ffffff" fill-opacity="0.501961" points="52,161 -16,43 56,60" /><polygon fill="#a51700" fill-opacity="0.501961" points="100,123 102,132 81,133" /><polygon fill="#7d5028" fill-opacity="0.501961" points="108,101 56,97 99,52" /><polygon fill="#ffffff" fill-opacity="0.501961" points="151,110 -3,102 -16,156" /><polygon fill="#ffffff" fill-opacity="0.501961" points="92,51 19,60 51,45" /><polygon fill="#776b5c" fill-opacity="0.501961" points="155,80 201,54 152,56" /><polygon fill="#ffd205" fill-opacity="0.501961" points="157,32 138,31 152,23" /><polygon fill="#ffffff" fill-opacity="0.501961" points="189,50 261,48 269,161" /><polygon fill="#31a1da" fill-opacity="0.501961" points="271,48 133,45 234,-16" /><polygon fill="#efab7e" fill-opacity="0.501961" points="79,85 86,55 73,68" /><polygon fill="#f4f9fd" fill-opacity="0.501961" points="115,47 119,80 97,81" /><polygon fill="#ffffff" fill-opacity="0.501961" points="203,48 143,48 171,57" /><polygon fill="#534334" fill-opacity="0.501961" points="57,82 57,106 121,105" /><polygon fill="#daf1f6" fill-opacity="0.501961" points="209,81 162,139 148,78" /></g></svg>
