<svg xmlns="http://www.w3.org/2000/svg" version="1.1" width="1280" height="730"><rect x="0" y="0" width="1280" height="730" fill="%23ebecf0" /><g transform="scale(5.000000) translate(0.5 0.5)"><polygon fill="%23000000" fill-opacity="0.501961" points="134,125 130,99 192,110" /><polygon fill="%230000ae" fill-opacity="0.501961" points="88,75 130,64 116,46" /><polygon fill="%23000000" fill-opacity="0.501961" points="222,-12 216,9 193,4" /><polygon fill="%23000000" fill-opacity="0.501961" points="165,101 167,119 129,120" /><polygon fill="%23ffffff" fill-opacity="0.501961" points="166,120 180,-9 271,72" /><polygon fill="%23000000" fill-opacity="0.501961" points="131,119 130,105 165,102" /><polygon fill="%230000e1" fill-opacity="0.501961" points="160,77 132,76 150,84" /><polygon fill="%230000c4" fill-opacity="0.501961" points="44,59 54,46 40,47" /><polygon fill="%23000000" fill-opacity="0.501961" points="70,66 59,73 72,72" /><polygon fill="%23516c53" fill-opacity="0.501961" points="97,112 79,111 84,133" /><polygon fill="%232f2ac4" fill-opacity="0.501961" points="114,73 120,48 76,74" /><polygon fill="%23ffffff" fill-opacity="0.501961" points="79,71 -16,102 184,101" /><polygon fill="%23ffffff" fill-opacity="0.501961" points="271,116 227,161 68,124" /><polygon fill="%23ffffff" fill-opacity="0.501961" points="0,161 79,118 0,-16" /><polygon fill="%230600dd" fill-opacity="0.501961" points="209,100 207,93 191,97" /><polygon fill="%239595a0" fill-opacity="0.501961" points="136,22 154,37 197,23" /><polygon fill="%23ffffff" fill-opacity="0.501961" points="260,-16 195,20 252,161" /><polygon fill="%23ff9686" fill-opacity="0.501961" points="143,108 150,119 154,105" /><polygon fill="%23fbffff" fill-opacity="0.501961" points="127,161 133,56 85,100" /><polygon fill="%23000000" fill-opacity="0.501961" points="166,119 166,102 143,102" /><polygon fill="%2300000a" fill-opacity="0.501961" points="197,1 217,2 193,9" /><polygon fill="%23000000" fill-opacity="0.501961" points="72,26 77,31 69,31" /><polygon fill="%23ffffff" fill-opacity="0.501961" points="210,10 35,-16 -16,37" /><polygon fill="%23ffffff" fill-opacity="0.501961" points="222,29 166,157 168,83" /><polygon fill="%23d0d0d2" fill-opacity="0.501961" points="92,71 32,35 105,48" /><polygon fill="%23000000" fill-opacity="0.501961" points="135,118 148,102 131,104" /><polygon fill="%233e3e53" fill-opacity="0.501961" points="54,65 48,72 58,73" /><polygon fill="%23ffffff" fill-opacity="0.501961" points="255,2 161,-1 225,-16" /><polygon fill="%23ffffff" fill-opacity="0.501961" points="134,21 92,-16 136,80" /><polygon fill="%23ffffff" fill-opacity="0.501961" points="-5,143 -5,-16 56,16" /></g></svg>
