<svg xmlns="http://www.w3.org/2000/svg" version="1.1" width="1280" height="730"><rect x="0" y="0" width="1280" height="730" fill="%23ebebeb" /><g transform="scale(5.000000) translate(0.5 0.5)"><polygon fill="%23000000" fill-opacity="0.501961" points="144,76 167,17 72,20" /><polygon fill="%23000000" fill-opacity="0.501961" points="173,54 95,56 103,10" /><polygon fill="%23ffffff" fill-opacity="0.501961" points="-16,30 97,-16 97,161" /><polygon fill="%23ffffff" fill-opacity="0.501961" points="81,57 243,161 271,52" /><polygon fill="%23000000" fill-opacity="0.501961" points="158,18 96,19 154,57" /><polygon fill="%23000000" fill-opacity="0.501961" points="143,95 134,105 109,97" /><polygon fill="%23ffffff" fill-opacity="0.501961" points="158,-12 271,7 161,161" /><polygon fill="%23000000" fill-opacity="0.501961" points="99,18 97,55 157,53" /><polygon fill="%23ffffff" fill-opacity="0.501961" points="-16,-9 123,-16 9,161" /><polygon fill="%23000000" fill-opacity="0.501961" points="158,50 98,18 157,19" /><polygon fill="%23ffffff" fill-opacity="0.501961" points="-5,161 -16,53 188,58" /><polygon fill="%23000000" fill-opacity="0.501961" points="111,103 118,95 142,99" /><polygon fill="%23ffffff" fill-opacity="0.501961" points="208,18 173,-16 47,18" /><polygon fill="%23ffffff" fill-opacity="0.501961" points="271,42 173,161 155,-16" /><polygon fill="%23ffffff" fill-opacity="0.501961" points="19,104 163,102 244,161" /><polygon fill="%23000000" fill-opacity="0.501961" points="150,56 98,55 99,19" /><polygon fill="%23ffffff" fill-opacity="0.501961" points="96,-16 -16,4 100,129" /><polygon fill="%23000000" fill-opacity="0.501961" points="157,22 158,55 112,19" /><polygon fill="%23000000" fill-opacity="0.501961" points="143,102 133,96 121,102" /><polygon fill="%23ffffff" fill-opacity="0.501961" points="267,-16 135,70 256,161" /><polygon fill="%23f3f3f3" fill-opacity="0.501961" points="102,55 167,125 159,55" /><polygon fill="%23fefefe" fill-opacity="0.501961" points="47,161 -16,93 245,111" /><polygon fill="%23ffffff" fill-opacity="0.501961" points="173,-16 49,18 271,17" /><polygon fill="%23c6c6c6" fill-opacity="0.501961" points="64,128 119,130 93,137" /><polygon fill="%23ffffff" fill-opacity="0.501961" points="271,-16 160,15 158,126" /><polygon fill="%23000000" fill-opacity="0.501961" points="99,21 157,55 98,55" /><polygon fill="%23000000" fill-opacity="0.501961" points="141,102 121,96 140,96" /><polygon fill="%23c2c2c2" fill-opacity="0.501961" points="103,82 154,82 125,90" /><polygon fill="%23ffffff" fill-opacity="0.501961" points="98,72 -16,35 96,-1" /><polygon fill="%23000000" fill-opacity="0.501961" points="131,102 114,101 118,97" /></g></svg>
