<svg xmlns="http://www.w3.org/2000/svg" version="1.1" width="1280" height="730"><rect x="0" y="0" width="1280" height="730" fill="%237e7b82" /><g transform="scale(5.000000) translate(0.5 0.5)"><polygon fill="%23ffffff" fill-opacity="0.501961" points="271,79 -16,80 233,161" /><polygon fill="%23000000" fill-opacity="0.501961" points="-16,79 271,76 41,-16" /><polygon fill="%23000000" fill-opacity="0.501961" points="268,5 91,5 271,85" /><polygon fill="%23ffffff" fill-opacity="0.501961" points="255,77 -16,119 255,161" /><polygon fill="%23000000" fill-opacity="0.501961" points="87,94 121,161 124,94" /><polygon fill="%23ffffff" fill-opacity="0.501961" points="-16,113 18,77 18,161" /><polygon fill="%23000000" fill-opacity="0.501961" points="24,161 19,96 46,94" /><polygon fill="%23ffffff" fill-opacity="0.501961" points="40,77 41,150 118,161" /><polygon fill="%23ffffff" fill-opacity="0.501961" points="268,79 123,161 124,80" /><polygon fill="%231e1f1d" fill-opacity="0.501961" points="271,9 -16,5 11,79" /><polygon fill="%23000002" fill-opacity="0.501961" points="98,161 124,118 98,94" /><polygon fill="%23ffffff" fill-opacity="0.501961" points="25,78 6,161 -16,78" /><polygon fill="%23ffffff" fill-opacity="0.501961" points="97,99 39,104 97,157" /><polygon fill="%237300ff" fill-opacity="0.501961" points="-16,5 135,5 62,-16" /><polygon fill="%23ffffff" fill-opacity="0.501961" points="140,80 82,95 28,79" /><polygon fill="%23000000" fill-opacity="0.501961" points="77,97 53,90 25,99" /><polygon fill="%235000ff" fill-opacity="0.501961" points="194,-16 271,4 161,6" /><polygon fill="%23010200" fill-opacity="0.501961" points="39,96 18,121 39,157" /><polygon fill="%23ffffff" fill-opacity="0.501961" points="92,79 271,80 234,161" /><polygon fill="%23222421" fill-opacity="0.501961" points="271,5 271,79 70,77" /><polygon fill="%23411cb5" fill-opacity="0.501961" points="46,120 62,113 55,139" /><polygon fill="%23ffffff" fill-opacity="0.501961" points="-11,79 40,95 97,80" /><polygon fill="%23ffffff" fill-opacity="0.501961" points="-16,83 18,161 18,85" /><polygon fill="%236bfcbb" fill-opacity="0.501961" points="124,44 157,45 149,55" /><polygon fill="%23ffffff" fill-opacity="0.501961" points="229,150 125,153 124,80" /><polygon fill="%23080906" fill-opacity="0.501961" points="95,95 84,100 73,94" /><polygon fill="%23262626" fill-opacity="0.501961" points="-16,79 107,76 2,3" /><polygon fill="%231c2a31" fill-opacity="0.501961" points="122,161 123,94 101,96" /><polygon fill="%23ffffff" fill-opacity="0.501961" points="39,99 40,120 89,100" /><polygon fill="%23ae60ff" fill-opacity="0.501961" points="181,-16 165,5 113,3" /></g></svg>
