<svg xmlns="http://www.w3.org/2000/svg" version="1.1" width="1280" height="734"><rect x="0" y="0" width="1280" height="734" fill="#55524d" /><g transform="scale(5.000000) translate(0.5 0.5)"><polygon fill="#eff3df" fill-opacity="0.501961" points="186,19 127,92 110,13" /><polygon fill="#e8ed4e" fill-opacity="0.501961" points="179,94 69,62 192,64" /><polygon fill="#1d1c22" fill-opacity="0.501961" points="115,50 -16,85 4,-16" /><polygon fill="#ffffff" fill-opacity="0.501961" points="-16,143 87,144 42,161" /><polygon fill="#d3d787" fill-opacity="0.501961" points="67,86 79,56 131,83" /><polygon fill="#e9ffff" fill-opacity="0.501961" points="170,28 135,18 147,69" /><polygon fill="#222030" fill-opacity="0.501961" points="135,120 43,84 244,87" /><polygon fill="#000000" fill-opacity="0.501961" points="128,61 146,65 135,36" /><polygon fill="#edd5a3" fill-opacity="0.501961" points="87,29 67,16 122,15" /><polygon fill="#201d23" fill-opacity="0.501961" points="0,141 -15,97 131,144" /><polygon fill="#0e1015" fill-opacity="0.501961" points="219,42 158,43 161,66" /><polygon fill="#393c40" fill-opacity="0.501961" points="196,-16 195,161 271,52" /><polygon fill="#6d6e00" fill-opacity="0.501961" points="88,74 160,75 122,64" /><polygon fill="#807782" fill-opacity="0.501961" points="95,102 47,132 143,124" /><polygon fill="#000001" fill-opacity="0.501961" points="123,137 198,136 159,126" /><polygon fill="#e0e04c" fill-opacity="0.501961" points="192,63 187,83 120,64" /><polygon fill="#e33f3c" fill-opacity="0.501961" points="28,96 4,104 2,77" /><polygon fill="#beb5bd" fill-opacity="0.501961" points="155,32 188,18 189,41" /><polygon fill="#140307" fill-opacity="0.501961" points="114,23 108,60 70,55" /><polygon fill="#3d3e3f" fill-opacity="0.501961" points="60,-16 5,138 73,143" /><polygon fill="#8c94ac" fill-opacity="0.501961" points="167,105 184,124 153,130" /><polygon fill="#1c0d16" fill-opacity="0.501961" points="190,99 128,121 90,100" /><polygon fill="#8c848d" fill-opacity="0.501961" points="106,137 194,161 193,137" /><polygon fill="#695763" fill-opacity="0.501961" points="120,-1 103,20 185,21" /><polygon fill="#a74e4f" fill-opacity="0.501961" points="135,18 111,44 139,51" /><polygon fill="#d9fcff" fill-opacity="0.501961" points="129,21 117,21 133,45" /><polygon fill="#000000" fill-opacity="0.501961" points="104,129 78,138 132,135" /><polygon fill="#e0ffff" fill-opacity="0.501961" points="146,67 153,16 136,28" /><polygon fill="#7473ac" fill-opacity="0.501961" points="183,80 150,92 119,79" /><polygon fill="#000816" fill-opacity="0.501961" points="142,56 122,41 136,64" /></g></svg>
