<svg xmlns="http://www.w3.org/2000/svg" version="1.1" width="1280" height="730"><rect x="0" y="0" width="1280" height="730" fill="%23ebeef3" /><g transform="scale(5.000000) translate(0.5 0.5)"><polygon fill="%23859dc4" fill-opacity="0.501961" points="84,54 218,46 217,8" /><polygon fill="%23fefcfc" fill-opacity="0.501961" points="5,-16 259,161 -16,139" /><polygon fill="%237ca494" fill-opacity="0.501961" points="107,28 70,36 55,25" /><polygon fill="%234cbb7a" fill-opacity="0.501961" points="49,7 71,0 80,8" /><polygon fill="%232637b0" fill-opacity="0.501961" points="148,55 135,47 145,40" /><polygon fill="%23ffffff" fill-opacity="0.501961" points="126,10 96,17 159,89" /><polygon fill="%23c9c8c6" fill-opacity="0.501961" points="55,99 97,117 151,101" /><polygon fill="%23ffffff" fill-opacity="0.501961" points="183,72 153,12 176,24" /><polygon fill="%237882b4" fill-opacity="0.501961" points="217,42 216,18 182,40" /><polygon fill="%23c9c9ca" fill-opacity="0.501961" points="187,138 187,72 210,134" /><polygon fill="%2330c954" fill-opacity="0.501961" points="104,47 124,46 122,54" /><polygon fill="%23f9f7f9" fill-opacity="0.501961" points="166,42 141,134 224,43" /><polygon fill="%239ba6d3" fill-opacity="0.501961" points="177,15 217,17 176,43" /><polygon fill="%23994447" fill-opacity="0.501961" points="64,142 58,135 68,139" /><polygon fill="%23ffffff" fill-opacity="0.501961" points="43,152 43,-7 -16,109" /><polygon fill="%237883c4" fill-opacity="0.501961" points="161,53 167,33 146,53" /><polygon fill="%23ffffff" fill-opacity="0.501961" points="114,15 134,48 95,43" /><polygon fill="%23b9d1f7" fill-opacity="0.501961" points="149,54 166,26 137,20" /><polygon fill="%23e5e5f3" fill-opacity="0.501961" points="271,15 66,14 158,-16" /><polygon fill="%23ebedf3" fill-opacity="0.501961" points="41,157 47,-15 89,111" /><polygon fill="%239d9f9d" fill-opacity="0.501961" points="29,4 31,9 12,5" /><polygon fill="%23b9b6b4" fill-opacity="0.501961" points="211,81 188,81 192,94" /><polygon fill="%23ffffff" fill-opacity="0.501961" points="165,74 166,54 94,55" /><polygon fill="%2353cb75" fill-opacity="0.501961" points="102,53 104,47 124,51" /><polygon fill="%2394aaa5" fill-opacity="0.501961" points="72,27 107,26 88,35" /><polygon fill="%23fffffe" fill-opacity="0.501961" points="194,113 217,42 219,118" /><polygon fill="%23a3a1a2" fill-opacity="0.501961" points="209,105 203,98 187,105" /><polygon fill="%23dbdbda" fill-opacity="0.501961" points="120,100 162,115 83,114" /><polygon fill="%23fffffe" fill-opacity="0.501961" points="95,67 13,34 109,34" /><polygon fill="%23ffffff" fill-opacity="0.501961" points="169,115 53,116 156,161" /></g></svg>
