<svg xmlns="http://www.w3.org/2000/svg" version="1.1" width="1280" height="730"><rect x="0" y="0" width="1280" height="730" fill="%23d5deed" /><g transform="scale(5.000000) translate(0.5 0.5)"><polygon fill="%23000f93" fill-opacity="0.501961" points="233,30 160,111 138,-16" /><polygon fill="%23ffffff" fill-opacity="0.501961" points="111,69 271,143 -16,145" /><polygon fill="%23000a7c" fill-opacity="0.501961" points="137,61 213,61 167,98" /><polygon fill="%23ffffff" fill-opacity="0.501961" points="201,40 130,56 199,61" /><polygon fill="%23002ead" fill-opacity="0.501961" points="223,49 139,31 179,-12" /><polygon fill="%23fffffc" fill-opacity="0.501961" points="180,-16 -6,155 -16,3" /><polygon fill="%23ffffff" fill-opacity="0.501961" points="239,-16 181,161 271,137" /><polygon fill="%230079fe" fill-opacity="0.501961" points="61,70 106,69 77,79" /><polygon fill="%230026bf" fill-opacity="0.501961" points="144,57 153,85 159,22" /><polygon fill="%23000d6e" fill-opacity="0.501961" points="199,70 210,16 223,41" /><polygon fill="%23ffffff" fill-opacity="0.501961" points="201,51 157,63 157,41" /><polygon fill="%230025ce" fill-opacity="0.501961" points="131,161 136,139 119,138" /><polygon fill="%23fffffe" fill-opacity="0.501961" points="270,-1 202,0 236,57" /><polygon fill="%23ffffff" fill-opacity="0.501961" points="194,91 37,118 271,161" /><polygon fill="%23fcfef9" fill-opacity="0.501961" points="103,41 129,133 148,36" /><polygon fill="%23e2fffe" fill-opacity="0.501961" points="183,27 123,10 122,-16" /><polygon fill="%230043d5" fill-opacity="0.501961" points="222,-16 154,28 161,-7" /><polygon fill="%230035a1" fill-opacity="0.501961" points="137,20 224,41 159,44" /><polygon fill="%23ffffff" fill-opacity="0.501961" points="191,16 243,15 191,1" /><polygon fill="%23000d31" fill-opacity="0.501961" points="209,52 210,65 186,72" /><polygon fill="%2306a9d6" fill-opacity="0.501961" points="189,99 172,99 179,107" /><polygon fill="%23fffffd" fill-opacity="0.501961" points="271,146 202,66 179,94" /><polygon fill="%23ffffff" fill-opacity="0.501961" points="167,61 176,44 198,60" /><polygon fill="%23003da2" fill-opacity="0.501961" points="174,96 202,65 142,64" /><polygon fill="%23ffffff" fill-opacity="0.501961" points="190,124 7,161 -11,111" /><polygon fill="%234babfa" fill-opacity="0.501961" points="60,76 102,68 101,80" /><polygon fill="%23e7eae9" fill-opacity="0.501961" points="106,73 58,48 169,-16" /><polygon fill="%23ffffff" fill-opacity="0.501961" points="154,44 198,44 201,60" /><polygon fill="%23ffffef" fill-opacity="0.501961" points="180,26 176,19 166,26" /><polygon fill="%230f388b" fill-opacity="0.501961" points="141,34 175,18 141,20" /></g></svg>
