<svg xmlns="http://www.w3.org/2000/svg" version="1.1" width="1280" height="730"><rect x="0" y="0" width="1280" height="730" fill="%23030403" /><g transform="scale(5.000000) translate(0.5 0.5)"><polygon fill="%23ffffff" fill-opacity="0.501961" points="136,136 149,125 107,126" /><polygon fill="%23515751" fill-opacity="0.501961" points="85,56 86,84 143,56" /><polygon fill="%23ffffff" fill-opacity="0.501961" points="145,125 112,125 113,134" /><polygon fill="%23000000" fill-opacity="0.501961" points="89,161 184,132 -16,133" /><polygon fill="%23151515" fill-opacity="0.501961" points="72,102 175,104 153,36" /><polygon fill="%23ffffff" fill-opacity="0.501961" points="145,130 123,132 140,124" /><polygon fill="%23000000" fill-opacity="0.501961" points="110,127 9,-16 -16,159" /><polygon fill="%23000000" fill-opacity="0.501961" points="249,-16 145,127 270,160" /><polygon fill="%23000000" fill-opacity="0.501961" points="185,134 183,161 85,130" /><polygon fill="%233a3d3a" fill-opacity="0.501961" points="121,58 110,79 84,51" /><polygon fill="%23000000" fill-opacity="0.501961" points="152,161 141,103 271,132" /><polygon fill="%23000000" fill-opacity="0.501961" points="260,-16 -13,16 253,76" /><polygon fill="%230c0c0c" fill-opacity="0.501961" points="176,55 118,60 102,135" /><polygon fill="%23000000" fill-opacity="0.501961" points="169,126 53,121 121,103" /><polygon fill="%23fbfafb" fill-opacity="0.501961" points="127,132 134,126 112,127" /><polygon fill="%2320341f" fill-opacity="0.501961" points="126,78 127,67 98,68" /><polygon fill="%23000000" fill-opacity="0.501961" points="182,131 8,136 104,161" /><polygon fill="%23faf9fa" fill-opacity="0.501961" points="113,127 111,132 120,131" /><polygon fill="%230f120f" fill-opacity="0.501961" points="89,53 82,83 91,109" /><polygon fill="%23eae9ea" fill-opacity="0.501961" points="144,126 128,128 144,132" /><polygon fill="%233e3e3e" fill-opacity="0.501961" points="137,134 129,137 120,134" /><polygon fill="%23000000" fill-opacity="0.501961" points="125,109 82,161 -16,90" /><polygon fill="%234c4a4c" fill-opacity="0.501961" points="127,56 104,69 108,59" /><polygon fill="%230f0e0f" fill-opacity="0.501961" points="82,103 169,105 170,48" /><polygon fill="%230b0a0b" fill-opacity="0.501961" points="82,57 109,48 138,55" /><polygon fill="%23000000" fill-opacity="0.501961" points="17,161 124,-14 -16,-1" /><polygon fill="%239f9d9f" fill-opacity="0.501961" points="89,52 87,53 92,53" /><polygon fill="%232d4058" fill-opacity="0.501961" points="101,78 95,77 96,83" /><polygon fill="%23000000" fill-opacity="0.501961" points="252,84 143,155 146,118" /><polygon fill="%23737073" fill-opacity="0.501961" points="128,56 132,58 124,58" /></g></svg>
