<svg xmlns="http://www.w3.org/2000/svg" version="1.1" width="1280" height="730"><rect x="0" y="0" width="1280" height="730" fill="%23e8e8ec" /><g transform="scale(5.000000) translate(0.5 0.5)"><polygon fill="%2394201a" fill-opacity="0.501961" points="195,10 166,66 228,22" /><polygon fill="%23788cb1" fill-opacity="0.501961" points="131,33 62,29 63,77" /><polygon fill="%23ffffff" fill-opacity="0.501961" points="-15,140 271,40 253,161" /><polygon fill="%23a17b78" fill-opacity="0.501961" points="224,-6 179,63 223,40" /><polygon fill="%23ffffff" fill-opacity="0.501961" points="2,-16 83,161 -15,149" /><polygon fill="%23d7dbe6" fill-opacity="0.501961" points="148,31 26,85 227,87" /><polygon fill="%23ffffff" fill-opacity="0.501961" points="231,161 224,-16 271,2" /><polygon fill="%232468ff" fill-opacity="0.501961" points="58,60 86,54 88,65" /><polygon fill="%237a3525" fill-opacity="0.501961" points="212,35 199,16 192,40" /><polygon fill="%23cacedb" fill-opacity="0.501961" points="32,2 88,3 32,88" /><polygon fill="%2386878d" fill-opacity="0.501961" points="141,53 126,66 120,86" /><polygon fill="%23cdd7dc" fill-opacity="0.501961" points="194,101 50,100 126,121" /><polygon fill="%23e5e7ef" fill-opacity="0.501961" points="133,-15 249,-7 106,64" /><polygon fill="%23cbd6df" fill-opacity="0.501961" points="233,32 198,41 188,83" /><polygon fill="%23e5e7ec" fill-opacity="0.501961" points="170,48 62,53 239,92" /><polygon fill="%234f5e69" fill-opacity="0.501961" points="117,47 109,51 95,46" /><polygon fill="%233d2b13" fill-opacity="0.501961" points="223,25 206,28 223,17" /><polygon fill="%23546474" fill-opacity="0.501961" points="78,7 61,10 62,4" /><polygon fill="%23e09078" fill-opacity="0.501961" points="175,45 227,10 195,10" /><polygon fill="%23ffffff" fill-opacity="0.501961" points="9,140 271,93 251,161" /><polygon fill="%23ffffff" fill-opacity="0.501961" points="23,161 -16,23 31,-16" /><polygon fill="%23f6ffff" fill-opacity="0.501961" points="271,39 242,25 204,31" /><polygon fill="%23ffffff" fill-opacity="0.501961" points="125,83 155,129 148,53" /><polygon fill="%23e9527d" fill-opacity="0.501961" points="177,50 200,35 191,56" /><polygon fill="%23ffffff" fill-opacity="0.501961" points="140,86 45,89 99,102" /><polygon fill="%23959b9f" fill-opacity="0.501961" points="64,28 59,41 106,42" /><polygon fill="%239ba6b0" fill-opacity="0.501961" points="136,99 106,101 117,106" /><polygon fill="%23d9dae2" fill-opacity="0.501961" points="33,89 30,63 103,64" /><polygon fill="%23551c08" fill-opacity="0.501961" points="206,18 196,19 195,27" /><polygon fill="%23e0568c" fill-opacity="0.501961" points="175,49 186,23 195,39" /></g></svg>
