<svg xmlns="http://www.w3.org/2000/svg" version="1.1" width="1280" height="734"><rect x="0" y="0" width="1280" height="734" fill="#aca8a6" /><g transform="scale(5.000000) translate(0.5 0.5)"><polygon fill="#271f15" fill-opacity="0.501961" points="250,87 -16,86 224,-7" /><polygon fill="#ffffff" fill-opacity="0.501961" points="198,161 271,87 -16,88" /><polygon fill="#ffffff" fill-opacity="0.501961" points="6,85 271,138 -16,161" /><polygon fill="#ffffff" fill-opacity="0.501961" points="271,87 -16,88 251,161" /><polygon fill="#7f7d7c" fill-opacity="0.501961" points="-12,81 4,-16 271,33" /><polygon fill="#ffffff" fill-opacity="0.501961" points="-16,86 267,144 -2,161" /><polygon fill="#b9bab7" fill-opacity="0.501961" points="177,54 189,2 71,54" /><polygon fill="#14222c" fill-opacity="0.501961" points="-16,69 125,86 109,51" /><polygon fill="#4a2c14" fill-opacity="0.501961" points="189,-16 184,87 246,83" /><polygon fill="#000000" fill-opacity="0.501961" points="187,54 145,56 158,85" /><polygon fill="#713020" fill-opacity="0.501961" points="53,37 76,12 27,3" /><polygon fill="#ffffff" fill-opacity="0.501961" points="265,144 63,89 271,88" /><polygon fill="#a4a39e" fill-opacity="0.501961" points="115,67 155,90 120,-13" /><polygon fill="#4d5d69" fill-opacity="0.501961" points="9,88 122,62 -16,56" /><polygon fill="#000000" fill-opacity="0.501961" points="112,64 125,87 87,78" /><polygon fill="#8b756c" fill-opacity="0.501961" points="211,68 204,13 240,-7" /><polygon fill="#ffffff" fill-opacity="0.501961" points="-16,148 165,151 -16,89" /><polygon fill="#0a0808" fill-opacity="0.501961" points="-16,87 -5,62 18,86" /><polygon fill="#acb0b2" fill-opacity="0.501961" points="271,64 229,48 237,-12" /><polygon fill="#a38876" fill-opacity="0.501961" points="191,87 165,87 169,60" /><polygon fill="#000000" fill-opacity="0.501961" points="73,65 82,54 109,56" /><polygon fill="#43301e" fill-opacity="0.501961" points="198,84 210,-4 185,-16" /><polygon fill="#989894" fill-opacity="0.501961" points="189,43 40,60 176,-16" /><polygon fill="#cec1b5" fill-opacity="0.501961" points="108,62 102,69 92,61" /><polygon fill="#97a8af" fill-opacity="0.501961" points="43,2 43,22 63,11" /><polygon fill="#efefef" fill-opacity="0.501961" points="171,115 82,82 -16,103" /><polygon fill="#99a2ab" fill-opacity="0.501961" points="-16,68 -3,10 69,39" /><polygon fill="#6d2412" fill-opacity="0.501961" points="33,0 71,2 71,-16" /><polygon fill="#b9b9b9" fill-opacity="0.501961" points="157,109 100,108 125,117" /><polygon fill="#4e5f6e" fill-opacity="0.501961" points="12,56 94,82 3,87" /></g></svg>
