<svg xmlns="http://www.w3.org/2000/svg" version="1.1" width="1280" height="734"><rect x="0" y="0" width="1280" height="734" fill="#635d50" /><g transform="scale(5.000000) translate(0.5 0.5)"><polygon fill="#fffffe" fill-opacity="0.501961" points="215,159 231,-16 127,19" /><polygon fill="#000000" fill-opacity="0.501961" points="160,10 8,162 -16,-16" /><polygon fill="#0c0800" fill-opacity="0.501961" points="111,143 -16,162 13,-16" /><polygon fill="#adaac2" fill-opacity="0.501961" points="195,-16 118,17 121,129" /><polygon fill="#dcd8b5" fill-opacity="0.501961" points="257,17 172,162 152,17" /><polygon fill="#fcd042" fill-opacity="0.501961" points="93,58 34,59 40,80" /><polygon fill="#e4b143" fill-opacity="0.501961" points="157,162 220,145 219,66" /><polygon fill="#ffffd6" fill-opacity="0.501961" points="117,89 136,68 131,128" /><polygon fill="#110040" fill-opacity="0.501961" points="141,155 138,78 171,79" /><polygon fill="#1a1800" fill-opacity="0.501961" points="223,162 219,93 271,130" /><polygon fill="#defff1" fill-opacity="0.501961" points="210,-16 211,55 151,73" /><polygon fill="#50486c" fill-opacity="0.501961" points="109,-16 163,21 111,81" /><polygon fill="#b79e7c" fill-opacity="0.501961" points="263,105 228,67 128,66" /><polygon fill="#060500" fill-opacity="0.501961" points="1,-16 148,-16 -16,85" /><polygon fill="#0f0f00" fill-opacity="0.501961" points="-16,146 91,150 102,76" /><polygon fill="#a96476" fill-opacity="0.501961" points="150,99 204,162 199,111" /><polygon fill="#4b4621" fill-opacity="0.501961" points="107,154 24,77 103,62" /><polygon fill="#272200" fill-opacity="0.501961" points="219,68 258,76 271,40" /><polygon fill="#392945" fill-opacity="0.501961" points="168,69 165,93 183,120" /><polygon fill="#787694" fill-opacity="0.501961" points="268,11 231,60 218,-6" /><polygon fill="#f9fffe" fill-opacity="0.501961" points="249,75 235,91 238,75" /><polygon fill="#d23cff" fill-opacity="0.501961" points="197,132 187,128 189,162" /><polygon fill="#1e002f" fill-opacity="0.501961" points="164,116 172,162 142,103" /><polygon fill="#ecffff" fill-opacity="0.501961" points="166,94 174,110 157,102" /><polygon fill="#381f0f" fill-opacity="0.501961" points="126,162 119,115 170,161" /><polygon fill="#c9a334" fill-opacity="0.501961" points="91,72 65,71 89,59" /><polygon fill="#151100" fill-opacity="0.501961" points="271,109 241,104 253,160" /><polygon fill="#feffd5" fill-opacity="0.501961" points="136,128 133,81 122,112" /><polygon fill="#888f57" fill-opacity="0.501961" points="112,160 101,104 130,44" /><polygon fill="#c7c895" fill-opacity="0.501961" points="247,87 235,110 221,113" /></g></svg>
