<svg xmlns="http://www.w3.org/2000/svg" version="1.1" width="1280" height="734"><rect x="0" y="0" width="1280" height="734" fill="#706c6b" /><g transform="scale(5.000000) translate(0.5 0.5)"><polygon fill="#ffffff" fill-opacity="0.501961" points="-16,116 78,161 244,117" /><polygon fill="#ffffff" fill-opacity="0.501961" points="178,116 244,161 271,117" /><polygon fill="#26201e" fill-opacity="0.501961" points="80,115 255,-16 255,116" /><polygon fill="#ffffff" fill-opacity="0.501961" points="13,161 179,120 -16,116" /><polygon fill="#2b2422" fill-opacity="0.501961" points="-15,114 -2,-16 93,115" /><polygon fill="#ffffff" fill-opacity="0.501961" points="78,61 41,79 137,78" /><polygon fill="#080000" fill-opacity="0.501961" points="144,158 144,129 211,129" /><polygon fill="#ffffff" fill-opacity="0.501961" points="271,121 211,161 204,116" /><polygon fill="#2f2728" fill-opacity="0.501961" points="157,68 61,68 192,21" /><polygon fill="#ffffff" fill-opacity="0.501961" points="179,123 -16,117 19,161" /><polygon fill="#ffffff" fill-opacity="0.501961" points="109,79 75,69 140,70" /><polygon fill="#010000" fill-opacity="0.501961" points="89,-16 22,2 156,3" /><polygon fill="#1f1b18" fill-opacity="0.501961" points="54,115 141,80 67,79" /><polygon fill="#ffffff" fill-opacity="0.501961" points="94,76 45,80 51,68" /><polygon fill="#616164" fill-opacity="0.501961" points="64,63 190,-16 271,23" /><polygon fill="#ffffff" fill-opacity="0.501961" points="66,124 146,151 142,117" /><polygon fill="#ffffff" fill-opacity="0.501961" points="271,116 246,161 191,119" /><polygon fill="#3a3838" fill-opacity="0.501961" points="95,143 61,142 38,161" /><polygon fill="#050303" fill-opacity="0.501961" points="252,3 183,-16 142,3" /><polygon fill="#000208" fill-opacity="0.501961" points="222,113 163,117 155,98" /><polygon fill="#555256" fill-opacity="0.501961" points="-2,-10 2,36 166,35" /><polygon fill="#2b2627" fill-opacity="0.501961" points="48,23 47,86 -16,103" /><polygon fill="#f4f1e9" fill-opacity="0.501961" points="139,161 172,161 156,136" /><polygon fill="#ffffff" fill-opacity="0.501961" points="171,116 125,129 216,128" /><polygon fill="#a6a2a0" fill-opacity="0.501961" points="132,36 94,50 152,49" /><polygon fill="#7c7c7f" fill-opacity="0.501961" points="271,5 164,12 271,34" /><polygon fill="#261e13" fill-opacity="0.501961" points="142,129 174,144 207,133" /><polygon fill="#e0e7e2" fill-opacity="0.501961" points="188,161 177,120 176,156" /><polygon fill="#ffffff" fill-opacity="0.501961" points="135,69 136,80 104,68" /><polygon fill="#7d7d80" fill-opacity="0.501961" points="99,11 11,31 -16,6" /></g></svg>
