<svg xmlns="http://www.w3.org/2000/svg" version="1.1" width="1280" height="734"><rect x="0" y="0" width="1280" height="734" fill="#5990a4" /><g transform="scale(5.000000) translate(0.5 0.5)"><polygon fill="#007eff" fill-opacity="0.501961" points="31,-16 241,76 271,1" /><polygon fill="#c19550" fill-opacity="0.501961" points="232,161 -16,91 271,60" /><polygon fill="#0096ff" fill-opacity="0.501961" points="69,48 11,-16 -16,70" /><polygon fill="#00004d" fill-opacity="0.501961" points="78,82 122,77 102,161" /><polygon fill="#af2f08" fill-opacity="0.501961" points="169,48 136,40 151,161" /><polygon fill="#006eff" fill-opacity="0.501961" points="271,7 101,-16 121,50" /><polygon fill="#d4d790" fill-opacity="0.501961" points="271,120 96,76 263,66" /><polygon fill="#e2b46d" fill-opacity="0.501961" points="-16,119 49,48 87,106" /><polygon fill="#00a6fa" fill-opacity="0.501961" points="253,76 113,23 268,13" /><polygon fill="#0087ff" fill-opacity="0.501961" points="-16,5 35,75 56,-15" /><polygon fill="#45a38e" fill-opacity="0.501961" points="108,125 231,161 271,114" /><polygon fill="#a590a2" fill-opacity="0.501961" points="35,-16 103,9 130,103" /><polygon fill="#b3dd98" fill-opacity="0.501961" points="-16,60 103,87 -5,97" /><polygon fill="#a20000" fill-opacity="0.501961" points="157,35 168,69 132,63" /><polygon fill="#00c5be" fill-opacity="0.501961" points="176,73 167,40 271,54" /><polygon fill="#3c1b4b" fill-opacity="0.501961" points="85,139 108,52 117,161" /><polygon fill="#7a3b44" fill-opacity="0.501961" points="116,100 165,96 154,161" /><polygon fill="#0075ff" fill-opacity="0.501961" points="112,2 120,50 271,-1" /><polygon fill="#00c8d5" fill-opacity="0.501961" points="113,63 139,9 133,68" /><polygon fill="#a8cb8b" fill-opacity="0.501961" points="235,63 119,71 127,106" /><polygon fill="#e07c5b" fill-opacity="0.501961" points="154,106 271,110 229,86" /><polygon fill="#6cba76" fill-opacity="0.501961" points="86,106 -16,121 90,161" /><polygon fill="#00b2c1" fill-opacity="0.501961" points="37,20 -16,75 67,47" /><polygon fill="#ff6e3d" fill-opacity="0.501961" points="161,37 143,42 171,59" /><polygon fill="#006aff" fill-opacity="0.501961" points="84,0 269,1 271,52" /><polygon fill="#307fce" fill-opacity="0.501961" points="95,31 77,95 101,92" /><polygon fill="#8d1d48" fill-opacity="0.501961" points="87,32 74,45 49,35" /><polygon fill="#007aff" fill-opacity="0.501961" points="-16,42 57,39 35,-16" /><polygon fill="#300001" fill-opacity="0.501961" points="167,66 136,51 151,74" /><polygon fill="#b0715c" fill-opacity="0.501961" points="-16,88 89,106 -16,123" /></g></svg>
