<svg xmlns="http://www.w3.org/2000/svg" version="1.1" width="1280" height="730"><rect x="0" y="0" width="1280" height="730" fill="#030403" /><g transform="scale(5.000000) translate(0.5 0.5)"><polygon fill="#ffffff" fill-opacity="0.501961" points="151,125 134,135 100,126" /><polygon fill="%23505651" fill-opacity="0.501961" points="84,56 142,57 89,83" /><polygon fill="#000000" fill-opacity="0.501961" points="44,-16 111,128 -15,161" /><polygon fill="#ffffff" fill-opacity="0.501961" points="141,129 120,125 103,132" /><polygon fill="#ffffff" fill-opacity="0.501961" points="145,132 121,125 143,125" /><polygon fill="#000000" fill-opacity="0.501961" points="71,131 60,161 151,133" /><polygon fill="#101010" fill-opacity="0.501961" points="159,131 69,95 171,43" /><polygon fill="#000000" fill-opacity="0.501961" points="214,-16 135,150 271,129" /><polygon fill="#000000" fill-opacity="0.501961" points="-16,129 -3,-10 138,161" /><polygon fill="#000000" fill-opacity="0.501961" points="271,132 229,161 121,132" /><polygon fill="#ffffff" fill-opacity="0.501961" points="113,131 112,126 131,130" /><polygon fill="#111211" fill-opacity="0.501961" points="72,105 141,45 178,101" /><polygon fill="#2c342d" fill-opacity="0.501961" points="84,83 85,48 128,72" /><polygon fill="#000000" fill-opacity="0.501961" points="44,132 136,96 160,120" /><polygon fill="#514c50" fill-opacity="0.501961" points="107,67 95,58 128,57" /><polygon fill="#ffffff" fill-opacity="0.501961" points="144,126 130,131 138,131" /><polygon fill="#000000" fill-opacity="0.501961" points="150,161 144,113 271,53" /><polygon fill="#000000" fill-opacity="0.501961" points="251,-16 270,75 -16,17" /><polygon fill="#000000" fill-opacity="0.501961" points="110,106 67,102 112,158" /><polygon fill="#020001" fill-opacity="0.501961" points="121,59 113,68 147,60" /><polygon fill="#0c100b" fill-opacity="0.501961" points="87,86 87,52 93,66" /><polygon fill="#090909" fill-opacity="0.501961" points="116,132 130,143 140,132" /><polygon fill="#0f0e0f" fill-opacity="0.501961" points="172,104 171,49 113,103" /><polygon fill="#ffffff" fill-opacity="0.501961" points="112,127 119,127 115,125" /><polygon fill="#5c5b5c" fill-opacity="0.501961" points="129,58 132,55 139,57" /><polygon fill="#19539b" fill-opacity="0.501961" points="97,83 96,78 95,81" /><polygon fill="#767276" fill-opacity="0.501961" points="89,53 83,52 92,51" /><polygon fill="#e2e2e2" fill-opacity="0.501961" points="117,132 122,126 112,126" /><polygon fill="#000000" fill-opacity="0.501961" points="-15,-16 83,146 85,22" /><polygon fill="#000000" fill-opacity="0.501961" points="83,105 183,106 117,125" /></g></svg>
