<svg xmlns="http://www.w3.org/2000/svg" version="1.1" width="1280" height="730">
<rect x="0" y="0" width="1280" height="730" fill="#89c4c9" />
<g transform="scale(5.000000) translate(0.5 0.5)">
<polygon fill="#160000" fill-opacity="0.501961" points="10,75 77,100 221,6" />
<polygon fill="#ffffff" fill-opacity="0.501961" points="-16,136 250,89 265,161" />
<polygon fill="#1b0000" fill-opacity="0.501961" points="133,64 222,6 223,43" />
<polygon fill="#ffffff" fill-opacity="0.501961" points="194,112 -16,116 26,161" />
<polygon fill="#23daed" fill-opacity="0.501961" points="187,48 271,106 79,113" />
<polygon fill="#2ad5ea" fill-opacity="0.501961" points="-16,8 187,13 4,80" />
<polygon fill="#ffffff" fill-opacity="0.501961" points="201,-16 271,9 111,7" />
<polygon fill="#ffffff" fill-opacity="0.501961" points="65,-16 -16,7 149,8" />
<polygon fill="#ffffff" fill-opacity="0.501961" points="271,107 238,161 40,115" />
<polygon fill="#fef5f1" fill-opacity="0.501961" points="125,61 160,49 93,51" />
<polygon fill="#160d08" fill-opacity="0.501961" points="95,48 32,70 88,96" />
<polygon fill="#40f1ff" fill-opacity="0.501961" points="157,64 96,75 93,106" />
<polygon fill="#ff833a" fill-opacity="0.501961" points="219,73 203,39 237,55" />
<polygon fill="#ffffff" fill-opacity="0.501961" points="161,117 -6,116 2,160" />
<polygon fill="#38dff0" fill-opacity="0.501961" points="-16,118 63,112 -3,49" />
<polygon fill="#ff9d4e" fill-opacity="0.501961" points="59,92 75,122 89,95" />
<polygon fill="#2dccdf" fill-opacity="0.501961" points="218,9 249,106 271,8" />
<polygon fill="#070300" fill-opacity="0.501961" points="232,23 160,53 216,46" />
<polygon fill="#ffffff" fill-opacity="0.501961" points="45,8 197,8 133,-16" />
<polygon fill="#ff2700" fill-opacity="0.501961" points="200,-15 206,7 187,5" />
<polygon fill="#a1a4a2" fill-opacity="0.501961" points="175,30 140,59 227,26" />
<polygon fill="#5ed3e0" fill-opacity="0.501961" points="84,109 223,109 206,41" />
<polygon fill="#ffffff" fill-opacity="0.501961" points="271,106 64,115 268,161" />
<polygon fill="#252521" fill-opacity="0.501961" points="131,33 146,50 181,19" />
<polygon fill="#ffffff" fill-opacity="0.501961" points="202,-16 209,12 268,3" />
<polygon fill="#1d1410" fill-opacity="0.501961" points="66,84 29,72 30,88" />
<polygon fill="#45e0f4" fill-opacity="0.501961" points="62,85 17,92 65,100" />
<polygon fill="#ffffff" fill-opacity="0.501961" points="2,9 -6,-16 85,5" />
<polygon fill="#c8b5b3" fill-opacity="0.501961" points="167,133 167,161 77,135" />
<polygon fill="#4c4039" fill-opacity="0.501961" points="232,28 168,21 223,11" />
</g>
</svg>