<svg xmlns="http://www.w3.org/2000/svg" version="1.1" width="1280" height="735">
<rect x="0" y="0" width="1280" height="735" fill="#f9f9f9" />
<g transform="scale(5.000000) translate(0.5 0.5)">
<polygon fill="#575757" fill-opacity="0.501961" points="119,18 137,17 132,21" />
<polygon fill="#767676" fill-opacity="0.501961" points="55,42 80,43 69,38" />
<polygon fill="#707070" fill-opacity="0.501961" points="54,108 73,107 55,103" />
<polygon fill="#959494" fill-opacity="0.501961" points="142,128 111,129 128,123" />
<polygon fill="#9f9f9f" fill-opacity="0.501961" points="92,129 81,122 65,129" />
<polygon fill="#e9e9e9" fill-opacity="0.501961" points="57,95 152,93 54,46" />
<polygon fill="#ffffff" fill-opacity="0.501961" points="-16,36 94,-16 105,41" />
<polygon fill="#adadad" fill-opacity="0.501961" points="181,129 171,128 178,115" />
<polygon fill="#ffffff" fill-opacity="0.501961" points="205,73 202,126 66,125" />
<polygon fill="#dfdfdf" fill-opacity="0.501961" points="153,53 152,88 190,66" />
<polygon fill="#ffffff" fill-opacity="0.501961" points="84,61 183,-11 271,29" />
<polygon fill="#ffffff" fill-opacity="0.501961" points="54,68 101,94 106,66" />
<polygon fill="#dcdcdc" fill-opacity="0.501961" points="107,69 134,57 102,54" />
<polygon fill="#d2d2d2" fill-opacity="0.501961" points="183,86 155,86 179,77" />
<polygon fill="#c4c4c4" fill-opacity="0.501961" points="149,13 150,8 131,9" />
<polygon fill="#949494" fill-opacity="0.501961" points="131,18 122,21 116,18" />
<polygon fill="#dddddd" fill-opacity="0.501961" points="100,78 139,79 120,95" />
<polygon fill="#ffffff" fill-opacity="0.501961" points="215,-3 132,-4 198,85" />
<polygon fill="#dedede" fill-opacity="0.501961" points="95,92 55,72 55,93" />
<polygon fill="#bbbbbb" fill-opacity="0.501961" points="131,116 128,127 124,118" />
<polygon fill="#ffffff" fill-opacity="0.501961" points="97,35 113,162 82,111" />
<polygon fill="#484848" fill-opacity="0.501961" points="80,118 77,118 80,116" />
<polygon fill="#ffffff" fill-opacity="0.501961" points="149,70 185,71 171,78" />
<polygon fill="#ffffff" fill-opacity="0.501961" points="49,105 65,104 63,94" />
<polygon fill="#ffffff" fill-opacity="0.501961" points="133,86 126,19 168,120" />
<polygon fill="#9f9f9f" fill-opacity="0.501961" points="4,7 1,11 10,8" />
<polygon fill="#ffffff" fill-opacity="0.501961" points="127,14 -16,-2 69,40" />
<polygon fill="#c9c9c9" fill-opacity="0.501961" points="62,63 72,54 57,54" />
<polygon fill="#ffffff" fill-opacity="0.501961" points="216,131 -7,128 112,162" />
<polygon fill="#767676" fill-opacity="0.501961" points="108,8 114,8 115,10" />
</g>
</svg>