<svg xmlns="http://www.w3.org/2000/svg" width="1280" height="720"><path fill="#d4dfdc" d="M0 0h1280v720H0z"/><g fill-opacity=".502"><path d="M672.5 32.5l395-110 290 110zM867.5 362.5l5 165-295-80zM162.5-77.5l-240 110h465z"/><path fill="#00baa4" d="M1262.5 262.5l-490-65 585-90z"/><path d="M632.5 177.5l120-120-150 20z"/><path fill="#fff" d="M57.5 797.5l-135-365 1435 130z"/><path fill="#fff" d="M662.5 42.5l-700 680-40-690z"/><path d="M727.5 22.5l310-100 320 110z"/><path fill="#00bcac" d="M747.5 247.5l-95-85-215 80z"/><path fill="#fff" d="M1312.5 797.5l45-560-625 30z"/><path fill="#020000" d="M882.5 377.5l-135 155-10-160z"/><path d="M-77.5 32.5l365-110 45 100z"/><path fill="#00c5b6" d="M842.5 177.5l515 85-35-140z"/><path fill="#fff" d="M617.5 257.5l110 325 15-285z"/><path d="M862.5 7.5l-220-85-300 75z"/><path fill="#3c3334" d="M252.5 417.5l70 85 55-90z"/><path d="M617.5 87.5l115-20-80 100z"/><path fill="#070000" d="M432.5 697.5l40-45-50-5z"/><path fill="#af5700" d="M567.5 432.5l105-55-10 135z"/><path fill="#fff" d="M982.5 157.5l370-125-540 5z"/><path d="M742.5 502.5l125 5v-110z"/><path fill="#fffdf5" d="M-77.5 252.5l755-55-165-160z"/><path fill="#00ccbd" d="M1272.5 122.5l85 120-435-5z"/><path fill="#fffefd" d="M-77.5 252.5l640 190 460-200z"/><path fill="#fffffb" d="M997.5 797.5l360-285-820-5z"/><path fill="#ff7600" d="M277.5 187.5l-35-30 120 5z"/><path fill="#8d6569" d="M897.5 187.5l-60-125 195 185z"/><path fill="#eaf9f7" d="M792.5 37.5l-90 170 340 75z"/><path fill="#00d1c1" d="M537.5 217.5l-125 45-85-30z"/><path fill="#221f04" d="M622.5 672.5l-5-40-45 50z"/></g></svg>
